M48
;Layer_Color=9474304
;FILE_FORMAT=2:4
INCH,TZ
;TYPE=PLATED
T1F00S00C0.0118
T2F00S00C0.0256
T3F00S00C0.0276
T4F00S00C0.0315
T5F00S00C0.0402
T6F00S00C0.0472
;TYPE=NON_PLATED
T7F00S00C0.0128
T8F00S00C0.1083
%
T01
X722Y2795
X1673Y2713
X2398Y2968
X2362Y3465
X2409Y4772
X2638Y5551
Y5945
X2689Y6366
X3370Y6776
X3465Y7126
X2362Y7441
X1862Y7402
X1488Y7496
X906Y7559
X2402Y8260
X3031Y5354
X3587Y5004
X4217Y4776
X4764Y4370
X4870Y7063
X3976Y2323
X512Y4173
X5646Y2902
X5630Y1220
X8614Y2250
X10366Y2354
X12327Y1787
X13764Y1772
X13303Y3091
X13866Y4035
X15343Y4130
X16339Y3228
X16772Y6535
X17677Y7102
X15602Y7201
X16102Y8016
X14972Y5961
X12594Y6350
X12862Y4909
X11142Y4720
X7378Y6311
X5866Y9094
X1894Y9047
T02
X7211Y5701
X8625
Y4287
T03
X13327Y7720
X14311
T04
X24539Y3150
Y3937
Y4724
Y5512
Y6299
Y7087
Y7874
Y8661
T05
X13094Y906
X14094
X15094
X16094
X21295Y9933
X22295
Y10933
X21295
X20295
Y9933
X19295
X18295
X17295
Y10933
X16295
X15295
Y9933
X14295
Y10933
X13295
Y9933
X12295
Y10933
X11295
X10295
Y9933
X9295
X8295
Y10933
X7295
X6295
Y9933
X7295
X9295Y10933
X11295Y9933
X16295
X18295Y10933
X19295
X5295
X4295
X3295
Y9933
X4295
X5295
T06
X18367Y3671
X19689Y3124
X21011Y3671
Y6316
X19689Y6864
X18367Y6316
T07
X1177Y3535
Y8264
T08
X1378Y1378
X24213
Y10433
X1378
M30
