G04*
G04 #@! TF.GenerationSoftware,Altium Limited,Altium Designer,22.3.1 (43)*
G04*
G04 Layer_Physical_Order=1*
G04 Layer_Color=255*
%FSLAX25Y25*%
%MOIN*%
G70*
G04*
G04 #@! TF.SameCoordinates,CFB6BFBE-1D4E-4C59-BBC9-44663F7F7C7A*
G04*
G04*
G04 #@! TF.FilePolarity,Positive*
G04*
G01*
G75*
%ADD16R,0.06102X0.04921*%
%ADD17R,0.04921X0.06102*%
%ADD18R,0.05315X0.03740*%
%ADD19R,0.06299X0.02756*%
%ADD34R,0.04528X0.04528*%
%ADD35C,0.04528*%
%ADD36C,0.01280*%
%ADD39C,0.01181*%
%ADD40C,0.01968*%
%ADD41R,0.06024X0.06024*%
%ADD42C,0.06024*%
%ADD43C,0.05906*%
%ADD44R,0.05906X0.05906*%
%ADD45C,0.04331*%
%ADD46R,0.04331X0.04331*%
%ADD47R,0.04724X0.04724*%
%ADD48C,0.04724*%
%ADD49R,0.07087X0.07087*%
%ADD50C,0.07087*%
%ADD51C,0.10827*%
%ADD52C,0.02362*%
G36*
X229921Y94791D02*
X152798D01*
X149082Y98507D01*
Y104606D01*
X148975Y105144D01*
X148671Y105600D01*
X146418Y107852D01*
X146438Y107887D01*
X146693Y108838D01*
Y109823D01*
X146438Y110774D01*
X145946Y111627D01*
X145249Y112324D01*
X144396Y112816D01*
X143445Y113071D01*
X142460D01*
X141509Y112816D01*
X140656Y112324D01*
X139960Y111627D01*
X139468Y110774D01*
X139213Y109823D01*
Y108838D01*
X139468Y107887D01*
X139960Y107034D01*
X140656Y106338D01*
X141509Y105845D01*
X142460Y105591D01*
X143445D01*
X144396Y105845D01*
X144431Y105866D01*
X146272Y104024D01*
Y102008D01*
X145772Y101801D01*
X145249Y102324D01*
X144396Y102816D01*
X143445Y103071D01*
X142460D01*
X141509Y102816D01*
X140656Y102324D01*
X139960Y101627D01*
X139582Y100973D01*
X139082Y101107D01*
Y104606D01*
X138975Y105144D01*
X138671Y105600D01*
X136418Y107852D01*
X136438Y107887D01*
X136693Y108838D01*
Y109823D01*
X136438Y110774D01*
X135946Y111627D01*
X135249Y112324D01*
X134396Y112816D01*
X133445Y113071D01*
X132460D01*
X131509Y112816D01*
X130656Y112324D01*
X129960Y111627D01*
X129467Y110774D01*
X129213Y109823D01*
Y108838D01*
X129467Y107887D01*
X129960Y107034D01*
X130656Y106338D01*
X131509Y105845D01*
X132460Y105591D01*
X133445D01*
X134396Y105845D01*
X134431Y105866D01*
X136272Y104024D01*
Y102008D01*
X135772Y101801D01*
X135249Y102324D01*
X134396Y102816D01*
X133445Y103071D01*
X132460D01*
X131509Y102816D01*
X130656Y102324D01*
X129960Y101627D01*
X129467Y100774D01*
X129213Y99823D01*
Y98838D01*
X129467Y97887D01*
X129960Y97034D01*
X130656Y96338D01*
X131509Y95846D01*
X132301Y95633D01*
Y95231D01*
X132408Y94693D01*
X132713Y94238D01*
X142904Y84046D01*
X143360Y83741D01*
X143488Y83716D01*
X143438Y83216D01*
X141054D01*
X126418Y97852D01*
X126438Y97887D01*
X126693Y98838D01*
Y99823D01*
X126438Y100774D01*
X125946Y101627D01*
X125249Y102324D01*
X124396Y102816D01*
X123445Y103071D01*
X122460D01*
X121509Y102816D01*
X120656Y102324D01*
X119960Y101627D01*
X119467Y100774D01*
X119213Y99823D01*
Y98838D01*
X119467Y97887D01*
X119960Y97034D01*
X120656Y96338D01*
X121509Y95846D01*
X122460Y95591D01*
X123445D01*
X124396Y95846D01*
X124431Y95865D01*
X139479Y80818D01*
X139935Y80513D01*
X140472Y80406D01*
X153670D01*
X158967Y75109D01*
X159423Y74804D01*
X159961Y74697D01*
X215953D01*
X242402Y48249D01*
X242244Y47659D01*
Y46829D01*
X242459Y46028D01*
X242873Y45310D01*
X243460Y44724D01*
X244178Y44309D01*
X244979Y44094D01*
X245808D01*
X246609Y44309D01*
X247328Y44724D01*
X247914Y45310D01*
X248329Y46028D01*
X248543Y46829D01*
Y47659D01*
X248329Y48460D01*
X247914Y49178D01*
X247328Y49764D01*
X246609Y50179D01*
X245808Y50394D01*
X244979D01*
X244389Y50236D01*
X217529Y77096D01*
X217073Y77400D01*
X216535Y77507D01*
X160617D01*
X160447Y77727D01*
X160539Y77958D01*
X160721Y78189D01*
X161415D01*
X162139Y78489D01*
X162363Y78713D01*
X219812D01*
X242402Y56123D01*
X242244Y55533D01*
Y54703D01*
X242459Y53902D01*
X242873Y53184D01*
X243460Y52598D01*
X244178Y52183D01*
X244979Y51968D01*
X245808D01*
X246609Y52183D01*
X247328Y52598D01*
X247914Y53184D01*
X248329Y53902D01*
X248543Y54703D01*
Y55533D01*
X248329Y56334D01*
X247914Y57052D01*
X247328Y57638D01*
X246609Y58053D01*
X245808Y58268D01*
X244979D01*
X244389Y58110D01*
X221387Y81112D01*
X220931Y81416D01*
X220394Y81523D01*
X162442D01*
X162139Y81826D01*
X161415Y82126D01*
X160632D01*
X159908Y81826D01*
X159355Y81273D01*
X159055Y80549D01*
Y79766D01*
X159100Y79657D01*
X158677Y79373D01*
X155245Y82805D01*
X154790Y83109D01*
X154662Y83134D01*
X154711Y83634D01*
X222764D01*
X242402Y63997D01*
X242244Y63407D01*
Y62577D01*
X242459Y61776D01*
X242873Y61058D01*
X243460Y60472D01*
X244178Y60057D01*
X244979Y59842D01*
X245808D01*
X246609Y60057D01*
X247328Y60472D01*
X247914Y61058D01*
X248329Y61776D01*
X248543Y62577D01*
Y63407D01*
X248329Y64208D01*
X247914Y64926D01*
X247328Y65512D01*
X246609Y65927D01*
X245808Y66142D01*
X244979D01*
X244389Y65984D01*
X224340Y86033D01*
X223884Y86337D01*
X223346Y86444D01*
X144480D01*
X135129Y95794D01*
X135166Y96290D01*
X135249Y96338D01*
X135772Y96861D01*
X136272Y96654D01*
Y95945D01*
X136379Y95407D01*
X136684Y94951D01*
X142589Y89046D01*
X143045Y88741D01*
X143583Y88634D01*
X225639D01*
X242402Y71871D01*
X242244Y71281D01*
Y70451D01*
X242459Y69650D01*
X242873Y68932D01*
X243460Y68346D01*
X244178Y67931D01*
X244979Y67716D01*
X245808D01*
X246609Y67931D01*
X247328Y68346D01*
X247914Y68932D01*
X248329Y69650D01*
X248543Y70451D01*
Y71281D01*
X248329Y72082D01*
X247914Y72800D01*
X247328Y73387D01*
X246609Y73801D01*
X245808Y74016D01*
X244979D01*
X244389Y73858D01*
X227214Y91033D01*
X226758Y91337D01*
X226220Y91444D01*
X144165D01*
X139082Y96527D01*
Y97555D01*
X139582Y97689D01*
X139960Y97034D01*
X140656Y96338D01*
X141509Y95846D01*
X142460Y95591D01*
X143445D01*
X144396Y95846D01*
X145249Y96338D01*
X145946Y97034D01*
X145977Y97089D01*
X146566Y97108D01*
X146684Y96931D01*
X151223Y92392D01*
X151679Y92088D01*
X152216Y91981D01*
X229921D01*
Y91339D01*
X238682D01*
X242402Y87619D01*
X242244Y87029D01*
Y86199D01*
X242459Y85399D01*
X242873Y84680D01*
X243460Y84094D01*
X244178Y83679D01*
X244979Y83465D01*
X245808D01*
X246609Y83679D01*
X247328Y84094D01*
X247914Y84680D01*
X248329Y85399D01*
X248543Y86199D01*
Y87029D01*
X248329Y87830D01*
X247914Y88548D01*
X247328Y89135D01*
X246609Y89549D01*
X245808Y89764D01*
X244979D01*
X244389Y89606D01*
X243118Y90877D01*
X243309Y91339D01*
X253937D01*
Y25591D01*
X229921D01*
Y1969D01*
X24409D01*
Y23425D01*
X1969D01*
Y94882D01*
X24016D01*
Y116142D01*
X229921D01*
Y94791D01*
D02*
G37*
%LPC*%
G36*
X223445Y113071D02*
X222460D01*
X221509Y112816D01*
X220656Y112324D01*
X219960Y111627D01*
X219467Y110774D01*
X219213Y109823D01*
Y108838D01*
X219467Y107887D01*
X219960Y107034D01*
X220656Y106338D01*
X221509Y105845D01*
X222460Y105591D01*
X223445D01*
X224396Y105845D01*
X225249Y106338D01*
X225946Y107034D01*
X226438Y107887D01*
X226693Y108838D01*
Y109823D01*
X226438Y110774D01*
X225946Y111627D01*
X225249Y112324D01*
X224396Y112816D01*
X223445Y113071D01*
D02*
G37*
G36*
X213445D02*
X212460D01*
X211509Y112816D01*
X210656Y112324D01*
X209960Y111627D01*
X209468Y110774D01*
X209213Y109823D01*
Y108838D01*
X209468Y107887D01*
X209960Y107034D01*
X210656Y106338D01*
X211509Y105845D01*
X212460Y105591D01*
X213445D01*
X214396Y105845D01*
X215249Y106338D01*
X215946Y107034D01*
X216438Y107887D01*
X216693Y108838D01*
Y109823D01*
X216438Y110774D01*
X215946Y111627D01*
X215249Y112324D01*
X214396Y112816D01*
X213445Y113071D01*
D02*
G37*
G36*
X203445D02*
X202460D01*
X201509Y112816D01*
X200656Y112324D01*
X199960Y111627D01*
X199468Y110774D01*
X199213Y109823D01*
Y108838D01*
X199468Y107887D01*
X199960Y107034D01*
X200656Y106338D01*
X201509Y105845D01*
X202460Y105591D01*
X203445D01*
X204396Y105845D01*
X205249Y106338D01*
X205946Y107034D01*
X206438Y107887D01*
X206693Y108838D01*
Y109823D01*
X206438Y110774D01*
X205946Y111627D01*
X205249Y112324D01*
X204396Y112816D01*
X203445Y113071D01*
D02*
G37*
G36*
X183445D02*
X182460D01*
X181509Y112816D01*
X180656Y112324D01*
X179960Y111627D01*
X179467Y110774D01*
X179213Y109823D01*
Y108838D01*
X179467Y107887D01*
X179960Y107034D01*
X180656Y106338D01*
X181509Y105845D01*
X182460Y105591D01*
X183445D01*
X184396Y105845D01*
X185249Y106338D01*
X185946Y107034D01*
X186438Y107887D01*
X186693Y108838D01*
Y109823D01*
X186438Y110774D01*
X185946Y111627D01*
X185249Y112324D01*
X184396Y112816D01*
X183445Y113071D01*
D02*
G37*
G36*
X163445D02*
X162460D01*
X161509Y112816D01*
X160656Y112324D01*
X159960Y111627D01*
X159467Y110774D01*
X159213Y109823D01*
Y108838D01*
X159467Y107887D01*
X159960Y107034D01*
X160656Y106338D01*
X161509Y105845D01*
X162460Y105591D01*
X163445D01*
X164396Y105845D01*
X165249Y106338D01*
X165946Y107034D01*
X166438Y107887D01*
X166693Y108838D01*
Y109823D01*
X166438Y110774D01*
X165946Y111627D01*
X165249Y112324D01*
X164396Y112816D01*
X163445Y113071D01*
D02*
G37*
G36*
X153445D02*
X152460D01*
X151509Y112816D01*
X150656Y112324D01*
X149960Y111627D01*
X149468Y110774D01*
X149213Y109823D01*
Y108838D01*
X149468Y107887D01*
X149960Y107034D01*
X150656Y106338D01*
X151509Y105845D01*
X152460Y105591D01*
X153445D01*
X154396Y105845D01*
X155249Y106338D01*
X155946Y107034D01*
X156438Y107887D01*
X156693Y108838D01*
Y109823D01*
X156438Y110774D01*
X155946Y111627D01*
X155249Y112324D01*
X154396Y112816D01*
X153445Y113071D01*
D02*
G37*
G36*
X113445D02*
X112460D01*
X111509Y112816D01*
X110656Y112324D01*
X109960Y111627D01*
X109467Y110774D01*
X109213Y109823D01*
Y108838D01*
X109467Y107887D01*
X109960Y107034D01*
X110656Y106338D01*
X111509Y105845D01*
X112460Y105591D01*
X113445D01*
X114396Y105845D01*
X115249Y106338D01*
X115946Y107034D01*
X116438Y107887D01*
X116693Y108838D01*
Y109823D01*
X116438Y110774D01*
X115946Y111627D01*
X115249Y112324D01*
X114396Y112816D01*
X113445Y113071D01*
D02*
G37*
G36*
X103445D02*
X102460D01*
X101509Y112816D01*
X100656Y112324D01*
X99960Y111627D01*
X99467Y110774D01*
X99213Y109823D01*
Y108838D01*
X99467Y107887D01*
X99960Y107034D01*
X100656Y106338D01*
X101509Y105845D01*
X102460Y105591D01*
X103445D01*
X104396Y105845D01*
X105249Y106338D01*
X105946Y107034D01*
X106438Y107887D01*
X106693Y108838D01*
Y109823D01*
X106438Y110774D01*
X105946Y111627D01*
X105249Y112324D01*
X104396Y112816D01*
X103445Y113071D01*
D02*
G37*
G36*
X83445D02*
X82460D01*
X81509Y112816D01*
X80656Y112324D01*
X79960Y111627D01*
X79467Y110774D01*
X79213Y109823D01*
Y108838D01*
X79467Y107887D01*
X79960Y107034D01*
X80656Y106338D01*
X81509Y105845D01*
X82460Y105591D01*
X83445D01*
X84396Y105845D01*
X85249Y106338D01*
X85946Y107034D01*
X86438Y107887D01*
X86693Y108838D01*
Y109823D01*
X86438Y110774D01*
X85946Y111627D01*
X85249Y112324D01*
X84396Y112816D01*
X83445Y113071D01*
D02*
G37*
G36*
X73445D02*
X72460D01*
X71509Y112816D01*
X70656Y112324D01*
X69960Y111627D01*
X69468Y110774D01*
X69213Y109823D01*
Y108838D01*
X69468Y107887D01*
X69960Y107034D01*
X70656Y106338D01*
X71509Y105845D01*
X72460Y105591D01*
X73445D01*
X74396Y105845D01*
X75249Y106338D01*
X75946Y107034D01*
X76438Y107887D01*
X76693Y108838D01*
Y109823D01*
X76438Y110774D01*
X75946Y111627D01*
X75249Y112324D01*
X74396Y112816D01*
X73445Y113071D01*
D02*
G37*
G36*
X63445D02*
X62460D01*
X61509Y112816D01*
X60656Y112324D01*
X59960Y111627D01*
X59468Y110774D01*
X59213Y109823D01*
Y108838D01*
X59468Y107887D01*
X59960Y107034D01*
X60656Y106338D01*
X61509Y105845D01*
X62460Y105591D01*
X63445D01*
X64396Y105845D01*
X65249Y106338D01*
X65946Y107034D01*
X66438Y107887D01*
X66693Y108838D01*
Y109823D01*
X66438Y110774D01*
X65946Y111627D01*
X65249Y112324D01*
X64396Y112816D01*
X63445Y113071D01*
D02*
G37*
G36*
X43445D02*
X42460D01*
X41509Y112816D01*
X40656Y112324D01*
X39960Y111627D01*
X39467Y110774D01*
X39213Y109823D01*
Y108838D01*
X39467Y107887D01*
X39960Y107034D01*
X40656Y106338D01*
X41509Y105845D01*
X42460Y105591D01*
X43445D01*
X44396Y105845D01*
X45249Y106338D01*
X45946Y107034D01*
X46438Y107887D01*
X46693Y108838D01*
Y109823D01*
X46438Y110774D01*
X45946Y111627D01*
X45249Y112324D01*
X44396Y112816D01*
X43445Y113071D01*
D02*
G37*
G36*
X36693D02*
X29213D01*
Y105591D01*
X36693D01*
Y113071D01*
D02*
G37*
G36*
X213445Y103071D02*
X212460D01*
X211509Y102816D01*
X210656Y102324D01*
X209960Y101627D01*
X209468Y100774D01*
X209213Y99823D01*
Y98838D01*
X209468Y97887D01*
X209960Y97034D01*
X210656Y96338D01*
X211509Y95846D01*
X212460Y95591D01*
X213445D01*
X214396Y95846D01*
X215249Y96338D01*
X215946Y97034D01*
X216438Y97887D01*
X216693Y98838D01*
Y99823D01*
X216438Y100774D01*
X215946Y101627D01*
X215249Y102324D01*
X214396Y102816D01*
X213445Y103071D01*
D02*
G37*
G36*
X203445D02*
X202460D01*
X201509Y102816D01*
X200656Y102324D01*
X199960Y101627D01*
X199468Y100774D01*
X199213Y99823D01*
Y98838D01*
X199468Y97887D01*
X199960Y97034D01*
X200656Y96338D01*
X201509Y95846D01*
X202460Y95591D01*
X203445D01*
X204396Y95846D01*
X205249Y96338D01*
X205946Y97034D01*
X206438Y97887D01*
X206693Y98838D01*
Y99823D01*
X206438Y100774D01*
X205946Y101627D01*
X205249Y102324D01*
X204396Y102816D01*
X203445Y103071D01*
D02*
G37*
G36*
X193445D02*
X192460D01*
X191509Y102816D01*
X190656Y102324D01*
X189960Y101627D01*
X189468Y100774D01*
X189213Y99823D01*
Y98838D01*
X189468Y97887D01*
X189960Y97034D01*
X190656Y96338D01*
X191509Y95846D01*
X192460Y95591D01*
X193445D01*
X194396Y95846D01*
X195249Y96338D01*
X195946Y97034D01*
X196438Y97887D01*
X196693Y98838D01*
Y99823D01*
X196438Y100774D01*
X195946Y101627D01*
X195249Y102324D01*
X194396Y102816D01*
X193445Y103071D01*
D02*
G37*
G36*
X183445D02*
X182460D01*
X181509Y102816D01*
X180656Y102324D01*
X179960Y101627D01*
X179467Y100774D01*
X179213Y99823D01*
Y98838D01*
X179467Y97887D01*
X179960Y97034D01*
X180656Y96338D01*
X181509Y95846D01*
X182460Y95591D01*
X183445D01*
X184396Y95846D01*
X185249Y96338D01*
X185946Y97034D01*
X186438Y97887D01*
X186693Y98838D01*
Y99823D01*
X186438Y100774D01*
X185946Y101627D01*
X185249Y102324D01*
X184396Y102816D01*
X183445Y103071D01*
D02*
G37*
G36*
X173445D02*
X172460D01*
X171509Y102816D01*
X170656Y102324D01*
X169960Y101627D01*
X169467Y100774D01*
X169213Y99823D01*
Y98838D01*
X169467Y97887D01*
X169960Y97034D01*
X170656Y96338D01*
X171509Y95846D01*
X172460Y95591D01*
X173445D01*
X174396Y95846D01*
X175249Y96338D01*
X175946Y97034D01*
X176438Y97887D01*
X176693Y98838D01*
Y99823D01*
X176438Y100774D01*
X175946Y101627D01*
X175249Y102324D01*
X174396Y102816D01*
X173445Y103071D01*
D02*
G37*
G36*
X163445D02*
X162460D01*
X161509Y102816D01*
X160656Y102324D01*
X159960Y101627D01*
X159467Y100774D01*
X159213Y99823D01*
Y98838D01*
X159467Y97887D01*
X159960Y97034D01*
X160656Y96338D01*
X161509Y95846D01*
X162460Y95591D01*
X163445D01*
X164396Y95846D01*
X165249Y96338D01*
X165946Y97034D01*
X166438Y97887D01*
X166693Y98838D01*
Y99823D01*
X166438Y100774D01*
X165946Y101627D01*
X165249Y102324D01*
X164396Y102816D01*
X163445Y103071D01*
D02*
G37*
G36*
X113445D02*
X112460D01*
X111509Y102816D01*
X110656Y102324D01*
X109960Y101627D01*
X109467Y100774D01*
X109213Y99823D01*
Y98838D01*
X109467Y97887D01*
X109960Y97034D01*
X110656Y96338D01*
X111509Y95846D01*
X112460Y95591D01*
X113445D01*
X114396Y95846D01*
X115249Y96338D01*
X115946Y97034D01*
X116438Y97887D01*
X116693Y98838D01*
Y99823D01*
X116438Y100774D01*
X115946Y101627D01*
X115249Y102324D01*
X114396Y102816D01*
X113445Y103071D01*
D02*
G37*
G36*
X103445D02*
X102460D01*
X101509Y102816D01*
X100656Y102324D01*
X99960Y101627D01*
X99467Y100774D01*
X99213Y99823D01*
Y98838D01*
X99467Y97887D01*
X99960Y97034D01*
X100656Y96338D01*
X101509Y95846D01*
X102460Y95591D01*
X103445D01*
X104396Y95846D01*
X105249Y96338D01*
X105946Y97034D01*
X106438Y97887D01*
X106693Y98838D01*
Y99823D01*
X106438Y100774D01*
X105946Y101627D01*
X105249Y102324D01*
X104396Y102816D01*
X103445Y103071D01*
D02*
G37*
G36*
X93445D02*
X92460D01*
X91509Y102816D01*
X90656Y102324D01*
X89960Y101627D01*
X89468Y100774D01*
X89213Y99823D01*
Y98838D01*
X89468Y97887D01*
X89960Y97034D01*
X90656Y96338D01*
X91509Y95846D01*
X92460Y95591D01*
X93445D01*
X94396Y95846D01*
X95249Y96338D01*
X95946Y97034D01*
X96438Y97887D01*
X96693Y98838D01*
Y99823D01*
X96438Y100774D01*
X95946Y101627D01*
X95249Y102324D01*
X94396Y102816D01*
X93445Y103071D01*
D02*
G37*
G36*
X83445D02*
X82460D01*
X81509Y102816D01*
X80656Y102324D01*
X79960Y101627D01*
X79467Y100774D01*
X79213Y99823D01*
Y98838D01*
X79467Y97887D01*
X79960Y97034D01*
X80656Y96338D01*
X81509Y95846D01*
X82460Y95591D01*
X83445D01*
X84396Y95846D01*
X85249Y96338D01*
X85946Y97034D01*
X86438Y97887D01*
X86693Y98838D01*
Y99823D01*
X86438Y100774D01*
X85946Y101627D01*
X85249Y102324D01*
X84396Y102816D01*
X83445Y103071D01*
D02*
G37*
G36*
X63445D02*
X62460D01*
X61509Y102816D01*
X60656Y102324D01*
X59960Y101627D01*
X59468Y100774D01*
X59213Y99823D01*
Y98838D01*
X59468Y97887D01*
X59960Y97034D01*
X60656Y96338D01*
X61509Y95846D01*
X62460Y95591D01*
X63445D01*
X64396Y95846D01*
X65249Y96338D01*
X65946Y97034D01*
X66438Y97887D01*
X66693Y98838D01*
Y99823D01*
X66438Y100774D01*
X65946Y101627D01*
X65249Y102324D01*
X64396Y102816D01*
X63445Y103071D01*
D02*
G37*
G36*
X53445D02*
X52460D01*
X51509Y102816D01*
X50656Y102324D01*
X49960Y101627D01*
X49468Y100774D01*
X49213Y99823D01*
Y98838D01*
X49468Y97887D01*
X49488Y97852D01*
X47707Y96072D01*
X47403Y95616D01*
X47296Y95079D01*
Y72009D01*
X47032Y71745D01*
X46732Y71021D01*
Y70238D01*
X46971Y69661D01*
X46733Y69161D01*
X35080D01*
X34816Y69425D01*
X34092Y69724D01*
X33309D01*
X32586Y69425D01*
X32032Y68871D01*
X31732Y68147D01*
Y67364D01*
X32032Y66641D01*
X32586Y66087D01*
X33309Y65787D01*
X34092D01*
X34816Y66087D01*
X35080Y66351D01*
X65039D01*
X65140Y66371D01*
X65386Y65910D01*
X57227Y57751D01*
X38407D01*
X30460Y65697D01*
Y73898D01*
X32500D01*
Y79213D01*
X25610D01*
Y73898D01*
X27650D01*
Y65876D01*
X27281Y65630D01*
X26908D01*
X25049Y67489D01*
X24593Y67794D01*
X24055Y67901D01*
X23563D01*
Y68661D01*
X15814D01*
Y69221D01*
X18641Y72047D01*
X19014D01*
X19737Y72347D01*
X20291Y72901D01*
X20591Y73624D01*
Y74407D01*
X20291Y75131D01*
X19737Y75685D01*
X19014Y75984D01*
X18599D01*
X18392Y76484D01*
X19930Y78022D01*
X20235Y78478D01*
X20342Y79016D01*
Y89094D01*
X20606Y89357D01*
X20906Y90081D01*
Y90864D01*
X20606Y91588D01*
X20052Y92141D01*
X19329Y92441D01*
X18545D01*
X17822Y92141D01*
X17268Y91588D01*
X16969Y90864D01*
Y90081D01*
X17268Y89357D01*
X17532Y89094D01*
Y79598D01*
X14863Y76929D01*
X14490D01*
X13767Y76629D01*
X13213Y76076D01*
X12913Y75352D01*
Y74569D01*
X13213Y73846D01*
X13767Y73292D01*
X14490Y72992D01*
X14904D01*
X15112Y72492D01*
X13416Y70797D01*
X13111Y70341D01*
X13004Y69803D01*
Y47835D01*
Y36844D01*
X12799Y36710D01*
X12505Y36594D01*
X12052Y36781D01*
X11485D01*
X10960Y36564D01*
X10559Y36163D01*
X10341Y35638D01*
Y35070D01*
X10559Y34546D01*
X10960Y34144D01*
X11485Y33927D01*
X12052D01*
X12505Y34114D01*
X12799Y33999D01*
X13004Y33865D01*
Y32795D01*
X13111Y32258D01*
X13416Y31802D01*
X15869Y29349D01*
X15771Y28859D01*
X15617Y28795D01*
X15064Y28241D01*
X14764Y27518D01*
Y26734D01*
X15064Y26011D01*
X15617Y25457D01*
X16341Y25157D01*
X17124D01*
X17847Y25457D01*
X18401Y26011D01*
X18701Y26734D01*
Y27518D01*
X18592Y27780D01*
X18926Y28280D01*
X22597D01*
X22861Y28016D01*
X23585Y27716D01*
X24368D01*
X25091Y28016D01*
X25645Y28570D01*
X25945Y29294D01*
Y30077D01*
X25760Y30524D01*
X26075Y31024D01*
X32303D01*
Y36339D01*
X25413D01*
Y36262D01*
X24913Y36138D01*
X24737Y36314D01*
X24014Y36614D01*
X23231D01*
X22507Y36314D01*
X21953Y35761D01*
X21654Y35037D01*
Y34254D01*
X21953Y33531D01*
X22507Y32977D01*
X23231Y32677D01*
X24014D01*
X24737Y32977D01*
X24913Y33153D01*
X25413Y33029D01*
Y31685D01*
X24913Y31428D01*
X24368Y31653D01*
X23585D01*
X22861Y31354D01*
X22597Y31090D01*
X18102D01*
X15814Y33377D01*
Y46312D01*
X22715D01*
X22979Y46048D01*
X23703Y45748D01*
X24486D01*
X25210Y46048D01*
X25763Y46602D01*
X26063Y47325D01*
Y48108D01*
X25763Y48832D01*
X25210Y49385D01*
X24713Y49591D01*
X24812Y50091D01*
X28186D01*
X28724Y50198D01*
X29180Y50503D01*
X29514Y50141D01*
X27865Y48492D01*
X27560Y48036D01*
X27453Y47499D01*
Y42441D01*
X25413D01*
Y37126D01*
X32303D01*
Y42441D01*
X30263D01*
Y46917D01*
X33398Y50051D01*
X33898Y49844D01*
Y49648D01*
X34197Y48924D01*
X34751Y48371D01*
X35475Y48071D01*
X36258D01*
X36981Y48371D01*
X37535Y48924D01*
X37835Y49648D01*
Y50021D01*
X38889Y51075D01*
X57874D01*
X58412Y51182D01*
X58868Y51487D01*
X71544Y64163D01*
X71968Y63880D01*
X71811Y63502D01*
Y62719D01*
X72111Y61995D01*
X72664Y61441D01*
X73388Y61142D01*
X74171D01*
X74895Y61441D01*
X75448Y61995D01*
X75748Y62719D01*
Y63502D01*
X75448Y64225D01*
X74895Y64779D01*
X74171Y65079D01*
X73388D01*
X73010Y64922D01*
X72727Y65346D01*
X74834Y67453D01*
X174606D01*
X175144Y67560D01*
X175600Y67865D01*
X176790Y69055D01*
X177163D01*
X177887Y69355D01*
X178440Y69909D01*
X178740Y70632D01*
Y71415D01*
X178440Y72139D01*
X177887Y72692D01*
X177163Y72992D01*
X176380D01*
X175657Y72692D01*
X175103Y72139D01*
X174803Y71415D01*
Y71042D01*
X174024Y70263D01*
X157770D01*
X157563Y70763D01*
X157692Y70893D01*
X157992Y71616D01*
Y72399D01*
X157692Y73123D01*
X157139Y73677D01*
X156415Y73976D01*
X155632D01*
X154909Y73677D01*
X154763Y73531D01*
X124571D01*
X124364Y74031D01*
X126899Y76566D01*
X127204Y77021D01*
X127311Y77559D01*
Y81378D01*
X127204Y81916D01*
X126899Y82371D01*
X124891Y84379D01*
X124435Y84684D01*
X123898Y84791D01*
X66802D01*
X60630Y90963D01*
Y91336D01*
X60330Y92060D01*
X59777Y92614D01*
X59053Y92913D01*
X58270D01*
X57546Y92614D01*
X56993Y92060D01*
X56693Y91336D01*
Y90553D01*
X56993Y89830D01*
X57546Y89276D01*
X58270Y88976D01*
X58643D01*
X65227Y82392D01*
X65683Y82088D01*
X66220Y81981D01*
X123316D01*
X124501Y80796D01*
Y78141D01*
X122489Y76129D01*
X72008D01*
X71470Y76022D01*
X71014Y75718D01*
X64457Y69161D01*
X50669D01*
X50430Y69661D01*
X50669Y70238D01*
Y71021D01*
X50370Y71745D01*
X50106Y72009D01*
Y94497D01*
X51474Y95865D01*
X51509Y95846D01*
X52460Y95591D01*
X53445D01*
X54396Y95846D01*
X55249Y96338D01*
X55946Y97034D01*
X56438Y97887D01*
X56693Y98838D01*
Y99823D01*
X56438Y100774D01*
X55946Y101627D01*
X55249Y102324D01*
X54396Y102816D01*
X53445Y103071D01*
D02*
G37*
G36*
X43445D02*
X42460D01*
X41509Y102816D01*
X40656Y102324D01*
X39960Y101627D01*
X39467Y100774D01*
X39213Y99823D01*
Y98838D01*
X39467Y97887D01*
X39960Y97034D01*
X40656Y96338D01*
X41509Y95846D01*
X42460Y95591D01*
X43445D01*
X44396Y95846D01*
X45249Y96338D01*
X45946Y97034D01*
X46438Y97887D01*
X46693Y98838D01*
Y99823D01*
X46438Y100774D01*
X45946Y101627D01*
X45249Y102324D01*
X44396Y102816D01*
X43445Y103071D01*
D02*
G37*
G36*
X33445D02*
X32460D01*
X31509Y102816D01*
X30656Y102324D01*
X29960Y101627D01*
X29467Y100774D01*
X29213Y99823D01*
Y98838D01*
X29467Y97887D01*
X29960Y97034D01*
X30656Y96338D01*
X31509Y95846D01*
X32460Y95591D01*
X33445D01*
X34396Y95846D01*
X35249Y96338D01*
X35946Y97034D01*
X36438Y97887D01*
X36693Y98838D01*
Y99823D01*
X36438Y100774D01*
X35946Y101627D01*
X35249Y102324D01*
X34396Y102816D01*
X33445Y103071D01*
D02*
G37*
G36*
X32500Y85315D02*
X25610D01*
Y84495D01*
X25131Y84267D01*
X24407Y84567D01*
X23624D01*
X22901Y84267D01*
X22347Y83714D01*
X22047Y82990D01*
Y82207D01*
X22347Y81483D01*
X22901Y80930D01*
X23624Y80630D01*
X24407D01*
X25131Y80930D01*
X25610Y80702D01*
Y80000D01*
X32500D01*
Y85315D01*
D02*
G37*
G36*
X12052Y84065D02*
X11485D01*
X10960Y83848D01*
X10559Y83446D01*
X10341Y82922D01*
Y82354D01*
X10559Y81829D01*
X10960Y81428D01*
X11485Y81211D01*
X12052D01*
X12577Y81428D01*
X12978Y81829D01*
X13196Y82354D01*
Y82922D01*
X12978Y83446D01*
X12577Y83848D01*
X12052Y84065D01*
D02*
G37*
G36*
X245808Y81890D02*
X244979D01*
X244178Y81675D01*
X243460Y81261D01*
X242873Y80674D01*
X242459Y79956D01*
X242244Y79155D01*
Y78325D01*
X242459Y77525D01*
X242873Y76806D01*
X243460Y76220D01*
X244178Y75805D01*
X244979Y75590D01*
X245808D01*
X246609Y75805D01*
X247328Y76220D01*
X247914Y76806D01*
X248329Y77525D01*
X248543Y78325D01*
Y79155D01*
X248329Y79956D01*
X247914Y80674D01*
X247328Y81261D01*
X246609Y81675D01*
X245808Y81890D01*
D02*
G37*
G36*
X136221Y80158D02*
X130315D01*
Y74252D01*
X136221D01*
Y80158D01*
D02*
G37*
G36*
X197460Y72969D02*
X196320D01*
X195218Y72673D01*
X194231Y72103D01*
X193424Y71297D01*
X192854Y70309D01*
X192559Y69208D01*
Y68068D01*
X192854Y66966D01*
X193424Y65979D01*
X194231Y65172D01*
X195218Y64602D01*
X196320Y64307D01*
X197460D01*
X198561Y64602D01*
X199549Y65172D01*
X200355Y65979D01*
X200925Y66966D01*
X201220Y68068D01*
Y69208D01*
X200925Y70309D01*
X200355Y71297D01*
X199549Y72103D01*
X198561Y72673D01*
X197460Y72969D01*
D02*
G37*
G36*
X126336Y65472D02*
X125553D01*
X124830Y65173D01*
X124276Y64619D01*
X123976Y63895D01*
Y63112D01*
X124276Y62389D01*
X124830Y61835D01*
X125553Y61535D01*
X126336D01*
X127060Y61835D01*
X127614Y62389D01*
X127913Y63112D01*
Y63895D01*
X127614Y64619D01*
X127060Y65173D01*
X126336Y65472D01*
D02*
G37*
G36*
X210684Y67492D02*
X209544D01*
X208443Y67197D01*
X207455Y66627D01*
X206649Y65820D01*
X206079Y64833D01*
X205784Y63732D01*
Y62591D01*
X206079Y61490D01*
X206649Y60502D01*
X207455Y59696D01*
X208443Y59126D01*
X209544Y58831D01*
X210684D01*
X211786Y59126D01*
X212773Y59696D01*
X213580Y60502D01*
X214150Y61490D01*
X214445Y62591D01*
Y63732D01*
X214150Y64833D01*
X213580Y65820D01*
X212773Y66627D01*
X211786Y67197D01*
X210684Y67492D01*
D02*
G37*
G36*
X184236D02*
X183095D01*
X181994Y67197D01*
X181006Y66627D01*
X180200Y65820D01*
X179630Y64833D01*
X179335Y63732D01*
Y62591D01*
X179630Y61490D01*
X180200Y60502D01*
X181006Y59696D01*
X181994Y59126D01*
X183095Y58831D01*
X184236D01*
X185337Y59126D01*
X186325Y59696D01*
X187131Y60502D01*
X187701Y61490D01*
X187996Y62591D01*
Y63732D01*
X187701Y64833D01*
X187131Y65820D01*
X186325Y66627D01*
X185337Y67197D01*
X184236Y67492D01*
D02*
G37*
G36*
X86655Y60059D02*
X85851D01*
X85075Y59851D01*
X84379Y59449D01*
X83811Y58881D01*
X83410Y58186D01*
X83202Y57410D01*
Y56606D01*
X83410Y55830D01*
X83811Y55134D01*
X84379Y54566D01*
X85075Y54165D01*
X85851Y53957D01*
X86655D01*
X87431Y54165D01*
X88126Y54566D01*
X88694Y55134D01*
X89096Y55830D01*
X89304Y56606D01*
Y57410D01*
X89096Y58186D01*
X88694Y58881D01*
X88126Y59449D01*
X87431Y59851D01*
X86655Y60059D01*
D02*
G37*
G36*
X150116Y61575D02*
X149333D01*
X148609Y61275D01*
X148056Y60721D01*
X147756Y59998D01*
Y59215D01*
X147918Y58823D01*
Y57835D01*
X143799D01*
Y51339D01*
X151476D01*
Y55888D01*
X151511Y56063D01*
Y56574D01*
X151531Y56673D01*
Y58823D01*
X151693Y59215D01*
Y59998D01*
X151393Y60721D01*
X150839Y61275D01*
X150116Y61575D01*
D02*
G37*
G36*
X137067Y57815D02*
X129390D01*
Y51448D01*
X129044Y51095D01*
X128996Y51063D01*
X128231D01*
X127507Y50763D01*
X126953Y50210D01*
X126654Y49486D01*
Y48703D01*
X126953Y47979D01*
X127507Y47426D01*
X128231Y47126D01*
X129014D01*
X129587Y47363D01*
X131248D01*
X131940Y47501D01*
X132526Y47892D01*
X133679Y49046D01*
X134070Y49632D01*
X134208Y50323D01*
Y51319D01*
X137067D01*
Y57815D01*
D02*
G37*
G36*
X42557Y49724D02*
X41774D01*
X41050Y49425D01*
X40497Y48871D01*
X40197Y48147D01*
Y47364D01*
X40497Y46641D01*
X41050Y46087D01*
X41774Y45787D01*
X42557D01*
X43280Y46087D01*
X43834Y46641D01*
X44134Y47364D01*
Y48147D01*
X43834Y48871D01*
X43280Y49425D01*
X42557Y49724D01*
D02*
G37*
G36*
X86655Y45917D02*
X85851D01*
X85075Y45709D01*
X84379Y45308D01*
X83811Y44740D01*
X83410Y44044D01*
X83202Y43268D01*
Y42464D01*
X83410Y41688D01*
X83811Y40993D01*
X84379Y40425D01*
X85075Y40023D01*
X85851Y39815D01*
X86655D01*
X87431Y40023D01*
X88126Y40425D01*
X88694Y40993D01*
X89096Y41688D01*
X89304Y42464D01*
Y43268D01*
X89096Y44044D01*
X88694Y44740D01*
X88126Y45308D01*
X87431Y45709D01*
X86655Y45917D01*
D02*
G37*
G36*
X151476Y44252D02*
X143799D01*
Y38424D01*
X143337Y38233D01*
X140492Y41078D01*
X140330Y41469D01*
X139777Y42023D01*
X139053Y42323D01*
X138270D01*
X138060Y42236D01*
X137067D01*
Y44232D01*
X129390D01*
Y37736D01*
X137067D01*
Y38623D01*
X137697D01*
X137938Y38523D01*
X145613Y30849D01*
X146198Y30457D01*
X146890Y30320D01*
X153858D01*
X159139Y25039D01*
Y12854D01*
X157146D01*
Y5256D01*
X164744D01*
Y12854D01*
X162751D01*
Y25787D01*
X162614Y26479D01*
X162222Y27065D01*
X155884Y33403D01*
X155298Y33795D01*
X154606Y33932D01*
X147638D01*
X144276Y37294D01*
X144468Y37756D01*
X151476D01*
Y39894D01*
X152046D01*
X152310Y39630D01*
X153034Y39331D01*
X153817D01*
X154540Y39630D01*
X155094Y40184D01*
X155394Y40908D01*
Y41691D01*
X155094Y42414D01*
X154540Y42968D01*
X153817Y43268D01*
X153034D01*
X152310Y42968D01*
X152046Y42704D01*
X151476D01*
Y44252D01*
D02*
G37*
G36*
X210684Y41043D02*
X209544D01*
X208443Y40748D01*
X207455Y40178D01*
X206649Y39372D01*
X206079Y38384D01*
X205784Y37283D01*
Y36142D01*
X205998Y35343D01*
X203697Y33043D01*
X200848D01*
X200355Y33895D01*
X199549Y34702D01*
X198561Y35272D01*
X197460Y35567D01*
X196320D01*
X195218Y35272D01*
X194231Y34702D01*
X193424Y33895D01*
X192932Y33043D01*
X189890D01*
X187996Y34936D01*
Y41043D01*
X179335D01*
Y32382D01*
X185442D01*
X187864Y29959D01*
X188451Y29567D01*
X189142Y29430D01*
X192932D01*
X193424Y28577D01*
X194231Y27771D01*
X195218Y27201D01*
X196320Y26906D01*
X197460D01*
X198561Y27201D01*
X199549Y27771D01*
X200355Y28577D01*
X200848Y29430D01*
X204445D01*
X205136Y29567D01*
X205722Y29959D01*
X208441Y32678D01*
X208443Y32677D01*
X209544Y32382D01*
X210684D01*
X211786Y32677D01*
X212773Y33247D01*
X213580Y34054D01*
X214150Y35041D01*
X214445Y36142D01*
Y37283D01*
X214150Y38384D01*
X213580Y39372D01*
X212773Y40178D01*
X211786Y40748D01*
X210684Y41043D01*
D02*
G37*
G36*
X133423Y32874D02*
X132640D01*
X131916Y32574D01*
X131363Y32021D01*
X131063Y31297D01*
Y30514D01*
X131363Y29790D01*
X131916Y29237D01*
X132640Y28937D01*
X133423D01*
X134147Y29237D01*
X134700Y29790D01*
X135000Y30514D01*
Y31297D01*
X134700Y32021D01*
X134147Y32574D01*
X133423Y32874D01*
D02*
G37*
G36*
X248543Y34646D02*
X242244D01*
Y28346D01*
X248543D01*
Y34646D01*
D02*
G37*
G36*
X56848Y30984D02*
X56065D01*
X55342Y30685D01*
X54788Y30131D01*
X54488Y29407D01*
Y28624D01*
X54788Y27901D01*
X55342Y27347D01*
X56065Y27047D01*
X56848D01*
X57572Y27347D01*
X58126Y27901D01*
X58425Y28624D01*
Y29407D01*
X58126Y30131D01*
X57572Y30685D01*
X56848Y30984D01*
D02*
G37*
G36*
X141063Y27657D02*
X134567D01*
Y24948D01*
X105040D01*
X104777Y25212D01*
X104053Y25512D01*
X103270D01*
X102546Y25212D01*
X101993Y24658D01*
X101693Y23935D01*
Y23152D01*
X101993Y22428D01*
X102546Y21874D01*
X103270Y21575D01*
X104053D01*
X104777Y21874D01*
X105040Y22138D01*
X134567D01*
Y19980D01*
X136233D01*
Y19095D01*
X135969Y18832D01*
X135669Y18108D01*
Y17325D01*
X135969Y16601D01*
X136523Y16048D01*
X137246Y15748D01*
X138029D01*
X138753Y16048D01*
X139307Y16601D01*
X139606Y17325D01*
Y18108D01*
X139307Y18832D01*
X139043Y19095D01*
Y19980D01*
X141063D01*
Y27657D01*
D02*
G37*
G36*
X154646D02*
X148150D01*
Y19980D01*
X149540D01*
Y12612D01*
X149478Y12595D01*
X148612Y12095D01*
X147905Y11388D01*
X147405Y10522D01*
X147146Y9555D01*
Y8555D01*
X147405Y7589D01*
X147905Y6722D01*
X148612Y6015D01*
X149478Y5515D01*
X150445Y5256D01*
X151445D01*
X152411Y5515D01*
X153278Y6015D01*
X153985Y6722D01*
X154485Y7589D01*
X154744Y8555D01*
Y9555D01*
X154485Y10522D01*
X153985Y11388D01*
X153278Y12095D01*
X152411Y12595D01*
X152350Y12612D01*
Y19980D01*
X154646D01*
Y27657D01*
D02*
G37*
G36*
X131445Y12854D02*
X130445D01*
X129478Y12595D01*
X128612Y12095D01*
X127905Y11388D01*
X127405Y10522D01*
X127146Y9555D01*
Y8555D01*
X127405Y7589D01*
X127905Y6722D01*
X128612Y6015D01*
X129478Y5515D01*
X130445Y5256D01*
X131445D01*
X132411Y5515D01*
X133278Y6015D01*
X133985Y6722D01*
X134485Y7589D01*
X134744Y8555D01*
Y9555D01*
X134485Y10522D01*
X133985Y11388D01*
X133278Y12095D01*
X132411Y12595D01*
X131445Y12854D01*
D02*
G37*
%LPD*%
G36*
X24921Y63643D02*
Y63270D01*
X25221Y62546D01*
X25775Y61993D01*
X26498Y61693D01*
X27281D01*
X28005Y61993D01*
X28559Y62546D01*
X28667Y62809D01*
X29257Y62926D01*
X35778Y56405D01*
X32783Y53411D01*
X32283Y53618D01*
Y53935D01*
X31984Y54658D01*
X31430Y55212D01*
X30707Y55512D01*
X29923D01*
X29200Y55212D01*
X28732Y54744D01*
X28308Y55027D01*
X28346Y55120D01*
Y55903D01*
X28047Y56627D01*
X27493Y57181D01*
X26869Y57439D01*
X26372Y57771D01*
X25681Y57909D01*
X23563D01*
Y58661D01*
X15814D01*
Y64331D01*
X23563D01*
Y64348D01*
X24025Y64539D01*
X24921Y63643D01*
D02*
G37*
D16*
X133228Y54567D02*
D03*
Y40984D02*
D03*
X147638Y41004D02*
D03*
Y54587D02*
D03*
D17*
X137815Y23819D02*
D03*
X151398D02*
D03*
D18*
X29055Y82657D02*
D03*
Y76555D02*
D03*
X28858Y33681D02*
D03*
Y39783D02*
D03*
D19*
X19626Y51496D02*
D03*
Y56496D02*
D03*
Y61496D02*
D03*
Y66496D02*
D03*
D34*
X72111Y57008D02*
D03*
D35*
X86253D02*
D03*
Y42866D02*
D03*
D36*
X11768Y82638D02*
D03*
Y35354D02*
D03*
D39*
X27894Y34646D02*
X28858Y33681D01*
X23622Y34646D02*
X27894D01*
X66220Y83386D02*
X123898D01*
X58661Y90945D02*
X66220Y83386D01*
X48701Y70630D02*
Y95079D01*
X52953Y99331D01*
X37705Y56346D02*
X57809D01*
X29055Y65115D02*
X37705Y56465D01*
X57809Y56346D02*
X73589Y72126D01*
X137638Y17717D02*
Y23642D01*
X19626Y66496D02*
X24055D01*
X26890Y63661D01*
X125906Y77559D02*
Y81378D01*
X72008Y74724D02*
X123071D01*
X123898Y83386D02*
X125906Y81378D01*
X123071Y74724D02*
X125906Y77559D01*
X65039Y67756D02*
X72008Y74724D01*
X28186Y51496D02*
X30234Y53543D01*
X19626Y51496D02*
X28186D01*
X30234Y53543D02*
X30315D01*
X28858Y47499D02*
X37705Y56346D01*
X28858Y39783D02*
Y47499D01*
X103661Y23543D02*
X137539D01*
X137638Y23642D01*
X137815Y23819D01*
X14410Y47835D02*
Y69803D01*
X18622Y74016D01*
X17520Y29685D02*
X23976D01*
X14410Y32795D02*
Y47835D01*
Y32795D02*
X17520Y29685D01*
X14410Y47835D02*
X14528Y47717D01*
X24094D01*
X38307Y52480D02*
X57874D01*
X35866Y50039D02*
X38307Y52480D01*
X57874D02*
X74252Y68858D01*
X174606D01*
X33701Y67756D02*
X65039D01*
X174606Y68858D02*
X176772Y71024D01*
X37705Y56346D02*
Y56465D01*
X155905Y72126D02*
X156024Y72008D01*
X73589Y72126D02*
X155905D01*
X147638Y41004D02*
X147933Y41299D01*
X153425D01*
X14882Y74961D02*
X18937Y79016D01*
Y90472D01*
X29055Y65115D02*
Y76555D01*
X122953Y99331D02*
X140472Y81811D01*
X154252D02*
X159961Y76102D01*
X140472Y81811D02*
X154252D01*
X143898Y85039D02*
X223346D01*
X133706Y95231D02*
X143898Y85039D01*
X223346D02*
X245394Y62992D01*
X159961Y76102D02*
X216535D01*
X161063Y80118D02*
X220394D01*
X161024Y80158D02*
X161063Y80118D01*
X220394D02*
X245394Y55118D01*
X133706Y95231D02*
Y98577D01*
X137677Y95945D02*
X143583Y90039D01*
X226220D01*
X132953Y99331D02*
X133706Y98577D01*
X137677Y95945D02*
Y104606D01*
X216535Y76102D02*
X245394Y47244D01*
X132953Y109331D02*
X137677Y104606D01*
X226220Y90039D02*
X245394Y70866D01*
X150945Y8976D02*
Y23366D01*
X151398Y23819D01*
X152216Y93386D02*
X238622D01*
X147677Y97925D02*
X152216Y93386D01*
X147677Y97925D02*
Y104606D01*
X142953Y109331D02*
X147677Y104606D01*
X238622Y93386D02*
X245394Y86614D01*
X28996Y82598D02*
X29055Y82657D01*
X24016Y82598D02*
X28996D01*
D40*
X133228Y40984D02*
X133783Y40430D01*
X138586D01*
X138661Y40354D01*
X132402Y53740D02*
X133228Y54567D01*
X131248Y49170D02*
X132402Y50323D01*
Y53740D01*
X128697Y49170D02*
X131248D01*
X128622Y49095D02*
X128697Y49170D01*
X138661Y40354D02*
X146890Y32126D01*
X154606D01*
X160945Y25787D01*
Y8976D02*
Y25787D01*
X20331Y56496D02*
X20724Y56102D01*
X25681D01*
X20331Y61496D02*
X20724Y61102D01*
X24724D01*
X26378Y59449D01*
X26271Y55512D02*
X26378D01*
X25681Y56102D02*
X26271Y55512D01*
X149705Y56063D02*
Y56653D01*
X149724Y56673D01*
Y59606D01*
X147638Y54587D02*
X148228D01*
X149705Y56063D01*
X189142Y31236D02*
X196890D01*
X183665Y36713D02*
X189142Y31236D01*
X204445D02*
X209922Y36713D01*
X210114D01*
X196890Y31236D02*
X204445D01*
D41*
X160945Y9055D02*
D03*
D42*
X150945D02*
D03*
X140945D02*
D03*
X130945D02*
D03*
D43*
X222953Y99331D02*
D03*
X212953D02*
D03*
X202953D02*
D03*
X222953Y109331D02*
D03*
X212953D02*
D03*
X202953D02*
D03*
X172953Y99331D02*
D03*
Y109331D02*
D03*
X152953Y99331D02*
D03*
Y109331D02*
D03*
X142953Y99331D02*
D03*
Y109331D02*
D03*
X132953Y99331D02*
D03*
Y109331D02*
D03*
X122953Y99331D02*
D03*
Y109331D02*
D03*
X102953Y99331D02*
D03*
Y109331D02*
D03*
X82953Y99331D02*
D03*
Y109331D02*
D03*
X62953Y99331D02*
D03*
Y109331D02*
D03*
X32953Y99331D02*
D03*
X42953Y109331D02*
D03*
Y99331D02*
D03*
X52953Y109331D02*
D03*
Y99331D02*
D03*
X72953Y109331D02*
D03*
Y99331D02*
D03*
X92953Y109331D02*
D03*
Y99331D02*
D03*
X112953Y109331D02*
D03*
Y99331D02*
D03*
X162953Y109331D02*
D03*
Y99331D02*
D03*
X182953Y109331D02*
D03*
Y99331D02*
D03*
X192953Y109331D02*
D03*
Y99331D02*
D03*
D44*
X32953Y109331D02*
D03*
D45*
X143110Y77205D02*
D03*
D46*
X133268D02*
D03*
D47*
X245394Y31496D02*
D03*
D48*
Y39370D02*
D03*
Y47244D02*
D03*
Y55118D02*
D03*
Y62992D02*
D03*
Y70866D02*
D03*
Y78740D02*
D03*
Y86614D02*
D03*
D49*
X183665Y36713D02*
D03*
D50*
X196890Y31236D02*
D03*
X210114Y36713D02*
D03*
Y63161D02*
D03*
X196890Y68638D02*
D03*
X183665Y63161D02*
D03*
D51*
X242126Y104331D02*
D03*
X13780D02*
D03*
X242126Y13780D02*
D03*
X13780D02*
D03*
D52*
X23622Y34646D02*
D03*
X58661Y90945D02*
D03*
X48701Y70630D02*
D03*
X128622Y49095D02*
D03*
X111417Y47205D02*
D03*
X86142Y22500D02*
D03*
X123268Y17874D02*
D03*
X137638Y17717D02*
D03*
X103661Y23543D02*
D03*
X47638Y43701D02*
D03*
X34646Y71260D02*
D03*
X5118Y41732D02*
D03*
X9055Y75590D02*
D03*
X7220Y27953D02*
D03*
X39764Y23228D02*
D03*
X56299Y12205D02*
D03*
X163386Y32283D02*
D03*
X167717Y65354D02*
D03*
X23622Y74410D02*
D03*
X26378Y59449D02*
D03*
Y55512D02*
D03*
X30315Y53543D02*
D03*
X42165Y47756D02*
D03*
X73779Y63110D02*
D03*
X125945Y63504D02*
D03*
X133031Y30906D02*
D03*
X56457Y29016D02*
D03*
X18622Y74016D02*
D03*
X24094Y47717D02*
D03*
X35866Y50039D02*
D03*
X33701Y67756D02*
D03*
X176772Y71024D02*
D03*
X156024Y72008D02*
D03*
X149724Y59606D02*
D03*
X14882Y74961D02*
D03*
X18937Y90472D02*
D03*
X26890Y63661D02*
D03*
X138661Y40354D02*
D03*
X153425Y41299D02*
D03*
X161024Y80158D02*
D03*
X16732Y27126D02*
D03*
X23976Y29685D02*
D03*
X24016Y82598D02*
D03*
M02*
