G04*
G04 #@! TF.GenerationSoftware,Altium Limited,Altium Designer,22.3.1 (43)*
G04*
G04 Layer_Color=32896*
%FSLAX25Y25*%
%MOIN*%
G70*
G04*
G04 #@! TF.SameCoordinates,CFB6BFBE-1D4E-4C59-BBC9-44663F7F7C7A*
G04*
G04*
G04 #@! TF.FilePolarity,Positive*
G04*
G01*
G75*
%ADD10C,0.00787*%
%ADD11C,0.00787*%
%ADD13C,0.00591*%
%ADD14C,0.00984*%
%ADD15C,0.01000*%
%ADD77C,0.01575*%
%ADD78C,0.00600*%
D10*
X166890Y3032D02*
X197047D01*
X166890Y9252D02*
X197047D01*
Y3032D02*
Y9252D01*
X166890Y3032D02*
Y9252D01*
Y3071D02*
X197008D01*
X166890Y25709D02*
X197008D01*
Y3071D02*
Y25709D01*
X166890Y3071D02*
Y25709D01*
X53976Y57008D02*
X57913D01*
X53976Y51496D02*
X57913D01*
X215341Y19524D02*
X218675D01*
X215341Y12208D02*
X218675D01*
X26476Y94035D02*
X229429D01*
Y114626D01*
X26476D02*
X229429D01*
X26476Y94035D02*
Y114626D01*
X84488Y64724D02*
X97087D01*
Y84016D01*
X84488D02*
X97087D01*
X84488Y64724D02*
Y84016D01*
X77008Y64114D02*
X83110D01*
X81299Y34843D02*
X88386D01*
X81299Y15157D02*
X88386D01*
Y34843D01*
X81299Y15157D02*
Y34843D01*
X223622Y77559D02*
Y83071D01*
X138209Y43268D02*
Y44646D01*
Y43268D02*
X141358D01*
X138209Y50551D02*
Y51929D01*
X141358D01*
X189370Y3622D02*
Y25669D01*
X174252Y3150D02*
Y25669D01*
X181772Y3071D02*
Y25630D01*
X55394Y25492D02*
Y26398D01*
X48307Y25492D02*
Y26398D01*
X50669Y36378D02*
X53031D01*
X51850Y35197D02*
Y37559D01*
X66059Y21522D02*
Y24856D01*
X58744Y21522D02*
Y24856D01*
X7477Y88051D02*
X14194D01*
X7477Y77224D02*
Y88051D01*
Y77224D02*
X14194D01*
X100519Y47665D02*
Y60681D01*
X109796Y47665D02*
Y60681D01*
X26575Y33307D02*
Y37638D01*
X33661Y33307D02*
Y37638D01*
X7477Y40768D02*
X14194D01*
X7477Y29941D02*
Y40768D01*
Y29941D02*
X14194D01*
X12821Y55437D02*
X16155D01*
X12821Y62752D02*
X16155D01*
X26575Y80630D02*
Y84961D01*
X33661Y80630D02*
Y84961D01*
X36814Y79593D02*
Y82927D01*
X44130Y79593D02*
Y82927D01*
X65026Y47516D02*
X68360D01*
X65026Y40200D02*
X68360D01*
X36814Y33766D02*
Y37100D01*
X44130Y33766D02*
Y37100D01*
D11*
X54055Y61555D02*
D03*
X65512Y61594D02*
D03*
X126713Y85354D02*
D03*
Y70906D02*
D03*
X114469Y56575D02*
D03*
X159685Y69744D02*
D03*
X124469Y31535D02*
D03*
X137146Y23425D02*
D03*
X104508Y17874D02*
D03*
D13*
X173818Y36679D02*
Y35367D01*
Y36023D01*
X170538D01*
X169882Y35367D01*
Y34711D01*
X170538Y34055D01*
X173818Y37991D02*
X169882D01*
Y40615D01*
X173162Y44550D02*
X173818Y43894D01*
Y42582D01*
X173162Y41927D01*
X170538D01*
X169882Y42582D01*
Y43894D01*
X170538Y44550D01*
X173818Y48486D02*
Y47174D01*
Y47830D01*
X170538D01*
X169882Y47174D01*
Y46518D01*
X170538Y45862D01*
X173818Y49798D02*
X169882D01*
Y52422D01*
X173162Y56358D02*
X173818Y55702D01*
Y54390D01*
X173162Y53734D01*
X170538D01*
X169882Y54390D01*
Y55702D01*
X170538Y56358D01*
X173818Y60293D02*
Y58981D01*
Y59637D01*
X170538D01*
X169882Y58981D01*
Y58325D01*
X170538Y57670D01*
X173818Y61605D02*
X169882D01*
Y64229D01*
X173162Y68165D02*
X173818Y67509D01*
Y66197D01*
X173162Y65541D01*
X170538D01*
X169882Y66197D01*
Y67509D01*
X170538Y68165D01*
X173818Y72101D02*
Y70789D01*
Y71445D01*
X170538D01*
X169882Y70789D01*
Y70133D01*
X170538Y69477D01*
X173818Y73413D02*
X169882D01*
Y76036D01*
X173162Y79972D02*
X173818Y79316D01*
Y78004D01*
X173162Y77348D01*
X170538D01*
X169882Y78004D01*
Y79316D01*
X170538Y79972D01*
D14*
X75886Y14153D02*
X75148Y14580D01*
Y13727D01*
X75886Y14153D01*
X145098Y53701D02*
X144360Y54127D01*
Y53275D01*
X145098Y53701D01*
X20469Y75453D02*
X19731Y75879D01*
Y75027D01*
X20469Y75453D01*
Y28169D02*
X19731Y28596D01*
Y27743D01*
X20469Y28169D01*
D15*
X236039Y29740D02*
X239975D01*
Y31708D01*
X239319Y32364D01*
X238007D01*
X237351Y31708D01*
Y29740D01*
Y31052D02*
X236039Y32364D01*
Y33676D02*
X239975D01*
Y35644D01*
X239319Y36300D01*
X238007D01*
X237351Y35644D01*
Y33676D01*
X236039Y37612D02*
Y38923D01*
Y38268D01*
X238663D01*
Y37612D01*
X236039Y44827D02*
X239975D01*
Y46795D01*
X239319Y47451D01*
X238007D01*
X237351Y46795D01*
Y44827D01*
Y46139D02*
X236039Y47451D01*
Y49419D02*
Y50731D01*
X236695Y51387D01*
X238007D01*
X238663Y50731D01*
Y49419D01*
X238007Y48763D01*
X236695D01*
X236039Y49419D01*
Y53355D02*
Y54667D01*
X236695Y55322D01*
X238007D01*
X238663Y54667D01*
Y53355D01*
X238007Y52699D01*
X236695D01*
X236039Y53355D01*
Y56634D02*
X238663D01*
Y57290D01*
X238007Y57946D01*
X236039D01*
X238007D01*
X238663Y58602D01*
X238007Y59258D01*
X236039D01*
Y64506D02*
X239975D01*
X238663Y65818D01*
X239975Y67130D01*
X236039D01*
Y69098D02*
Y70410D01*
X236695Y71065D01*
X238007D01*
X238663Y70410D01*
Y69098D01*
X238007Y68442D01*
X236695D01*
X236039Y69098D01*
Y72377D02*
X238663D01*
Y74345D01*
X238007Y75001D01*
X236039D01*
Y76313D02*
Y77625D01*
Y76969D01*
X238663D01*
Y76313D01*
X239319Y80249D02*
X238663D01*
Y79593D01*
Y80905D01*
Y80249D01*
X236695D01*
X236039Y80905D01*
Y83529D02*
Y84841D01*
X236695Y85496D01*
X238007D01*
X238663Y84841D01*
Y83529D01*
X238007Y82873D01*
X236695D01*
X236039Y83529D01*
X238663Y86808D02*
X236039D01*
X237351D01*
X238007Y87464D01*
X238663Y88120D01*
Y88776D01*
X195251Y10921D02*
Y12233D01*
Y11577D01*
X191315D01*
Y10921D01*
Y12233D01*
X195251Y16169D02*
Y14857D01*
X194595Y14201D01*
X191971D01*
X191315Y14857D01*
Y16169D01*
X191971Y16825D01*
X194595D01*
X195251Y16169D01*
X191315Y18137D02*
Y19449D01*
Y18793D01*
X195251D01*
X194595Y18137D01*
Y21417D02*
X195251Y22072D01*
Y23384D01*
X194595Y24040D01*
X193939D01*
X193283Y23384D01*
X192627Y24040D01*
X191971D01*
X191315Y23384D01*
Y22072D01*
X191971Y21417D01*
X192627D01*
X193283Y22072D01*
X193939Y21417D01*
X194595D01*
X193283Y22072D02*
Y23384D01*
X183638Y11000D02*
X186262D01*
X187574Y12312D01*
X186262Y13624D01*
X183638D01*
X185606D01*
Y11000D01*
X187574Y14936D02*
Y16248D01*
Y15592D01*
X183638D01*
Y14936D01*
Y16248D01*
Y18215D02*
X187574D01*
X183638Y20839D01*
X187574D01*
X179319Y13663D02*
X179975Y13007D01*
Y11695D01*
X179319Y11039D01*
X176695D01*
X176039Y11695D01*
Y13007D01*
X176695Y13663D01*
X178007D01*
Y12351D01*
X176039Y14975D02*
X179975D01*
X176039Y17599D01*
X179975D01*
Y18911D02*
X176039D01*
Y20879D01*
X176695Y21535D01*
X179319D01*
X179975Y20879D01*
Y18911D01*
X168520Y5882D02*
Y7194D01*
Y6538D01*
X172455D01*
X171800Y5882D01*
X186918Y4898D02*
X187574Y5554D01*
Y6865D01*
X186918Y7521D01*
X186262D01*
X185606Y6865D01*
Y6210D01*
Y6865D01*
X184950Y7521D01*
X184294D01*
X183638Y6865D01*
Y5554D01*
X184294Y4898D01*
X176039Y7521D02*
Y4898D01*
X178663Y7521D01*
X179319D01*
X179975Y6865D01*
Y5554D01*
X179319Y4898D01*
X191276Y6865D02*
X195211D01*
X193244Y4898D01*
Y7521D01*
X172455Y13742D02*
Y11118D01*
X170488D01*
X171143Y12430D01*
Y13086D01*
X170488Y13742D01*
X169176D01*
X168520Y13086D01*
Y11774D01*
X169176Y11118D01*
X172455Y15054D02*
X169832D01*
X168520Y16366D01*
X169832Y17678D01*
X172455D01*
X219704Y26999D02*
X220704Y27999D01*
X222703D01*
X223703Y26999D01*
Y23001D01*
X222703Y22001D01*
X220704D01*
X219704Y23001D01*
X217705Y22001D02*
X215705D01*
X216705D01*
Y27999D01*
X217705Y26999D01*
X212706Y22001D02*
X210707D01*
X211706D01*
Y27999D01*
X212706Y26999D01*
X141299Y57756D02*
Y60905D01*
X142086Y61692D01*
X143661D01*
X144448Y60905D01*
Y57756D01*
X143661Y56969D01*
X142086D01*
X142874Y58544D02*
X141299Y56969D01*
X142086D02*
X141299Y57756D01*
X139725Y56969D02*
X138151D01*
X138938D01*
Y61692D01*
X139725Y60905D01*
X97952Y12755D02*
Y8819D01*
X97164Y8032D01*
X95590D01*
X94803Y8819D01*
Y12755D01*
X90080D02*
X93229D01*
Y10394D01*
X91654Y11181D01*
X90867D01*
X90080Y10394D01*
Y8819D01*
X90867Y8032D01*
X92441D01*
X93229Y8819D01*
X98148Y62283D02*
Y58347D01*
X97361Y57560D01*
X95787D01*
X95000Y58347D01*
Y62283D01*
X91064Y57560D02*
Y62283D01*
X93426Y59921D01*
X90277D01*
X126261Y25711D02*
X130983D01*
Y28072D01*
X130196Y28859D01*
X128622D01*
X127835Y28072D01*
Y25711D01*
Y27285D02*
X126261Y28859D01*
Y30433D02*
Y32008D01*
Y31221D01*
X130983D01*
X130196Y30433D01*
X130983Y37518D02*
Y34369D01*
X128622D01*
X129409Y35943D01*
Y36731D01*
X128622Y37518D01*
X127048D01*
X126261Y36731D01*
Y35156D01*
X127048Y34369D01*
X151494Y28662D02*
Y33385D01*
X149133D01*
X148346Y32598D01*
Y31024D01*
X149133Y30237D01*
X151494D01*
X149920D02*
X148346Y28662D01*
X146771D02*
X145197D01*
X145984D01*
Y33385D01*
X146771Y32598D01*
X140474Y28662D02*
Y33385D01*
X142835Y31024D01*
X139687D01*
X118738Y8111D02*
Y12834D01*
X116377D01*
X115590Y12047D01*
Y10473D01*
X116377Y9685D01*
X118738D01*
X117164D02*
X115590Y8111D01*
X114015D02*
X112441D01*
X113228D01*
Y12834D01*
X114015Y12047D01*
X110080D02*
X109292Y12834D01*
X107718D01*
X106931Y12047D01*
Y11260D01*
X107718Y10473D01*
X108505D01*
X107718D01*
X106931Y9685D01*
Y8898D01*
X107718Y8111D01*
X109292D01*
X110080Y8898D01*
X140943Y83072D02*
Y87795D01*
X138582D01*
X137794Y87007D01*
Y85433D01*
X138582Y84646D01*
X140943D01*
X139369D02*
X137794Y83072D01*
X136220D02*
X134646D01*
X135433D01*
Y87795D01*
X136220Y87007D01*
X129136Y83072D02*
X132284D01*
X129136Y86220D01*
Y87007D01*
X129923Y87795D01*
X131497D01*
X132284Y87007D01*
X140156Y68111D02*
Y72834D01*
X137794D01*
X137007Y72047D01*
Y70472D01*
X137794Y69685D01*
X140156D01*
X138582D02*
X137007Y68111D01*
X135433D02*
X133859D01*
X134646D01*
Y72834D01*
X135433Y72047D01*
X131497Y68111D02*
X129923D01*
X130710D01*
Y72834D01*
X131497Y72047D01*
X50631Y79411D02*
X55354D01*
Y81773D01*
X54566Y82560D01*
X52992D01*
X52205Y81773D01*
Y79411D01*
Y80986D02*
X50631Y82560D01*
Y84134D02*
Y85708D01*
Y84921D01*
X55354D01*
X54566Y84134D01*
Y88070D02*
X55354Y88857D01*
Y90431D01*
X54566Y91219D01*
X51418D01*
X50631Y90431D01*
Y88857D01*
X51418Y88070D01*
X54566D01*
X70207Y67550D02*
X74930D01*
Y69912D01*
X74143Y70699D01*
X72569D01*
X71782Y69912D01*
Y67550D01*
Y69125D02*
X70207Y70699D01*
X70995Y72273D02*
X70207Y73061D01*
Y74635D01*
X70995Y75422D01*
X74143D01*
X74930Y74635D01*
Y73061D01*
X74143Y72273D01*
X73356D01*
X72569Y73061D01*
Y75422D01*
X126731Y45355D02*
Y50078D01*
X124370D01*
X123582Y49291D01*
Y47717D01*
X124370Y46929D01*
X126731D01*
X125157D02*
X123582Y45355D01*
X122008Y49291D02*
X121221Y50078D01*
X119647D01*
X118860Y49291D01*
Y48504D01*
X119647Y47717D01*
X118860Y46929D01*
Y46142D01*
X119647Y45355D01*
X121221D01*
X122008Y46142D01*
Y46929D01*
X121221Y47717D01*
X122008Y48504D01*
Y49291D01*
X121221Y47717D02*
X119647D01*
X206576Y76261D02*
X211298D01*
Y78623D01*
X210511Y79410D01*
X208937D01*
X208150Y78623D01*
Y76261D01*
Y77835D02*
X206576Y79410D01*
X211298Y80984D02*
Y84133D01*
X210511D01*
X207363Y80984D01*
X206576D01*
X163109Y74410D02*
Y79133D01*
X160748D01*
X159960Y78346D01*
Y76772D01*
X160748Y75985D01*
X163109D01*
X161535D02*
X159960Y74410D01*
X155237Y79133D02*
X156812Y78346D01*
X158386Y76772D01*
Y75197D01*
X157599Y74410D01*
X156025D01*
X155237Y75197D01*
Y75985D01*
X156025Y76772D01*
X158386D01*
X46731Y52009D02*
Y56731D01*
X44370D01*
X43582Y55944D01*
Y54370D01*
X44370Y53583D01*
X46731D01*
X45157D02*
X43582Y52009D01*
X38860Y56731D02*
X42008D01*
Y54370D01*
X40434Y55157D01*
X39647D01*
X38860Y54370D01*
Y52796D01*
X39647Y52009D01*
X41221D01*
X42008Y52796D01*
X76022Y87402D02*
Y92125D01*
X73661D01*
X72874Y91338D01*
Y89764D01*
X73661Y88977D01*
X76022D01*
X74448D02*
X72874Y87402D01*
X68151D02*
X71299D01*
X68151Y90551D01*
Y91338D01*
X68938Y92125D01*
X70512D01*
X71299Y91338D01*
X190826Y81969D02*
Y86692D01*
X188464D01*
X187677Y85905D01*
Y84331D01*
X188464Y83544D01*
X190826D01*
X189251D02*
X187677Y81969D01*
X186103D02*
X184529D01*
X185316D01*
Y86692D01*
X186103Y85905D01*
X22674Y67442D02*
Y72165D01*
X21100Y70590D01*
X19526Y72165D01*
Y67442D01*
X17952Y72165D02*
X16377D01*
X17165D01*
Y67442D01*
X17952D01*
X16377D01*
X10867Y71377D02*
X11654Y72165D01*
X13229D01*
X14016Y71377D01*
Y68229D01*
X13229Y67442D01*
X11654D01*
X10867Y68229D01*
X6144Y67442D02*
X9293D01*
X6144Y70590D01*
Y71377D01*
X6932Y72165D01*
X8506D01*
X9293Y71377D01*
X21809Y44292D02*
Y49015D01*
X20234Y47441D01*
X18660Y49015D01*
Y44292D01*
X17086Y49015D02*
X15511D01*
X16299D01*
Y44292D01*
X17086D01*
X15511D01*
X10001Y48228D02*
X10789Y49015D01*
X12363D01*
X13150Y48228D01*
Y45079D01*
X12363Y44292D01*
X10789D01*
X10001Y45079D01*
X8427Y44292D02*
X6853D01*
X7640D01*
Y49015D01*
X8427Y48228D01*
X53189Y7757D02*
X53976Y6970D01*
Y5395D01*
X53189Y4608D01*
X50040D01*
X49253Y5395D01*
Y6970D01*
X50040Y7757D01*
X49253Y9331D02*
Y10905D01*
Y10118D01*
X53976D01*
X53189Y9331D01*
Y13267D02*
X53976Y14054D01*
Y15628D01*
X53189Y16415D01*
X50040D01*
X49253Y15628D01*
Y14054D01*
X50040Y13267D01*
X53189D01*
X62953Y9842D02*
X63740Y10629D01*
X65314D01*
X66101Y9842D01*
Y6693D01*
X65314Y5906D01*
X63740D01*
X62953Y6693D01*
X61378D02*
X60591Y5906D01*
X59017D01*
X58230Y6693D01*
Y9842D01*
X59017Y10629D01*
X60591D01*
X61378Y9842D01*
Y9055D01*
X60591Y8268D01*
X58230D01*
X106141Y43936D02*
X106929Y44724D01*
X108503D01*
X109290Y43936D01*
Y40788D01*
X108503Y40001D01*
X106929D01*
X106141Y40788D01*
X104567Y43936D02*
X103780Y44724D01*
X102206D01*
X101419Y43936D01*
Y43149D01*
X102206Y42362D01*
X101419Y41575D01*
Y40788D01*
X102206Y40001D01*
X103780D01*
X104567Y40788D01*
Y41575D01*
X103780Y42362D01*
X104567Y43149D01*
Y43936D01*
X103780Y42362D02*
X102206D01*
X31653Y58701D02*
X32440Y57914D01*
Y56340D01*
X31653Y55552D01*
X28504D01*
X27717Y56340D01*
Y57914D01*
X28504Y58701D01*
X32440Y60275D02*
Y63424D01*
X31653D01*
X28504Y60275D01*
X27717D01*
X53582Y43189D02*
X54369Y42402D01*
Y40828D01*
X53582Y40041D01*
X50434D01*
X49646Y40828D01*
Y42402D01*
X50434Y43189D01*
X54369Y47912D02*
Y44763D01*
X52008D01*
X52795Y46338D01*
Y47125D01*
X52008Y47912D01*
X50434D01*
X49646Y47125D01*
Y45551D01*
X50434Y44763D01*
X41260Y22086D02*
X42047Y22873D01*
X43621D01*
X44408Y22086D01*
Y18937D01*
X43621Y18150D01*
X42047D01*
X41260Y18937D01*
X37324Y18150D02*
Y22873D01*
X39685Y20512D01*
X36537D01*
X41496Y68189D02*
X42283Y68976D01*
X43857D01*
X44644Y68189D01*
Y65040D01*
X43857Y64253D01*
X42283D01*
X41496Y65040D01*
X39922Y68189D02*
X39134Y68976D01*
X37560D01*
X36773Y68189D01*
Y67401D01*
X37560Y66614D01*
X38347D01*
X37560D01*
X36773Y65827D01*
Y65040D01*
X37560Y64253D01*
X39134D01*
X39922Y65040D01*
X30787Y25551D02*
X31574Y26338D01*
X33149D01*
X33936Y25551D01*
Y22402D01*
X33149Y21615D01*
X31574D01*
X30787Y22402D01*
X26064Y21615D02*
X29213D01*
X26064Y24764D01*
Y25551D01*
X26851Y26338D01*
X28426D01*
X29213Y25551D01*
X30039Y72755D02*
X30827Y73542D01*
X32401D01*
X33188Y72755D01*
Y69607D01*
X32401Y68820D01*
X30827D01*
X30039Y69607D01*
X28465Y68820D02*
X26891D01*
X27678D01*
Y73542D01*
X28465Y72755D01*
X228582Y87520D02*
Y92243D01*
X226220D01*
X225433Y91456D01*
Y89882D01*
X226220Y89095D01*
X228582D01*
X223859Y87520D02*
X222285D01*
X223072D01*
Y92243D01*
X223859Y91456D01*
D77*
X85236Y18307D02*
X84692Y19056D01*
X83812Y18770D01*
Y17844D01*
X84692Y17558D01*
X85236Y18307D01*
D78*
X20945Y109291D02*
Y110624D01*
Y109958D01*
X24944D01*
X24277Y109291D01*
X20748Y100343D02*
Y97677D01*
X23414Y100343D01*
X24080D01*
X24747Y99677D01*
Y98344D01*
X24080Y97677D01*
X231024Y97590D02*
X235022D01*
X233023Y95591D01*
Y98256D01*
X234356Y99589D02*
X235022Y100256D01*
Y101589D01*
X234356Y102255D01*
X231690D01*
X231024Y101589D01*
Y100256D01*
X231690Y99589D01*
X234356D01*
X234395Y106890D02*
X235062Y107556D01*
Y108889D01*
X234395Y109556D01*
X233729D01*
X233062Y108889D01*
Y108223D01*
Y108889D01*
X232396Y109556D01*
X231729D01*
X231063Y108889D01*
Y107556D01*
X231729Y106890D01*
Y110889D02*
X231063Y111555D01*
Y112888D01*
X231729Y113554D01*
X234395D01*
X235062Y112888D01*
Y111555D01*
X234395Y110889D01*
X233729D01*
X233062Y111555D01*
Y113554D01*
M02*
