G04*
G04 #@! TF.GenerationSoftware,Altium Limited,Altium Designer,22.3.1 (43)*
G04*
G04 Layer_Color=16711935*
%FSLAX25Y25*%
%MOIN*%
G70*
G04*
G04 #@! TF.SameCoordinates,CFB6BFBE-1D4E-4C59-BBC9-44663F7F7C7A*
G04*
G04*
G04 #@! TF.FilePolarity,Negative*
G04*
G01*
G75*
%ADD21R,0.05721X0.06902*%
%ADD24R,0.06824X0.06824*%
%ADD25C,0.06824*%
%ADD26C,0.06706*%
%ADD27R,0.06706X0.06706*%
%ADD28C,0.05131*%
%ADD29R,0.05131X0.05131*%
%ADD30R,0.05524X0.05524*%
%ADD31C,0.05524*%
%ADD32R,0.07887X0.07887*%
%ADD33C,0.07887*%
%ADD34R,0.04528X0.04528*%
%ADD35C,0.04528*%
%ADD36C,0.01280*%
%ADD37C,0.11627*%
%ADD38C,0.03162*%
%ADD39C,0.01181*%
%ADD55R,0.05928X0.07316*%
%ADD62R,0.04449X0.05591*%
%ADD63R,0.07316X0.05928*%
%ADD65R,0.02055X0.02362*%
%ADD66R,0.06127X0.05924*%
%ADD67R,0.06693X0.03740*%
%ADD68R,0.07887X0.04934*%
%ADD69R,0.04147X0.07099*%
%ADD70R,0.04540X0.06115*%
%ADD71R,0.06902X0.03556*%
%ADD72O,0.09461X0.03162*%
%ADD73R,0.04737X0.07690*%
%ADD74R,0.04343X0.03556*%
%ADD75R,0.04934X0.07887*%
%ADD76R,0.05328X0.05328*%
D21*
X106358Y31535D02*
D03*
X119941D02*
D03*
D24*
X160945Y9055D02*
D03*
D25*
X150945D02*
D03*
X140945D02*
D03*
X130945D02*
D03*
D26*
X222953Y99331D02*
D03*
X212953D02*
D03*
X202953D02*
D03*
X222953Y109331D02*
D03*
X212953D02*
D03*
X202953D02*
D03*
X172953Y99331D02*
D03*
Y109331D02*
D03*
X152953Y99331D02*
D03*
Y109331D02*
D03*
X142953Y99331D02*
D03*
Y109331D02*
D03*
X132953Y99331D02*
D03*
Y109331D02*
D03*
X122953Y99331D02*
D03*
Y109331D02*
D03*
X102953Y99331D02*
D03*
Y109331D02*
D03*
X82953Y99331D02*
D03*
Y109331D02*
D03*
X62953Y99331D02*
D03*
Y109331D02*
D03*
X32953Y99331D02*
D03*
X42953Y109331D02*
D03*
Y99331D02*
D03*
X52953Y109331D02*
D03*
Y99331D02*
D03*
X72953Y109331D02*
D03*
Y99331D02*
D03*
X92953Y109331D02*
D03*
Y99331D02*
D03*
X112953Y109331D02*
D03*
Y99331D02*
D03*
X162953Y109331D02*
D03*
Y99331D02*
D03*
X182953Y109331D02*
D03*
Y99331D02*
D03*
X192953Y109331D02*
D03*
Y99331D02*
D03*
D27*
X32953Y109331D02*
D03*
D28*
X143110Y77205D02*
D03*
D29*
X133268D02*
D03*
D30*
X245394Y31496D02*
D03*
D31*
Y39370D02*
D03*
Y47244D02*
D03*
Y55118D02*
D03*
Y62992D02*
D03*
Y70866D02*
D03*
Y78740D02*
D03*
Y86614D02*
D03*
D32*
X183665Y36713D02*
D03*
D33*
X196890Y31236D02*
D03*
X210114Y36713D02*
D03*
Y63161D02*
D03*
X196890Y68638D02*
D03*
X183665Y63161D02*
D03*
D34*
X72111Y57008D02*
D03*
D35*
X86253D02*
D03*
Y42866D02*
D03*
D36*
X11768Y82638D02*
D03*
Y35354D02*
D03*
D37*
X242126Y104331D02*
D03*
X13780D02*
D03*
X242126Y13780D02*
D03*
X13780D02*
D03*
D38*
X23622Y34646D02*
D03*
X58661Y90945D02*
D03*
X48701Y70630D02*
D03*
X128622Y49095D02*
D03*
X111417Y47205D02*
D03*
X86142Y22500D02*
D03*
X123268Y17874D02*
D03*
X137638Y17717D02*
D03*
X103661Y23543D02*
D03*
X47638Y43701D02*
D03*
X34646Y71260D02*
D03*
X5118Y41732D02*
D03*
X9055Y75590D02*
D03*
X7220Y27953D02*
D03*
X39764Y23228D02*
D03*
X56299Y12205D02*
D03*
X163386Y32283D02*
D03*
X167717Y65354D02*
D03*
X23622Y74410D02*
D03*
X26378Y59449D02*
D03*
Y55512D02*
D03*
X30315Y53543D02*
D03*
X42165Y47756D02*
D03*
X73779Y63110D02*
D03*
X125945Y63504D02*
D03*
X133031Y30906D02*
D03*
X56457Y29016D02*
D03*
X18622Y74016D02*
D03*
X24094Y47717D02*
D03*
X35866Y50039D02*
D03*
X33701Y67756D02*
D03*
X176772Y71024D02*
D03*
X156024Y72008D02*
D03*
X149724Y59606D02*
D03*
X14882Y74961D02*
D03*
X18937Y90472D02*
D03*
X26890Y63661D02*
D03*
X138661Y40354D02*
D03*
X153425Y41299D02*
D03*
X161024Y80158D02*
D03*
X16732Y27126D02*
D03*
X23976Y29685D02*
D03*
X24016Y82598D02*
D03*
D39*
X14375Y82638D02*
X14176Y83635D01*
X13611Y84481D01*
X12766Y85046D01*
X11768Y85244D01*
X10771Y85046D01*
X9926Y84481D01*
X9361Y83635D01*
X9162Y82638D01*
X9361Y81640D01*
X9926Y80795D01*
X10771Y80230D01*
X11768Y80032D01*
X12766Y80230D01*
X13611Y80795D01*
X14176Y81640D01*
X14375Y82638D01*
Y35354D02*
X14176Y36352D01*
X13611Y37197D01*
X12766Y37762D01*
X11768Y37961D01*
X10771Y37762D01*
X9926Y37197D01*
X9361Y36352D01*
X9162Y35354D01*
X9361Y34357D01*
X9926Y33511D01*
X10771Y32946D01*
X11768Y32748D01*
X12766Y32946D01*
X13611Y33511D01*
X14176Y34357D01*
X14375Y35354D01*
D55*
X211196Y15866D02*
D03*
X222820D02*
D03*
X20300Y59095D02*
D03*
X8676D02*
D03*
X60881Y43858D02*
D03*
X72505D02*
D03*
D62*
X51850Y21220D02*
D03*
Y30669D02*
D03*
D63*
X62402Y29001D02*
D03*
Y17377D02*
D03*
X40472Y75448D02*
D03*
Y87072D02*
D03*
Y29621D02*
D03*
Y41245D02*
D03*
D65*
X19934Y79094D02*
D03*
Y82638D02*
D03*
Y86181D02*
D03*
X16698Y79094D02*
D03*
Y86181D02*
D03*
X19934Y31811D02*
D03*
Y35354D02*
D03*
Y38898D02*
D03*
X16698Y31811D02*
D03*
Y38898D02*
D03*
D66*
X105157Y50627D02*
D03*
Y57720D02*
D03*
D67*
X30118Y40984D02*
D03*
Y29961D02*
D03*
Y88307D02*
D03*
Y77284D02*
D03*
D68*
X53858Y75925D02*
D03*
Y65886D02*
D03*
X65315Y65925D02*
D03*
Y75965D02*
D03*
X159488Y55374D02*
D03*
Y65413D02*
D03*
D69*
X61161Y54252D02*
D03*
X50728D02*
D03*
D70*
X58681Y85787D02*
D03*
X64784D02*
D03*
X195413Y84803D02*
D03*
X201516D02*
D03*
D71*
X80059Y66870D02*
D03*
Y71870D02*
D03*
Y76870D02*
D03*
Y81870D02*
D03*
X101516D02*
D03*
Y76870D02*
D03*
Y71870D02*
D03*
Y66870D02*
D03*
D72*
X94291Y32500D02*
D03*
Y27500D02*
D03*
Y22500D02*
D03*
Y17500D02*
D03*
X75394Y32500D02*
D03*
Y27500D02*
D03*
Y22500D02*
D03*
Y17500D02*
D03*
D73*
X217717Y80315D02*
D03*
X229528D02*
D03*
D74*
X137126Y47598D02*
D03*
X144606Y45039D02*
D03*
Y50157D02*
D03*
D75*
X112146Y85354D02*
D03*
X122185D02*
D03*
X112146Y70906D02*
D03*
X122185D02*
D03*
X128642Y56575D02*
D03*
X118602D02*
D03*
D76*
X141279Y23425D02*
D03*
X150531D02*
D03*
X108642Y17874D02*
D03*
X117894D02*
D03*
M02*
