G04*
G04 #@! TF.GenerationSoftware,Altium Limited,Altium Designer,22.3.1 (43)*
G04*
G04 Layer_Physical_Order=4*
G04 Layer_Color=16711680*
%FSLAX25Y25*%
%MOIN*%
G70*
G04*
G04 #@! TF.SameCoordinates,CFB6BFBE-1D4E-4C59-BBC9-44663F7F7C7A*
G04*
G04*
G04 #@! TF.FilePolarity,Positive*
G04*
G01*
G75*
%ADD17R,0.04921X0.06102*%
%ADD34R,0.04528X0.04528*%
%ADD35C,0.04528*%
%ADD36C,0.01280*%
%ADD39C,0.01181*%
%ADD40C,0.01968*%
%ADD41R,0.06024X0.06024*%
%ADD42C,0.06024*%
%ADD43C,0.05906*%
%ADD44R,0.05906X0.05906*%
%ADD45C,0.04331*%
%ADD46R,0.04331X0.04331*%
%ADD47R,0.04724X0.04724*%
%ADD48C,0.04724*%
%ADD49R,0.07087X0.07087*%
%ADD50C,0.07087*%
%ADD51C,0.10827*%
%ADD52C,0.02362*%
%ADD53R,0.07087X0.04134*%
%ADD54R,0.03347X0.06299*%
%ADD55R,0.05928X0.07316*%
%ADD56R,0.03740X0.05315*%
%ADD57R,0.06102X0.02756*%
%ADD58O,0.08661X0.02362*%
%ADD59R,0.03937X0.06890*%
%ADD60R,0.03543X0.02756*%
%ADD61R,0.04134X0.07087*%
%ADD62R,0.04449X0.05591*%
%ADD63R,0.07316X0.05928*%
%ADD64C,0.04634*%
%ADD65R,0.02055X0.02362*%
%ADD66R,0.06127X0.05924*%
%ADD67R,0.06693X0.03740*%
G36*
X229921Y91339D02*
X253937D01*
Y25591D01*
X229921D01*
Y1969D01*
X24409D01*
Y23425D01*
X1969D01*
Y94882D01*
X24016D01*
Y116142D01*
X229921D01*
Y91339D01*
D02*
G37*
%LPC*%
G36*
X43445Y113071D02*
X42460D01*
X41509Y112816D01*
X40656Y112324D01*
X39960Y111627D01*
X39677Y111137D01*
X36693D01*
Y113071D01*
X29213D01*
Y105591D01*
X36693D01*
Y107524D01*
X39677D01*
X39960Y107034D01*
X40656Y106338D01*
X41509Y105845D01*
X42460Y105591D01*
X43445D01*
X44396Y105845D01*
X45249Y106338D01*
X45946Y107034D01*
X46438Y107887D01*
X46693Y108838D01*
Y109823D01*
X46438Y110774D01*
X45946Y111627D01*
X45249Y112324D01*
X44396Y112816D01*
X43445Y113071D01*
D02*
G37*
G36*
X213445D02*
X212460D01*
X211509Y112816D01*
X210656Y112324D01*
X209960Y111627D01*
X209468Y110774D01*
X209213Y109823D01*
Y108838D01*
X209468Y107887D01*
X209488Y107852D01*
X207331Y105696D01*
X205138D01*
X205004Y106196D01*
X205249Y106338D01*
X205946Y107034D01*
X206438Y107887D01*
X206693Y108838D01*
Y109823D01*
X206438Y110774D01*
X205946Y111627D01*
X205249Y112324D01*
X204396Y112816D01*
X203445Y113071D01*
X202460D01*
X201509Y112816D01*
X200656Y112324D01*
X199960Y111627D01*
X199468Y110774D01*
X199213Y109823D01*
Y108838D01*
X199468Y107887D01*
X199960Y107034D01*
X200656Y106338D01*
X200901Y106196D01*
X200767Y105696D01*
X200433D01*
X199895Y105589D01*
X199440Y105285D01*
X196821Y102667D01*
X196517Y102211D01*
X196432Y101785D01*
X196085Y101666D01*
X195910Y101663D01*
X195249Y102324D01*
X194396Y102816D01*
X193445Y103071D01*
X192460D01*
X191509Y102816D01*
X190656Y102324D01*
X189960Y101627D01*
X189468Y100774D01*
X189213Y99823D01*
Y98838D01*
X189468Y97887D01*
X189960Y97034D01*
X190656Y96338D01*
X191106Y96078D01*
X191165Y95579D01*
X191135Y95484D01*
X169064Y73413D01*
X157403D01*
X157139Y73677D01*
X156415Y73976D01*
X155632D01*
X154909Y73677D01*
X154355Y73123D01*
X154055Y72399D01*
Y71616D01*
X154355Y70893D01*
X154909Y70339D01*
X155632Y70039D01*
X156415D01*
X157139Y70339D01*
X157403Y70603D01*
X169646D01*
X170183Y70710D01*
X170639Y71014D01*
X192747Y93123D01*
X195709D01*
X196246Y93230D01*
X196702Y93534D01*
X198808Y95640D01*
X199113Y96096D01*
X199220Y96634D01*
Y97316D01*
X199720Y97450D01*
X199960Y97034D01*
X200656Y96338D01*
X201390Y95914D01*
Y88248D01*
X198858D01*
Y81358D01*
X204173D01*
Y85947D01*
X204200Y86083D01*
Y95793D01*
X204396Y95846D01*
X205249Y96338D01*
X205946Y97034D01*
X206438Y97887D01*
X206693Y98838D01*
Y99823D01*
X206438Y100774D01*
X205946Y101627D01*
X205249Y102324D01*
X205140Y102386D01*
X205274Y102886D01*
X207676D01*
X207874Y102847D01*
X208412Y102954D01*
X208868Y103259D01*
X211474Y105866D01*
X211509Y105845D01*
X212460Y105591D01*
X213445D01*
X214396Y105845D01*
X215249Y106338D01*
X215946Y107034D01*
X216438Y107887D01*
X216693Y108838D01*
Y109823D01*
X216438Y110774D01*
X215946Y111627D01*
X215249Y112324D01*
X214396Y112816D01*
X213445Y113071D01*
D02*
G37*
G36*
X223445D02*
X222460D01*
X221509Y112816D01*
X220656Y112324D01*
X219960Y111627D01*
X219467Y110774D01*
X219213Y109823D01*
Y108838D01*
X219467Y107887D01*
X219960Y107034D01*
X220656Y106338D01*
X221509Y105845D01*
X222460Y105591D01*
X223445D01*
X224396Y105845D01*
X225249Y106338D01*
X225946Y107034D01*
X226438Y107887D01*
X226693Y108838D01*
Y109823D01*
X226438Y110774D01*
X225946Y111627D01*
X225249Y112324D01*
X224396Y112816D01*
X223445Y113071D01*
D02*
G37*
G36*
X183445D02*
X182460D01*
X181509Y112816D01*
X180656Y112324D01*
X179960Y111627D01*
X179467Y110774D01*
X179213Y109823D01*
Y108838D01*
X179467Y107887D01*
X179960Y107034D01*
X180656Y106338D01*
X181509Y105845D01*
X182460Y105591D01*
X183445D01*
X184396Y105845D01*
X185249Y106338D01*
X185946Y107034D01*
X186438Y107887D01*
X186693Y108838D01*
Y109823D01*
X186438Y110774D01*
X185946Y111627D01*
X185249Y112324D01*
X184396Y112816D01*
X183445Y113071D01*
D02*
G37*
G36*
X163445D02*
X162460D01*
X161509Y112816D01*
X160656Y112324D01*
X159960Y111627D01*
X159467Y110774D01*
X159213Y109823D01*
Y108838D01*
X159467Y107887D01*
X159960Y107034D01*
X160656Y106338D01*
X161509Y105845D01*
X162460Y105591D01*
X163445D01*
X164396Y105845D01*
X165249Y106338D01*
X165946Y107034D01*
X166438Y107887D01*
X166693Y108838D01*
Y109823D01*
X166438Y110774D01*
X165946Y111627D01*
X165249Y112324D01*
X164396Y112816D01*
X163445Y113071D01*
D02*
G37*
G36*
X153445D02*
X152460D01*
X151509Y112816D01*
X150656Y112324D01*
X149960Y111627D01*
X149468Y110774D01*
X149213Y109823D01*
Y108838D01*
X149468Y107887D01*
X149960Y107034D01*
X150656Y106338D01*
X151509Y105845D01*
X152460Y105591D01*
X153445D01*
X154396Y105845D01*
X155249Y106338D01*
X155946Y107034D01*
X156438Y107887D01*
X156693Y108838D01*
Y109823D01*
X156438Y110774D01*
X155946Y111627D01*
X155249Y112324D01*
X154396Y112816D01*
X153445Y113071D01*
D02*
G37*
G36*
X143445D02*
X142460D01*
X141509Y112816D01*
X140656Y112324D01*
X139960Y111627D01*
X139468Y110774D01*
X139213Y109823D01*
Y108838D01*
X139468Y107887D01*
X139960Y107034D01*
X140656Y106338D01*
X141509Y105845D01*
X142460Y105591D01*
X143445D01*
X144396Y105845D01*
X145249Y106338D01*
X145946Y107034D01*
X146438Y107887D01*
X146693Y108838D01*
Y109823D01*
X146438Y110774D01*
X145946Y111627D01*
X145249Y112324D01*
X144396Y112816D01*
X143445Y113071D01*
D02*
G37*
G36*
X133445D02*
X132460D01*
X131509Y112816D01*
X130656Y112324D01*
X129960Y111627D01*
X129467Y110774D01*
X129213Y109823D01*
Y108838D01*
X129467Y107887D01*
X129960Y107034D01*
X130656Y106338D01*
X131509Y105845D01*
X132460Y105591D01*
X133445D01*
X134396Y105845D01*
X135249Y106338D01*
X135946Y107034D01*
X136438Y107887D01*
X136693Y108838D01*
Y109823D01*
X136438Y110774D01*
X135946Y111627D01*
X135249Y112324D01*
X134396Y112816D01*
X133445Y113071D01*
D02*
G37*
G36*
X103445D02*
X102460D01*
X101509Y112816D01*
X100656Y112324D01*
X99960Y111627D01*
X99467Y110774D01*
X99213Y109823D01*
Y108838D01*
X99467Y107887D01*
X99488Y107852D01*
X97038Y105403D01*
X96733Y104947D01*
X96627Y104409D01*
Y101448D01*
X96127Y101314D01*
X95946Y101627D01*
X95249Y102324D01*
X94396Y102816D01*
X93445Y103071D01*
X92460D01*
X91509Y102816D01*
X90656Y102324D01*
X89960Y101627D01*
X89468Y100774D01*
X89213Y99823D01*
Y98838D01*
X89468Y97887D01*
X89960Y97034D01*
X90656Y96338D01*
X91509Y95846D01*
X92460Y95591D01*
X93445D01*
X94396Y95846D01*
X95249Y96338D01*
X95946Y97034D01*
X96127Y97348D01*
X96627Y97214D01*
Y88259D01*
X85259Y76892D01*
X84955Y76436D01*
X84848Y75898D01*
Y59720D01*
X84379Y59449D01*
X83811Y58881D01*
X83410Y58186D01*
X83202Y57410D01*
Y56606D01*
X83342Y56084D01*
X80749Y53492D01*
X68151D01*
X67027Y54615D01*
X66571Y54920D01*
X66034Y55027D01*
X63622D01*
Y58189D01*
X58701D01*
Y50315D01*
X63622D01*
Y52217D01*
X65452D01*
X66575Y51093D01*
X67031Y50789D01*
X67569Y50682D01*
X81331D01*
X81869Y50789D01*
X82325Y51093D01*
X85329Y54097D01*
X85851Y53957D01*
X86655D01*
X87431Y54165D01*
X88126Y54566D01*
X88694Y55134D01*
X89096Y55830D01*
X89304Y56606D01*
Y57410D01*
X89096Y58186D01*
X88694Y58881D01*
X88126Y59449D01*
X87658Y59720D01*
Y75317D01*
X90182Y77840D01*
X90682Y77633D01*
Y42354D01*
X89205Y40877D01*
X88805Y41184D01*
X89096Y41688D01*
X89304Y42464D01*
Y43268D01*
X89096Y44044D01*
X88694Y44740D01*
X88126Y45308D01*
X87431Y45709D01*
X86655Y45917D01*
X85851D01*
X85075Y45709D01*
X84887Y45601D01*
X84568Y45665D01*
X76256D01*
Y48304D01*
X68753D01*
Y39413D01*
X76256D01*
Y42052D01*
X83312D01*
X83410Y41688D01*
X83811Y40993D01*
X84379Y40425D01*
X85075Y40023D01*
X85851Y39815D01*
X86655D01*
X87431Y40023D01*
X87935Y40314D01*
X88242Y39914D01*
X86982Y38654D01*
X83292D01*
X82754Y38547D01*
X82299Y38242D01*
X78560Y34504D01*
X78543Y34507D01*
X72244D01*
X71476Y34354D01*
X70825Y33919D01*
X70390Y33268D01*
X70237Y32500D01*
X70390Y31732D01*
X70825Y31081D01*
X71476Y30646D01*
X72244Y30493D01*
X78543D01*
X79311Y30646D01*
X79962Y31081D01*
X80398Y31732D01*
X80550Y32500D01*
X80547Y32517D01*
X83874Y35844D01*
X87564D01*
X88101Y35951D01*
X88557Y36255D01*
X92424Y40123D01*
X92886Y39931D01*
Y34507D01*
X91142D01*
X90374Y34354D01*
X89723Y33919D01*
X89287Y33268D01*
X89135Y32500D01*
X89287Y31732D01*
X89723Y31081D01*
X90374Y30646D01*
X91142Y30493D01*
X97441D01*
X98209Y30646D01*
X98860Y31081D01*
X99295Y31732D01*
X99448Y32500D01*
X99295Y33268D01*
X98860Y33919D01*
X98209Y34354D01*
X97441Y34507D01*
X95696D01*
Y73355D01*
X97177Y74836D01*
X97677Y74705D01*
Y74705D01*
X105354D01*
Y75465D01*
X107076D01*
X109291Y73249D01*
Y66575D01*
X115000D01*
Y75236D01*
X111278D01*
X108651Y77864D01*
X108195Y78168D01*
X107658Y78275D01*
X105354D01*
Y79035D01*
X97677D01*
Y77744D01*
X96693D01*
X96155Y77637D01*
X95700Y77332D01*
X93954Y75586D01*
X93492Y75777D01*
Y77331D01*
X96625Y80465D01*
X97677D01*
Y79705D01*
X105354D01*
Y80524D01*
X106417D01*
X106955Y80631D01*
X107411Y80936D01*
X107472Y80997D01*
X110669D01*
X110805Y81024D01*
X115000D01*
Y89685D01*
X109291D01*
Y83807D01*
X106890D01*
X106352Y83700D01*
X105896Y83395D01*
X105854Y83353D01*
X105354Y83380D01*
Y84035D01*
X97677D01*
Y83275D01*
X96323D01*
X96116Y83775D01*
X99025Y86684D01*
X99330Y87139D01*
X99436Y87677D01*
Y96941D01*
X99936Y97075D01*
X99960Y97034D01*
X100656Y96338D01*
X101509Y95846D01*
X102460Y95591D01*
X103445D01*
X104396Y95846D01*
X105249Y96338D01*
X105946Y97034D01*
X106438Y97887D01*
X106693Y98838D01*
Y99823D01*
X106438Y100774D01*
X105946Y101627D01*
X105249Y102324D01*
X104396Y102816D01*
X103445Y103071D01*
X102460D01*
X101509Y102816D01*
X100656Y102324D01*
X99960Y101627D01*
X99936Y101587D01*
X99436Y101721D01*
Y103828D01*
X101474Y105866D01*
X101509Y105845D01*
X102460Y105591D01*
X103445D01*
X104396Y105845D01*
X105249Y106338D01*
X105946Y107034D01*
X106438Y107887D01*
X106693Y108838D01*
Y109823D01*
X106438Y110774D01*
X105946Y111627D01*
X105249Y112324D01*
X104396Y112816D01*
X103445Y113071D01*
D02*
G37*
G36*
X83445D02*
X82460D01*
X81509Y112816D01*
X80656Y112324D01*
X79960Y111627D01*
X79467Y110774D01*
X79213Y109823D01*
Y108838D01*
X79467Y107887D01*
X79488Y107852D01*
X76959Y105324D01*
X76655Y104868D01*
X76548Y104331D01*
Y96861D01*
X67903Y88217D01*
X67441Y88408D01*
Y89232D01*
X62126D01*
Y82342D01*
X67441D01*
Y84382D01*
X67461D01*
X67998Y84489D01*
X68454Y84794D01*
X78946Y95286D01*
X79251Y95742D01*
X79358Y96280D01*
Y97077D01*
X79858Y97211D01*
X79960Y97034D01*
X80656Y96338D01*
X81509Y95846D01*
X82460Y95591D01*
X83445D01*
X84396Y95846D01*
X85249Y96338D01*
X85946Y97034D01*
X86438Y97887D01*
X86693Y98838D01*
Y99823D01*
X86438Y100774D01*
X85946Y101627D01*
X85249Y102324D01*
X84396Y102816D01*
X83445Y103071D01*
X82460D01*
X81509Y102816D01*
X80656Y102324D01*
X79960Y101627D01*
X79858Y101450D01*
X79358Y101584D01*
Y103749D01*
X81474Y105866D01*
X81509Y105845D01*
X82460Y105591D01*
X83445D01*
X84396Y105845D01*
X85249Y106338D01*
X85946Y107034D01*
X86438Y107887D01*
X86693Y108838D01*
Y109823D01*
X86438Y110774D01*
X85946Y111627D01*
X85249Y112324D01*
X84396Y112816D01*
X83445Y113071D01*
D02*
G37*
G36*
X73445D02*
X72460D01*
X71509Y112816D01*
X70656Y112324D01*
X69960Y111627D01*
X69468Y110774D01*
X69213Y109823D01*
Y108838D01*
X69468Y107887D01*
X69960Y107034D01*
X70656Y106338D01*
X71509Y105845D01*
X72460Y105591D01*
X73445D01*
X74396Y105845D01*
X75249Y106338D01*
X75946Y107034D01*
X76438Y107887D01*
X76693Y108838D01*
Y109823D01*
X76438Y110774D01*
X75946Y111627D01*
X75249Y112324D01*
X74396Y112816D01*
X73445Y113071D01*
D02*
G37*
G36*
X63445D02*
X62460D01*
X61509Y112816D01*
X60656Y112324D01*
X59960Y111627D01*
X59468Y110774D01*
X59213Y109823D01*
Y108838D01*
X59468Y107887D01*
X59960Y107034D01*
X60656Y106338D01*
X61509Y105845D01*
X62460Y105591D01*
X63445D01*
X64396Y105845D01*
X65249Y106338D01*
X65946Y107034D01*
X66438Y107887D01*
X66693Y108838D01*
Y109823D01*
X66438Y110774D01*
X65946Y111627D01*
X65249Y112324D01*
X64396Y112816D01*
X63445Y113071D01*
D02*
G37*
G36*
X113445D02*
X112460D01*
X111509Y112816D01*
X110656Y112324D01*
X109960Y111627D01*
X109467Y110774D01*
X109213Y109823D01*
Y108838D01*
X109467Y107887D01*
X109960Y107034D01*
X110656Y106338D01*
X111509Y105845D01*
X112460Y105591D01*
X113445D01*
X114396Y105845D01*
X114431Y105866D01*
X116469Y103828D01*
Y101721D01*
X115969Y101587D01*
X115946Y101627D01*
X115249Y102324D01*
X114396Y102816D01*
X113445Y103071D01*
X112460D01*
X111509Y102816D01*
X110656Y102324D01*
X109960Y101627D01*
X109467Y100774D01*
X109213Y99823D01*
Y98838D01*
X109467Y97887D01*
X109960Y97034D01*
X110656Y96338D01*
X111509Y95846D01*
X112460Y95591D01*
X113445D01*
X114396Y95846D01*
X115249Y96338D01*
X115946Y97034D01*
X115969Y97075D01*
X116469Y96941D01*
Y95236D01*
X116576Y94699D01*
X116881Y94243D01*
X119400Y91723D01*
X119856Y91418D01*
X120394Y91312D01*
X123749D01*
X124875Y90185D01*
X124668Y89685D01*
X119331D01*
Y81024D01*
X120379D01*
Y75236D01*
X119331D01*
Y66575D01*
X121461D01*
Y66260D01*
X121599Y65569D01*
X121990Y64983D01*
X122895Y64078D01*
X123053Y63841D01*
X124114Y62780D01*
X124276Y62389D01*
X124830Y61835D01*
X125221Y61673D01*
X125753Y61142D01*
Y57657D01*
X125787Y57483D01*
Y52244D01*
X126835D01*
Y49925D01*
X126654Y49486D01*
Y48703D01*
X126953Y47979D01*
X127507Y47426D01*
X128231Y47126D01*
X129014D01*
X129737Y47426D01*
X130291Y47979D01*
X130591Y48703D01*
Y49486D01*
X130448Y49830D01*
Y52244D01*
X131496D01*
Y60905D01*
X129365D01*
Y61890D01*
X129228Y62581D01*
X128836Y63167D01*
X127776Y64227D01*
X127614Y64619D01*
X127060Y65173D01*
X126669Y65335D01*
X125767Y66237D01*
X125608Y66474D01*
X125074Y67008D01*
Y69823D01*
X125039Y69997D01*
Y75236D01*
X123991D01*
Y81024D01*
X125039D01*
Y89314D01*
X125539Y89521D01*
X126075Y88985D01*
Y68307D01*
X126182Y67769D01*
X126487Y67314D01*
X139461Y54339D01*
Y49764D01*
X134567D01*
Y45433D01*
X135320D01*
Y41996D01*
X135457Y41305D01*
X135849Y40719D01*
X136755Y39813D01*
X136993Y39239D01*
X137546Y38686D01*
X138270Y38386D01*
X139053D01*
X139777Y38686D01*
X140330Y39239D01*
X140630Y39963D01*
Y40746D01*
X140330Y41469D01*
X139777Y42023D01*
X139567Y42110D01*
X138932Y42744D01*
Y45433D01*
X139685D01*
Y45478D01*
X140185Y45685D01*
X141037Y44833D01*
X141493Y44529D01*
X142030Y44422D01*
X142047D01*
Y42874D01*
X147165D01*
Y43634D01*
X149103D01*
X151457Y41281D01*
Y40908D01*
X151756Y40184D01*
X152310Y39630D01*
X153034Y39331D01*
X153817D01*
X154060Y39432D01*
X154344Y39008D01*
X153158Y37822D01*
X124823D01*
X124285Y37715D01*
X123829Y37411D01*
X121820Y35401D01*
X121811D01*
X121675Y35374D01*
X116693D01*
Y27697D01*
X123189D01*
Y32865D01*
X123395Y33003D01*
X125405Y35012D01*
X153740D01*
X154278Y35119D01*
X154734Y35424D01*
X158828Y39518D01*
X159133Y39974D01*
X159240Y40512D01*
Y52520D01*
X163819D01*
Y53969D01*
X166673D01*
X167211Y54076D01*
X167667Y54381D01*
X175043Y61756D01*
X179558D01*
X179630Y61490D01*
X180200Y60502D01*
X181006Y59696D01*
X181994Y59126D01*
X183095Y58831D01*
X184236D01*
X185337Y59126D01*
X186325Y59696D01*
X186533Y59905D01*
X187116Y59321D01*
X187572Y59017D01*
X188110Y58910D01*
X205670D01*
X206207Y59017D01*
X206663Y59321D01*
X207246Y59905D01*
X207455Y59696D01*
X208443Y59126D01*
X209544Y58831D01*
X210684D01*
X211786Y59126D01*
X212773Y59696D01*
X213580Y60502D01*
X214150Y61490D01*
X214445Y62591D01*
Y63732D01*
X214150Y64833D01*
X213580Y65820D01*
X212773Y66627D01*
X211786Y67197D01*
X210684Y67492D01*
X209544D01*
X208443Y67197D01*
X207455Y66627D01*
X206649Y65820D01*
X206079Y64833D01*
X205784Y63732D01*
Y62591D01*
X205821Y62453D01*
X205088Y61720D01*
X188692D01*
X187959Y62453D01*
X187996Y62591D01*
Y63732D01*
X187701Y64833D01*
X187131Y65820D01*
X186325Y66627D01*
X185337Y67197D01*
X184236Y67492D01*
X183095D01*
X181994Y67197D01*
X181006Y66627D01*
X180200Y65820D01*
X179630Y64833D01*
X179558Y64566D01*
X174461D01*
X173923Y64459D01*
X173467Y64155D01*
X166091Y56779D01*
X163819D01*
Y58228D01*
X155157D01*
Y52520D01*
X156430D01*
Y41094D01*
X155717Y40381D01*
X155293Y40664D01*
X155394Y40908D01*
Y41691D01*
X155094Y42414D01*
X154540Y42968D01*
X153817Y43268D01*
X153444D01*
X150679Y46033D01*
X150223Y46337D01*
X149685Y46444D01*
X147165D01*
Y47205D01*
X143955D01*
X143819Y47232D01*
X142734D01*
X142510Y47492D01*
X142708Y47992D01*
X147165D01*
Y52323D01*
X146413D01*
Y53740D01*
X150448Y57775D01*
X150839Y57938D01*
X151393Y58491D01*
X151693Y59215D01*
Y59998D01*
X151393Y60721D01*
X150839Y61275D01*
X150116Y61575D01*
X149333D01*
X148609Y61275D01*
X148056Y60721D01*
X147894Y60330D01*
X143329Y55765D01*
X142937Y55180D01*
X142800Y54488D01*
Y52323D01*
X142271D01*
Y54921D01*
X142164Y55459D01*
X141860Y55915D01*
X128885Y68889D01*
Y89567D01*
X128778Y90105D01*
X128474Y90560D01*
X125324Y93710D01*
X124868Y94015D01*
X124331Y94121D01*
X120976D01*
X119279Y95818D01*
Y97214D01*
X119779Y97348D01*
X119960Y97034D01*
X120656Y96338D01*
X121509Y95846D01*
X122460Y95591D01*
X123445D01*
X124396Y95846D01*
X125249Y96338D01*
X125946Y97034D01*
X126438Y97887D01*
X126693Y98838D01*
Y99823D01*
X126438Y100774D01*
X125946Y101627D01*
X125249Y102324D01*
X124396Y102816D01*
X123445Y103071D01*
X122460D01*
X121509Y102816D01*
X120656Y102324D01*
X119960Y101627D01*
X119779Y101314D01*
X119279Y101448D01*
Y104409D01*
X119172Y104947D01*
X118868Y105403D01*
X116418Y107852D01*
X116438Y107887D01*
X116693Y108838D01*
Y109823D01*
X116438Y110774D01*
X115946Y111627D01*
X115249Y112324D01*
X114396Y112816D01*
X113445Y113071D01*
D02*
G37*
G36*
X213445Y103071D02*
X212460D01*
X211509Y102816D01*
X210656Y102324D01*
X209960Y101627D01*
X209468Y100774D01*
X209213Y99823D01*
Y98838D01*
X209468Y97887D01*
X209960Y97034D01*
X210656Y96338D01*
X211509Y95846D01*
X212460Y95591D01*
X213445D01*
X214396Y95846D01*
X215249Y96338D01*
X215946Y97034D01*
X216438Y97887D01*
X216693Y98838D01*
Y99823D01*
X216438Y100774D01*
X215946Y101627D01*
X215249Y102324D01*
X214396Y102816D01*
X213445Y103071D01*
D02*
G37*
G36*
X183445D02*
X182460D01*
X181509Y102816D01*
X180656Y102324D01*
X179960Y101627D01*
X179467Y100774D01*
X179213Y99823D01*
Y98838D01*
X179467Y97887D01*
X179960Y97034D01*
X180656Y96338D01*
X181509Y95846D01*
X182460Y95591D01*
X183445D01*
X184396Y95846D01*
X185249Y96338D01*
X185946Y97034D01*
X186438Y97887D01*
X186693Y98838D01*
Y99823D01*
X186438Y100774D01*
X185946Y101627D01*
X185249Y102324D01*
X184396Y102816D01*
X183445Y103071D01*
D02*
G37*
G36*
X173445D02*
X172460D01*
X171509Y102816D01*
X170656Y102324D01*
X169960Y101627D01*
X169467Y100774D01*
X169213Y99823D01*
Y98838D01*
X169467Y97887D01*
X169960Y97034D01*
X170656Y96338D01*
X171509Y95846D01*
X172460Y95591D01*
X173445D01*
X174396Y95846D01*
X175249Y96338D01*
X175946Y97034D01*
X176438Y97887D01*
X176693Y98838D01*
Y99823D01*
X176438Y100774D01*
X175946Y101627D01*
X175249Y102324D01*
X174396Y102816D01*
X173445Y103071D01*
D02*
G37*
G36*
X163445D02*
X162460D01*
X161509Y102816D01*
X160656Y102324D01*
X159960Y101627D01*
X159467Y100774D01*
X159213Y99823D01*
Y98838D01*
X159467Y97887D01*
X159960Y97034D01*
X160656Y96338D01*
X161509Y95846D01*
X162460Y95591D01*
X163445D01*
X164396Y95846D01*
X165249Y96338D01*
X165946Y97034D01*
X166438Y97887D01*
X166693Y98838D01*
Y99823D01*
X166438Y100774D01*
X165946Y101627D01*
X165249Y102324D01*
X164396Y102816D01*
X163445Y103071D01*
D02*
G37*
G36*
X133445D02*
X132460D01*
X131509Y102816D01*
X130656Y102324D01*
X129960Y101627D01*
X129467Y100774D01*
X129213Y99823D01*
Y98838D01*
X129467Y97887D01*
X129960Y97034D01*
X130656Y96338D01*
X131509Y95846D01*
X132460Y95591D01*
X133445D01*
X134396Y95846D01*
X135249Y96338D01*
X135946Y97034D01*
X136438Y97887D01*
X136693Y98838D01*
Y99823D01*
X136438Y100774D01*
X135946Y101627D01*
X135249Y102324D01*
X134396Y102816D01*
X133445Y103071D01*
D02*
G37*
G36*
X63445D02*
X62460D01*
X61509Y102816D01*
X60656Y102324D01*
X59960Y101627D01*
X59468Y100774D01*
X59213Y99823D01*
Y98838D01*
X59468Y97887D01*
X59960Y97034D01*
X60656Y96338D01*
X61509Y95846D01*
X62460Y95591D01*
X63445D01*
X64396Y95846D01*
X65249Y96338D01*
X65946Y97034D01*
X66438Y97887D01*
X66693Y98838D01*
Y99823D01*
X66438Y100774D01*
X65946Y101627D01*
X65249Y102324D01*
X64396Y102816D01*
X63445Y103071D01*
D02*
G37*
G36*
X53445D02*
X52460D01*
X51509Y102816D01*
X50656Y102324D01*
X49960Y101627D01*
X49468Y100774D01*
X49213Y99823D01*
Y98838D01*
X49468Y97887D01*
X49960Y97034D01*
X50656Y96338D01*
X51509Y95846D01*
X52460Y95591D01*
X53445D01*
X54396Y95846D01*
X55249Y96338D01*
X55946Y97034D01*
X56438Y97887D01*
X56693Y98838D01*
Y99823D01*
X56438Y100774D01*
X55946Y101627D01*
X55249Y102324D01*
X54396Y102816D01*
X53445Y103071D01*
D02*
G37*
G36*
X43445D02*
X42460D01*
X41509Y102816D01*
X40656Y102324D01*
X39960Y101627D01*
X39467Y100774D01*
X39213Y99823D01*
Y98838D01*
X39467Y97887D01*
X39960Y97034D01*
X40656Y96338D01*
X41509Y95846D01*
X42460Y95591D01*
X43445D01*
X44396Y95846D01*
X44431Y95865D01*
X44894Y95402D01*
Y90823D01*
X36027D01*
Y90114D01*
X34252D01*
Y90965D01*
X31925D01*
Y95323D01*
X32321Y95628D01*
X32460Y95591D01*
X33445D01*
X34396Y95846D01*
X35249Y96338D01*
X35946Y97034D01*
X36438Y97887D01*
X36693Y98838D01*
Y99823D01*
X36438Y100774D01*
X35946Y101627D01*
X35249Y102324D01*
X34396Y102816D01*
X33445Y103071D01*
X32460D01*
X31509Y102816D01*
X30656Y102324D01*
X29960Y101627D01*
X29467Y100774D01*
X29213Y99823D01*
Y98838D01*
X29359Y98292D01*
X28841Y97773D01*
X28449Y97187D01*
X28312Y96496D01*
Y90965D01*
X25984D01*
Y90114D01*
X24724D01*
X24033Y89976D01*
X23447Y89584D01*
X22047Y88184D01*
X19977D01*
X19953Y88221D01*
X20052Y88804D01*
X20606Y89357D01*
X20906Y90081D01*
Y90864D01*
X20606Y91588D01*
X20052Y92141D01*
X19329Y92441D01*
X18545D01*
X17822Y92141D01*
X17268Y91588D01*
X16969Y90864D01*
Y90491D01*
X16141Y89663D01*
X15837Y89208D01*
X15730Y88670D01*
Y88150D01*
X14883D01*
Y84213D01*
X18119D01*
Y80669D01*
Y77126D01*
X18529D01*
Y76229D01*
X18284Y75984D01*
X18230D01*
X17507Y75685D01*
X17312Y75490D01*
X16738Y75623D01*
X16551Y76076D01*
X15997Y76629D01*
X15273Y76929D01*
X14490D01*
X13767Y76629D01*
X13213Y76076D01*
X12913Y75352D01*
Y74569D01*
X12944Y74496D01*
X12847Y74011D01*
Y66220D01*
Y41497D01*
X12954Y40959D01*
X13259Y40503D01*
X14883Y38879D01*
Y36929D01*
X18119D01*
Y33779D01*
X14883D01*
Y29842D01*
X14891D01*
Y27825D01*
X14764Y27518D01*
Y26734D01*
X15064Y26011D01*
X15617Y25457D01*
X16341Y25157D01*
X17124D01*
X17847Y25457D01*
X18401Y26011D01*
X18701Y26734D01*
Y27518D01*
X18504Y27993D01*
Y29842D01*
X20235D01*
X20371Y29816D01*
X21539D01*
X22008Y29347D01*
Y29294D01*
X22308Y28570D01*
X22861Y28016D01*
X23585Y27716D01*
X24368D01*
X25091Y28016D01*
X25645Y28570D01*
X25945Y29294D01*
Y30077D01*
X25645Y30800D01*
X25091Y31354D01*
X24368Y31653D01*
X23675D01*
X23115Y32214D01*
X23113Y32215D01*
X23159Y32395D01*
X23322Y32677D01*
X24014D01*
X24737Y32977D01*
X25291Y33531D01*
X25591Y34254D01*
Y35037D01*
X25291Y35761D01*
X24737Y36314D01*
X24014Y36614D01*
X23314D01*
X23266Y37101D01*
X23270Y37115D01*
X23841Y37229D01*
X24427Y37620D01*
X25484Y38678D01*
X25984Y38471D01*
Y38327D01*
X34252D01*
Y39178D01*
X36027D01*
Y37494D01*
X44918D01*
Y44997D01*
X42668D01*
X42461Y45496D01*
X42889Y45925D01*
X43280Y46087D01*
X43834Y46641D01*
X44134Y47364D01*
Y48147D01*
X43834Y48871D01*
X43280Y49425D01*
X42557Y49724D01*
X41774D01*
X41050Y49425D01*
X40497Y48871D01*
X40334Y48480D01*
X39195Y47340D01*
X38804Y46754D01*
X38666Y46063D01*
Y44997D01*
X36027D01*
Y42791D01*
X34252D01*
Y43642D01*
X25984D01*
Y42476D01*
X24921D01*
X24230Y42338D01*
X23644Y41947D01*
X22401Y40704D01*
X21749D01*
Y40866D01*
X16870D01*
X15657Y42079D01*
Y64815D01*
X24696D01*
X25030Y64315D01*
X24921Y64053D01*
Y63270D01*
X25221Y62546D01*
X25775Y61993D01*
X26498Y61693D01*
X27281D01*
X28005Y61993D01*
X28269Y62256D01*
X33506D01*
X34044Y62363D01*
X34500Y62668D01*
X37317Y65485D01*
X39616D01*
X39808Y65023D01*
X30297Y55512D01*
X29923D01*
X29200Y55212D01*
X28732Y54744D01*
X28308Y55027D01*
X28346Y55120D01*
Y55903D01*
X28047Y56627D01*
X27493Y57181D01*
X26920Y57418D01*
X26640Y57698D01*
X26054Y58090D01*
X25362Y58227D01*
X24052D01*
Y63540D01*
X16549D01*
Y54649D01*
X22105D01*
X22280Y54615D01*
X24614D01*
X24622Y54606D01*
X24709Y54397D01*
X25263Y53843D01*
X25986Y53543D01*
X26770D01*
X27493Y53843D01*
X27961Y54311D01*
X28385Y54028D01*
X28346Y53935D01*
Y53152D01*
X28646Y52428D01*
X29130Y51944D01*
X29065Y51614D01*
X28977Y51444D01*
X26417D01*
X25880Y51337D01*
X25424Y51033D01*
X24076Y49685D01*
X23703D01*
X22979Y49385D01*
X22426Y48832D01*
X22126Y48108D01*
Y47325D01*
X22426Y46602D01*
X22979Y46048D01*
X23703Y45748D01*
X24486D01*
X25210Y46048D01*
X25763Y46602D01*
X26063Y47325D01*
Y47698D01*
X26999Y48634D01*
X34487D01*
X34751Y48371D01*
X35475Y48071D01*
X36258D01*
X36981Y48371D01*
X37535Y48924D01*
X37835Y49648D01*
Y50431D01*
X37535Y51154D01*
X36981Y51708D01*
X36258Y52008D01*
X35475D01*
X34751Y51708D01*
X34487Y51444D01*
X31653D01*
X31565Y51614D01*
X31500Y51944D01*
X31984Y52428D01*
X32283Y53152D01*
Y53525D01*
X47680Y68922D01*
X48309Y68661D01*
X49028D01*
X49092Y68661D01*
X49528Y68300D01*
Y63032D01*
X58189D01*
Y64119D01*
X60984D01*
Y63071D01*
X69646D01*
Y63166D01*
X71063D01*
X72024Y62205D01*
X72111Y61995D01*
X72664Y61441D01*
X73388Y61142D01*
X74171D01*
X74895Y61441D01*
X75448Y61995D01*
X75686Y62568D01*
X75923Y62806D01*
X76315Y63392D01*
X76452Y64083D01*
Y69252D01*
X76870Y69670D01*
X79665D01*
X79840Y69705D01*
X83898D01*
Y74035D01*
X76221D01*
Y73283D01*
X76122D01*
X75431Y73145D01*
X74845Y72754D01*
X73368Y71277D01*
X72977Y70691D01*
X72839Y70000D01*
Y66971D01*
X72339Y66673D01*
X71811Y66779D01*
X69646D01*
Y68779D01*
X60984D01*
Y67732D01*
X58189D01*
Y68725D01*
X58189Y68740D01*
X58226Y69225D01*
X58504D01*
X59042Y69332D01*
X59497Y69636D01*
X62971Y73110D01*
X69646D01*
Y74560D01*
X72874D01*
X73412Y74667D01*
X73867Y74971D01*
X74361Y75465D01*
X76221D01*
Y74705D01*
X83898D01*
Y79035D01*
X76221D01*
Y78275D01*
X73779D01*
X73242Y78168D01*
X72786Y77864D01*
X72292Y77369D01*
X69646D01*
Y78752D01*
X70669D01*
X71207Y78860D01*
X71663Y79164D01*
X72964Y80465D01*
X76221D01*
Y79705D01*
X83898D01*
Y84035D01*
X76221D01*
Y83275D01*
X72382D01*
X71844Y83168D01*
X71388Y82863D01*
X70087Y81562D01*
X58091D01*
X57553Y81455D01*
X57097Y81151D01*
X55742Y79795D01*
X55437Y79340D01*
X55330Y78802D01*
Y78780D01*
X49528D01*
Y77369D01*
X47704D01*
Y95984D01*
X47597Y96522D01*
X47293Y96978D01*
X46418Y97852D01*
X46438Y97887D01*
X46693Y98838D01*
Y99823D01*
X46438Y100774D01*
X45946Y101627D01*
X45249Y102324D01*
X44396Y102816D01*
X43445Y103071D01*
D02*
G37*
G36*
X245808Y89764D02*
X244979D01*
X244178Y89549D01*
X243460Y89135D01*
X242873Y88548D01*
X242459Y87830D01*
X242244Y87029D01*
Y86199D01*
X242459Y85399D01*
X242873Y84680D01*
X243460Y84094D01*
X244178Y83679D01*
X244979Y83465D01*
X245808D01*
X246609Y83679D01*
X247328Y84094D01*
X247914Y84680D01*
X248329Y85399D01*
X248543Y86199D01*
Y87029D01*
X248329Y87830D01*
X247914Y88548D01*
X247328Y89135D01*
X246609Y89549D01*
X245808Y89764D01*
D02*
G37*
G36*
X59053Y92913D02*
X58270D01*
X57546Y92614D01*
X56993Y92060D01*
X56693Y91336D01*
Y90553D01*
X56993Y89830D01*
X57090Y89732D01*
X56883Y89232D01*
X56024D01*
Y82342D01*
X61339D01*
Y89232D01*
X60440D01*
X60233Y89732D01*
X60330Y89830D01*
X60630Y90553D01*
Y91336D01*
X60330Y92060D01*
X59777Y92614D01*
X59053Y92913D01*
D02*
G37*
G36*
X198071Y88248D02*
X192756D01*
Y86208D01*
X190965D01*
X190427Y86101D01*
X189971Y85797D01*
X177166Y72991D01*
X177163Y72992D01*
X176380D01*
X175657Y72692D01*
X175103Y72139D01*
X174803Y71415D01*
Y70632D01*
X175103Y69909D01*
X175657Y69355D01*
X176380Y69055D01*
X177163D01*
X177887Y69355D01*
X178440Y69909D01*
X178712Y70563D01*
X191546Y83398D01*
X192756D01*
Y81358D01*
X198071D01*
Y88248D01*
D02*
G37*
G36*
X12052Y84065D02*
X11485D01*
X10960Y83848D01*
X10559Y83446D01*
X10341Y82922D01*
Y82354D01*
X10559Y81829D01*
X10960Y81428D01*
X11485Y81211D01*
X12052D01*
X12577Y81428D01*
X12978Y81829D01*
X13196Y82354D01*
Y82922D01*
X12978Y83446D01*
X12577Y83848D01*
X12052Y84065D01*
D02*
G37*
G36*
X143445Y103071D02*
X142460D01*
X141509Y102816D01*
X140656Y102324D01*
X139960Y101627D01*
X139468Y100774D01*
X139213Y99823D01*
Y98838D01*
X139468Y97887D01*
X139960Y97034D01*
X140656Y96338D01*
X141509Y95846D01*
X142460Y95591D01*
X143142D01*
X159117Y79616D01*
X159355Y79042D01*
X159908Y78489D01*
X160632Y78189D01*
X161415D01*
X162139Y78489D01*
X162692Y79042D01*
X162992Y79766D01*
Y80549D01*
X162692Y81273D01*
X162139Y81826D01*
X161929Y81913D01*
X146261Y97581D01*
X146438Y97887D01*
X146693Y98838D01*
Y99823D01*
X146438Y100774D01*
X145946Y101627D01*
X145249Y102324D01*
X144396Y102816D01*
X143445Y103071D01*
D02*
G37*
G36*
X220472Y84547D02*
X214961D01*
Y82121D01*
X208567D01*
X207876Y81984D01*
X207290Y81592D01*
X198411Y72714D01*
X197460Y72969D01*
X196320D01*
X195218Y72673D01*
X194231Y72103D01*
X193424Y71297D01*
X192854Y70309D01*
X192559Y69208D01*
Y68068D01*
X192854Y66966D01*
X193424Y65979D01*
X194231Y65172D01*
X195218Y64602D01*
X196320Y64307D01*
X197460D01*
X198561Y64602D01*
X199549Y65172D01*
X200355Y65979D01*
X200925Y66966D01*
X201220Y68068D01*
Y69208D01*
X200966Y70159D01*
X209315Y78509D01*
X214961D01*
Y76083D01*
X220472D01*
Y84547D01*
D02*
G37*
G36*
X245808Y81890D02*
X244979D01*
X244178Y81675D01*
X243460Y81261D01*
X242873Y80674D01*
X242459Y79956D01*
X242244Y79155D01*
Y78325D01*
X242459Y77525D01*
X242873Y76806D01*
X243460Y76220D01*
X244178Y75805D01*
X244979Y75590D01*
X245808D01*
X246609Y75805D01*
X247328Y76220D01*
X247914Y76806D01*
X248329Y77525D01*
X248543Y78325D01*
Y79155D01*
X248329Y79956D01*
X247914Y80674D01*
X247328Y81261D01*
X246609Y81675D01*
X245808Y81890D01*
D02*
G37*
G36*
X136221Y80158D02*
X130315D01*
Y74252D01*
X136221D01*
Y80158D01*
D02*
G37*
G36*
X245808Y74016D02*
X244979D01*
X244178Y73801D01*
X243460Y73387D01*
X242873Y72800D01*
X242459Y72082D01*
X242244Y71281D01*
Y70451D01*
X242459Y69650D01*
X242873Y68932D01*
X243460Y68346D01*
X244178Y67931D01*
X244979Y67716D01*
X245808D01*
X246609Y67931D01*
X247328Y68346D01*
X247914Y68932D01*
X248329Y69650D01*
X248543Y70451D01*
Y71281D01*
X248329Y72082D01*
X247914Y72800D01*
X247328Y73387D01*
X246609Y73801D01*
X245808Y74016D01*
D02*
G37*
G36*
Y66142D02*
X244979D01*
X244178Y65927D01*
X243460Y65512D01*
X242873Y64926D01*
X242459Y64208D01*
X242244Y63407D01*
Y62577D01*
X242459Y61776D01*
X242873Y61058D01*
X243460Y60472D01*
X244178Y60057D01*
X244979Y59842D01*
X245808D01*
X246609Y60057D01*
X247328Y60472D01*
X247914Y61058D01*
X248329Y61776D01*
X248543Y62577D01*
Y63407D01*
X248329Y64208D01*
X247914Y64926D01*
X247328Y65512D01*
X246609Y65927D01*
X245808Y66142D01*
D02*
G37*
G36*
X105354Y74035D02*
X97677D01*
Y69705D01*
X99709D01*
Y69035D01*
X97677D01*
Y64705D01*
X102800D01*
X103351Y64153D01*
Y61469D01*
X101307D01*
Y53970D01*
X109008D01*
Y55913D01*
X115748D01*
Y52244D01*
X121457D01*
Y60905D01*
X115748D01*
Y59526D01*
X109008D01*
Y61469D01*
X106964D01*
Y64902D01*
X106826Y65593D01*
X106435Y66179D01*
X105354Y67259D01*
Y69035D01*
X103322D01*
Y69705D01*
X105354D01*
Y74035D01*
D02*
G37*
G36*
X245808Y58268D02*
X244979D01*
X244178Y58053D01*
X243460Y57638D01*
X242873Y57052D01*
X242459Y56334D01*
X242244Y55533D01*
Y54703D01*
X242459Y53902D01*
X242873Y53184D01*
X243460Y52598D01*
X244178Y52183D01*
X244979Y51968D01*
X245808D01*
X246609Y52183D01*
X247328Y52598D01*
X247914Y53184D01*
X248329Y53902D01*
X248543Y54703D01*
Y55533D01*
X248329Y56334D01*
X247914Y57052D01*
X247328Y57638D01*
X246609Y58053D01*
X245808Y58268D01*
D02*
G37*
G36*
Y50394D02*
X244979D01*
X244178Y50179D01*
X243460Y49764D01*
X242873Y49178D01*
X242459Y48460D01*
X242244Y47659D01*
Y46829D01*
X242459Y46028D01*
X242873Y45310D01*
X243460Y44724D01*
X244178Y44309D01*
X244979Y44094D01*
X245808D01*
X246609Y44309D01*
X247328Y44724D01*
X247914Y45310D01*
X248329Y46028D01*
X248543Y46829D01*
Y47659D01*
X248329Y48460D01*
X247914Y49178D01*
X247328Y49764D01*
X246609Y50179D01*
X245808Y50394D01*
D02*
G37*
G36*
X12052Y36781D02*
X11485D01*
X10960Y36564D01*
X10559Y36163D01*
X10341Y35638D01*
Y35070D01*
X10559Y34546D01*
X10960Y34144D01*
X11485Y33927D01*
X12052D01*
X12577Y34144D01*
X12978Y34546D01*
X13196Y35070D01*
Y35638D01*
X12978Y36163D01*
X12577Y36564D01*
X12052Y36781D01*
D02*
G37*
G36*
X187996Y41043D02*
X179335D01*
Y32382D01*
X187996D01*
Y41043D01*
D02*
G37*
G36*
X248543Y34646D02*
X242244D01*
Y28346D01*
X248543D01*
Y34646D01*
D02*
G37*
G36*
X197460Y35567D02*
X196320D01*
X195218Y35272D01*
X194231Y34702D01*
X193424Y33895D01*
X192854Y32908D01*
X192559Y31806D01*
Y30666D01*
X192854Y29565D01*
X193424Y28577D01*
X194231Y27771D01*
X195218Y27201D01*
X196320Y26906D01*
X197460D01*
X198561Y27201D01*
X199549Y27771D01*
X200355Y28577D01*
X200925Y29565D01*
X201220Y30666D01*
Y31806D01*
X200925Y32908D01*
X200355Y33895D01*
X199549Y34702D01*
X198561Y35272D01*
X197460Y35567D01*
D02*
G37*
G36*
X54862Y34252D02*
X48839D01*
Y27087D01*
X54862D01*
Y27195D01*
X55709D01*
X56065Y27047D01*
X56848D01*
X57204Y27195D01*
X57956D01*
Y25249D01*
X66847D01*
Y25694D01*
X71404D01*
X71476Y25646D01*
X72244Y25493D01*
X78543D01*
X79311Y25646D01*
X79962Y26081D01*
X80398Y26732D01*
X80550Y27500D01*
X80398Y28268D01*
X79962Y28919D01*
X79311Y29354D01*
X78543Y29507D01*
X72244D01*
X71476Y29354D01*
X71404Y29306D01*
X66847D01*
Y32752D01*
X57956D01*
Y30807D01*
X57275D01*
X56848Y30984D01*
X56065D01*
X55638Y30807D01*
X54862D01*
Y34252D01*
D02*
G37*
G36*
X104053Y25512D02*
X103270D01*
X102546Y25212D01*
X101993Y24658D01*
X101693Y23935D01*
Y23905D01*
X98870D01*
X98860Y23919D01*
X98209Y24354D01*
X97441Y24507D01*
X91142D01*
X90374Y24354D01*
X89723Y23919D01*
X89287Y23268D01*
X89135Y22500D01*
X89287Y21732D01*
X89723Y21081D01*
X90374Y20646D01*
X91142Y20493D01*
X97441D01*
X98209Y20646D01*
X98860Y21081D01*
X98870Y21095D01*
X102618D01*
X103156Y21202D01*
X103612Y21507D01*
X103680Y21575D01*
X104053D01*
X104777Y21874D01*
X105330Y22428D01*
X105630Y23152D01*
Y23935D01*
X105330Y24658D01*
X104777Y25212D01*
X104053Y25512D01*
D02*
G37*
G36*
X144331Y26476D02*
X138228D01*
Y22361D01*
X136870Y21003D01*
X136566Y20547D01*
X136459Y20009D01*
Y19321D01*
X135969Y18832D01*
X135669Y18108D01*
Y17325D01*
X135969Y16601D01*
X136523Y16048D01*
X137246Y15748D01*
X138029D01*
X138753Y16048D01*
X139307Y16601D01*
X139606Y17325D01*
Y18108D01*
X139307Y18832D01*
X139269Y18869D01*
Y19428D01*
X140215Y20374D01*
X144331D01*
Y26476D01*
D02*
G37*
G36*
X109606Y35374D02*
X103110D01*
Y27697D01*
X107237D01*
Y20925D01*
X105591D01*
Y16810D01*
X103572Y14791D01*
X83239D01*
X80547Y17483D01*
X80550Y17500D01*
X80398Y18268D01*
X79962Y18919D01*
X79311Y19354D01*
X78543Y19507D01*
X72244D01*
X71476Y19354D01*
X70825Y18919D01*
X70390Y18268D01*
X70237Y17500D01*
X70390Y16732D01*
X70825Y16081D01*
X71476Y15646D01*
X72244Y15493D01*
X78543D01*
X78560Y15496D01*
X81664Y12392D01*
X82120Y12088D01*
X82657Y11981D01*
X104154D01*
X104691Y12088D01*
X105147Y12392D01*
X107578Y14823D01*
X111693D01*
Y20925D01*
X110047D01*
Y28661D01*
X109940Y29199D01*
X109635Y29655D01*
X109606Y29684D01*
Y35374D01*
D02*
G37*
G36*
X210684Y41043D02*
X209544D01*
X208443Y40748D01*
X207455Y40178D01*
X206649Y39372D01*
X206079Y38384D01*
X205784Y37283D01*
Y36142D01*
X206079Y35041D01*
X206649Y34054D01*
X207455Y33247D01*
X208308Y32755D01*
Y20311D01*
X207445D01*
Y11421D01*
X214947D01*
Y20311D01*
X211920D01*
Y32755D01*
X212773Y33247D01*
X213580Y34054D01*
X214150Y35041D01*
X214445Y36142D01*
Y37283D01*
X214150Y38384D01*
X213580Y39372D01*
X212773Y40178D01*
X211786Y40748D01*
X210684Y41043D01*
D02*
G37*
G36*
X164744Y12854D02*
X157146D01*
Y5256D01*
X164744D01*
Y12854D01*
D02*
G37*
G36*
X151445D02*
X150445D01*
X149478Y12595D01*
X148612Y12095D01*
X147905Y11388D01*
X147405Y10522D01*
X147146Y9555D01*
Y8555D01*
X147405Y7589D01*
X147905Y6722D01*
X148612Y6015D01*
X149478Y5515D01*
X150445Y5256D01*
X151445D01*
X152411Y5515D01*
X153278Y6015D01*
X153985Y6722D01*
X154485Y7589D01*
X154744Y8555D01*
Y9555D01*
X154485Y10522D01*
X153985Y11388D01*
X153278Y12095D01*
X152411Y12595D01*
X151445Y12854D01*
D02*
G37*
G36*
X133423Y32874D02*
X132640D01*
X131916Y32574D01*
X131363Y32021D01*
X131201Y31629D01*
X129668Y30096D01*
X129276Y29510D01*
X129139Y28819D01*
Y12399D01*
X128612Y12095D01*
X127905Y11388D01*
X127405Y10522D01*
X127146Y9555D01*
Y8555D01*
X127405Y7589D01*
X127905Y6722D01*
X128612Y6015D01*
X129478Y5515D01*
X130445Y5256D01*
X131445D01*
X132411Y5515D01*
X133278Y6015D01*
X133985Y6722D01*
X134485Y7589D01*
X134744Y8555D01*
Y9555D01*
X134485Y10522D01*
X133985Y11388D01*
X133278Y12095D01*
X132751Y12399D01*
Y28071D01*
X133755Y29074D01*
X134147Y29237D01*
X134700Y29790D01*
X135000Y30514D01*
Y31297D01*
X134700Y32021D01*
X134147Y32574D01*
X133423Y32874D01*
D02*
G37*
%LPD*%
G36*
X36027Y83320D02*
X44894D01*
Y76102D01*
Y73286D01*
X39903Y68295D01*
X36735D01*
X36197Y68188D01*
X36162Y68164D01*
X36088Y68162D01*
X35576Y68374D01*
X35370Y68871D01*
X34816Y69425D01*
X34092Y69724D01*
X33309D01*
X32586Y69425D01*
X32032Y68871D01*
X31732Y68147D01*
Y67774D01*
X31583Y67625D01*
X15657D01*
Y73151D01*
X15997Y73292D01*
X16192Y73487D01*
X16766Y73353D01*
X16953Y72901D01*
X17507Y72347D01*
X18230Y72047D01*
X19014D01*
X19737Y72347D01*
X20291Y72901D01*
X20591Y73624D01*
Y74317D01*
X20927Y74654D01*
X21232Y75109D01*
X21339Y75647D01*
Y77126D01*
X21749D01*
Y81213D01*
X22617D01*
X22901Y80930D01*
X23624Y80630D01*
X24407D01*
X25131Y80930D01*
X25685Y81483D01*
X25984Y82207D01*
Y82990D01*
X25685Y83714D01*
X25131Y84267D01*
X24407Y84567D01*
X24174D01*
X24022Y85067D01*
X24073Y85101D01*
X25473Y86501D01*
X25984D01*
Y85650D01*
X34252D01*
Y86501D01*
X36027D01*
Y83320D01*
D02*
G37*
D17*
X106358Y31535D02*
D03*
X119941D02*
D03*
D34*
X141279Y23425D02*
D03*
X150531D02*
D03*
X108642Y17874D02*
D03*
X117894D02*
D03*
X72111Y57008D02*
D03*
D35*
X86253D02*
D03*
Y42866D02*
D03*
D36*
X11768Y82638D02*
D03*
Y35354D02*
D03*
D39*
X14375Y82638D02*
X14176Y83635D01*
X13611Y84481D01*
X12766Y85046D01*
X11768Y85244D01*
X10771Y85046D01*
X9926Y84481D01*
X9361Y83635D01*
X9162Y82638D01*
X9361Y81640D01*
X9926Y80795D01*
X10771Y80230D01*
X11768Y80032D01*
X12766Y80230D01*
X13611Y80795D01*
X14176Y81640D01*
X14375Y82638D01*
Y35354D02*
X14198Y36297D01*
X13692Y37112D01*
X12926Y37689D01*
X12003Y37950D01*
X11048Y37859D01*
X10191Y37429D01*
X9547Y36717D01*
X9204Y35821D01*
X9209Y34862D01*
X9561Y33969D01*
X10211Y33264D01*
X11073Y32843D01*
X12029Y32761D01*
X12944Y33028D01*
X13701Y33606D01*
X14201Y34418D01*
X14375Y35354D01*
X23302Y34646D02*
X23622D01*
X22594Y35354D02*
X23302Y34646D01*
X19934Y35354D02*
X22594D01*
X58661Y85807D02*
X58681Y85787D01*
X58661Y85807D02*
Y90945D01*
X64784Y85787D02*
X67461D01*
X47176Y70404D02*
X48475D01*
X48701Y70630D01*
X58504D01*
X63839Y75965D01*
X30315Y53543D02*
X47176Y70404D01*
X58091Y80158D02*
X70669D01*
X46437Y75965D02*
X53819D01*
X53858Y75925D01*
X55672Y76339D02*
X56735Y77402D01*
X54272Y76339D02*
X55672D01*
X56735Y77402D02*
Y78802D01*
X58091Y80158D01*
X98032Y87677D02*
Y104409D01*
X86253Y75898D02*
X98032Y87677D01*
X245394Y39134D02*
Y39370D01*
X222820Y15866D02*
Y16560D01*
X245394Y39134D01*
X229528Y80315D02*
Y92756D01*
X222953Y99331D02*
X229528Y92756D01*
X110366Y48256D02*
X111417Y47205D01*
X105157Y50627D02*
X107529Y48256D01*
X110366D01*
X117894Y17874D02*
X123268D01*
X123307Y17835D01*
X91142Y17500D02*
X94291D01*
X86142Y22500D02*
X91142Y17500D01*
X86142Y22500D02*
X91142Y27500D01*
X75394Y22500D02*
X86142D01*
X91142Y27500D02*
X94291D01*
X77598Y66083D02*
X78386Y66870D01*
X77598Y62495D02*
Y66083D01*
X78386Y66870D02*
X80059D01*
X72111Y57008D02*
X77598Y62495D01*
X14375Y81571D02*
Y82638D01*
X47480Y43858D02*
X47795D01*
X13786Y34766D02*
X14375Y35354D01*
X12029Y32761D02*
X13786Y34519D01*
X7220Y27953D02*
X12029Y32761D01*
X50728Y46791D02*
Y54252D01*
X61161D02*
X61791Y53622D01*
X66034D01*
X46299Y76102D02*
Y95984D01*
Y72704D02*
Y76102D01*
X46437Y75965D01*
X40485Y66890D02*
X46299Y72704D01*
X42953Y99331D02*
X46299Y95984D01*
X63839Y75965D02*
X65315D01*
X72382Y81870D02*
X80059D01*
X70669Y80158D02*
X72382Y81870D01*
X65433Y75965D02*
X72874D01*
X73779Y76870D02*
X80059D01*
X72874Y75965D02*
X73779Y76870D01*
X67461Y85787D02*
X77953Y96280D01*
X190965Y84803D02*
X195413D01*
X201516Y84803D02*
X202795Y86083D01*
Y99173D01*
X77953Y96280D02*
Y104331D01*
X82953Y109331D01*
X47795Y43858D02*
X60881D01*
X47795D02*
X50728Y46791D01*
X47638Y43701D02*
X47795Y43858D01*
X47244Y44094D02*
X47480Y43858D01*
X32558Y73348D02*
X34646Y71260D01*
X30118Y77284D02*
X31278D01*
X32558Y76004D01*
Y73348D02*
Y76004D01*
X39779Y75448D02*
X40472D01*
X35591Y71260D02*
X39779Y75448D01*
X34646Y71260D02*
X35591D01*
X5118Y41732D02*
X8676Y45290D01*
Y59095D01*
X14375Y81571D02*
X16698Y79248D01*
Y79094D02*
Y79248D01*
X9055Y75590D02*
X11024D01*
X6693Y27953D02*
X7220D01*
X13786Y34519D02*
Y34766D01*
X14252Y41497D02*
X16698Y39051D01*
X14252Y41497D02*
Y66220D01*
X16698Y38898D02*
Y39051D01*
X40133Y29961D02*
X40472Y29621D01*
X30118Y29961D02*
X40133D01*
X39764Y23548D02*
X40472Y24257D01*
X39764Y23228D02*
Y23548D01*
X40472Y24257D02*
Y29621D01*
X55123Y17377D02*
X61708D01*
X56535Y12205D02*
X61708Y17377D01*
X62402D01*
X56299Y12205D02*
X56535D01*
X51850Y20650D02*
X55123Y17377D01*
X51850Y20650D02*
Y21220D01*
X154528Y23425D02*
X163386Y32283D01*
X150531Y23425D02*
X154528D01*
X159547Y65354D02*
X167717D01*
X159488Y65413D02*
X159547Y65354D01*
X14527Y79094D02*
X16698D01*
X11024Y75590D02*
X14527Y79094D01*
X19934Y75647D02*
Y79094D01*
X18622Y74335D02*
X19934Y75647D01*
X18622Y74016D02*
Y74335D01*
X24094Y47717D02*
X26417Y50039D01*
X35866D01*
X86253Y57008D02*
Y75898D01*
X98032Y104409D02*
X102953Y109331D01*
X14252Y66220D02*
Y74011D01*
X32165Y66220D02*
X33701Y67756D01*
X14252Y66220D02*
X32165D01*
X207835Y104291D02*
X207874Y104252D01*
X200433Y104291D02*
X207835D01*
X197815Y101673D02*
X200433Y104291D01*
X197815Y96634D02*
Y101673D01*
X195709Y94528D02*
X197815Y96634D01*
X192165Y94528D02*
X195709D01*
X169646Y72008D02*
X192165Y94528D01*
X156024Y72008D02*
X169646D01*
X177411Y71250D02*
X190965Y84803D01*
X176998Y71250D02*
X177411D01*
X176772Y71024D02*
X176998Y71250D01*
X207874Y104252D02*
X212953Y109331D01*
X143819Y45827D02*
X144606Y45039D01*
X142030Y45827D02*
X143819D01*
X140866Y46991D02*
Y54921D01*
Y46991D02*
X142030Y45827D01*
X127480Y68307D02*
X140866Y54921D01*
X127480Y68307D02*
Y89567D01*
X124331Y92716D02*
X127480Y89567D01*
X120394Y92716D02*
X124331D01*
X117874Y95236D02*
Y104409D01*
Y95236D02*
X120394Y92716D01*
X112953Y109331D02*
X117874Y104409D01*
X149685Y45039D02*
X153425Y41299D01*
X144606Y45039D02*
X149685D01*
X96043Y81870D02*
X101516D01*
X92087Y41772D02*
Y77913D01*
X96043Y81870D01*
X96693Y76339D02*
X100984D01*
X94291Y73937D02*
X96693Y76339D01*
X100984D02*
X101516Y76870D01*
X94291Y32500D02*
Y73937D01*
X87564Y37249D02*
X92087Y41772D01*
X83292Y37249D02*
X87564D01*
X75394Y32500D02*
X78543D01*
X83292Y37249D01*
X36735Y66890D02*
X40485D01*
X33506Y63661D02*
X36735Y66890D01*
X14882Y74641D02*
Y74961D01*
X14252Y74011D02*
X14882Y74641D01*
X17135Y88670D02*
X18937Y90472D01*
X16698Y86181D02*
X17135Y86618D01*
Y88670D01*
X26890Y63661D02*
X33506D01*
X159488Y55374D02*
X166673D01*
X174461Y63161D02*
X183665D01*
X166673Y55374D02*
X174461Y63161D01*
X159311Y55374D02*
X159488D01*
X157835Y53898D02*
X159311Y55374D01*
X157835Y40512D02*
Y53898D01*
X153740Y36417D02*
X157835Y40512D01*
X124823Y36417D02*
X153740D01*
X122402Y33996D02*
X124823Y36417D01*
X119941Y31535D02*
Y32126D01*
X121811Y33996D01*
X122402D01*
X79724Y76535D02*
X80059Y76870D01*
X67569Y52087D02*
X81331D01*
X86253Y57008D01*
X66034Y53622D02*
X67569Y52087D01*
X101575Y81929D02*
X106417D01*
X101516Y81870D02*
X101575Y81929D01*
X106417D02*
X106890Y82402D01*
X110669D01*
X112146Y83878D02*
Y85354D01*
X110669Y82402D02*
X112146Y83878D01*
X107658Y76870D02*
X112146Y72382D01*
Y70906D02*
Y72382D01*
X101516Y76870D02*
X107658D01*
X78543Y17500D02*
X82657Y13386D01*
X104154D01*
X75394Y17500D02*
X78543D01*
X104154Y13386D02*
X108642Y17874D01*
X102618Y22500D02*
X103661Y23543D01*
X94291Y22500D02*
X102618D01*
X108642Y17874D02*
Y28661D01*
X106358Y30945D02*
X108642Y28661D01*
X106358Y30945D02*
Y31535D01*
X137638Y17717D02*
X137864Y17943D01*
Y20009D02*
X141279Y23425D01*
X137864Y17943D02*
Y20009D01*
X20371Y31220D02*
X22121D01*
X23657Y29685D02*
X23976D01*
X22121Y31220D02*
X23657Y29685D01*
X183665Y63161D02*
X185263D01*
X188110Y60315D01*
X205670D01*
X208516Y63161D01*
X210114D01*
X23996Y82618D02*
X24016Y82598D01*
X19934Y82638D02*
X19953Y82618D01*
X23996D01*
X19934Y31657D02*
X20371Y31220D01*
X19934Y31657D02*
Y31811D01*
X202795Y99173D02*
X202953Y99331D01*
D40*
X138661Y40354D02*
Y40461D01*
X137126Y41996D02*
X138661Y40461D01*
X137126Y41996D02*
Y47598D01*
X54646Y65925D02*
X65315D01*
X66268Y64972D02*
X71811D01*
X73673Y63110D02*
X73779D01*
X65315Y65925D02*
X66268Y64972D01*
X71811D02*
X73673Y63110D01*
X210114Y16948D02*
X211196Y15866D01*
X210114Y16948D02*
Y36713D01*
X196890Y68638D02*
X208567Y80315D01*
X217717D01*
X101516Y66870D02*
Y71870D01*
X26271Y55512D02*
X26378D01*
X25362Y56421D02*
X26271Y55512D01*
X22280Y56421D02*
X25362D01*
X20300Y58401D02*
Y59095D01*
Y58401D02*
X22280Y56421D01*
X40472Y46063D02*
X42165Y47756D01*
X40472Y41245D02*
Y46063D01*
X74646Y64083D02*
Y70000D01*
X73855Y63186D02*
Y63292D01*
X74646Y64083D01*
X123268Y66260D02*
Y69823D01*
Y66260D02*
X124331Y65197D01*
X122185Y70906D02*
X123268Y69823D01*
X124331Y65118D02*
Y65197D01*
Y65118D02*
X127559Y61890D01*
Y57657D02*
Y61890D01*
Y57657D02*
X128642Y56575D01*
X130945Y28819D02*
X133031Y30906D01*
X130945Y8976D02*
Y28819D01*
X144606Y54488D02*
X149724Y59606D01*
X144606Y50157D02*
Y54488D01*
X128622Y49095D02*
X128642Y49114D01*
Y56575D01*
X161024Y80158D02*
Y80264D01*
X142953Y98335D02*
X161024Y80264D01*
X142953Y98335D02*
Y99331D01*
X74646Y70000D02*
X76122Y71476D01*
X79665D01*
X80059Y71870D01*
X32953Y109331D02*
X42953D01*
X30118Y96496D02*
X32953Y99331D01*
X30118Y88307D02*
Y96496D01*
X16698Y27161D02*
Y31811D01*
Y27161D02*
X16732Y27126D01*
X84568Y43858D02*
X85560Y42866D01*
X72505Y43858D02*
X84568D01*
X85560Y42866D02*
X86253D01*
X53091Y29001D02*
X62402D01*
X51850Y30241D02*
X53091Y29001D01*
X51850Y30241D02*
Y30669D01*
X63902Y27500D02*
X75394D01*
X62402Y29001D02*
X63902Y27500D01*
X122185Y70906D02*
Y85354D01*
X118602Y56575D02*
Y56637D01*
X105157Y57720D02*
X117520D01*
X118602Y56637D01*
X101516Y66870D02*
X103189D01*
X105157Y64902D01*
Y57720D02*
Y64902D01*
X30118Y88307D02*
X39237D01*
X40472Y87072D01*
X22795Y86378D02*
X24724Y88307D01*
X30118D01*
X19934Y86335D02*
X19977Y86378D01*
X22795D01*
X19934Y86181D02*
Y86335D01*
X29803Y40669D02*
X30118Y40984D01*
X24921Y40669D02*
X29803D01*
X23150Y38898D02*
X24921Y40669D01*
X19934Y38898D02*
X23150D01*
X30118Y40984D02*
X40212D01*
X40472Y41245D01*
D41*
X160945Y9055D02*
D03*
D42*
X150945D02*
D03*
X140945D02*
D03*
X130945D02*
D03*
D43*
X222953Y99331D02*
D03*
X212953D02*
D03*
X202953D02*
D03*
X222953Y109331D02*
D03*
X212953D02*
D03*
X202953D02*
D03*
X172953Y99331D02*
D03*
Y109331D02*
D03*
X152953Y99331D02*
D03*
Y109331D02*
D03*
X142953Y99331D02*
D03*
Y109331D02*
D03*
X132953Y99331D02*
D03*
Y109331D02*
D03*
X122953Y99331D02*
D03*
Y109331D02*
D03*
X102953Y99331D02*
D03*
Y109331D02*
D03*
X82953Y99331D02*
D03*
Y109331D02*
D03*
X62953Y99331D02*
D03*
Y109331D02*
D03*
X32953Y99331D02*
D03*
X42953Y109331D02*
D03*
Y99331D02*
D03*
X52953Y109331D02*
D03*
Y99331D02*
D03*
X72953Y109331D02*
D03*
Y99331D02*
D03*
X92953Y109331D02*
D03*
Y99331D02*
D03*
X112953Y109331D02*
D03*
Y99331D02*
D03*
X162953Y109331D02*
D03*
Y99331D02*
D03*
X182953Y109331D02*
D03*
Y99331D02*
D03*
X192953Y109331D02*
D03*
Y99331D02*
D03*
D44*
X32953Y109331D02*
D03*
D45*
X143110Y77205D02*
D03*
D46*
X133268D02*
D03*
D47*
X245394Y31496D02*
D03*
D48*
Y39370D02*
D03*
Y47244D02*
D03*
Y55118D02*
D03*
Y62992D02*
D03*
Y70866D02*
D03*
Y78740D02*
D03*
Y86614D02*
D03*
D49*
X183665Y36713D02*
D03*
D50*
X196890Y31236D02*
D03*
X210114Y36713D02*
D03*
Y63161D02*
D03*
X196890Y68638D02*
D03*
X183665Y63161D02*
D03*
D51*
X242126Y104331D02*
D03*
X13780D02*
D03*
X242126Y13780D02*
D03*
X13780D02*
D03*
D52*
X23622Y34646D02*
D03*
X58661Y90945D02*
D03*
X48701Y70630D02*
D03*
X128622Y49095D02*
D03*
X111417Y47205D02*
D03*
X86142Y22500D02*
D03*
X123268Y17874D02*
D03*
X137638Y17717D02*
D03*
X103661Y23543D02*
D03*
X47638Y43701D02*
D03*
X34646Y71260D02*
D03*
X5118Y41732D02*
D03*
X9055Y75590D02*
D03*
X7220Y27953D02*
D03*
X39764Y23228D02*
D03*
X56299Y12205D02*
D03*
X163386Y32283D02*
D03*
X167717Y65354D02*
D03*
X23622Y74410D02*
D03*
X26378Y59449D02*
D03*
Y55512D02*
D03*
X30315Y53543D02*
D03*
X42165Y47756D02*
D03*
X73779Y63110D02*
D03*
X125945Y63504D02*
D03*
X133031Y30906D02*
D03*
X56457Y29016D02*
D03*
X18622Y74016D02*
D03*
X24094Y47717D02*
D03*
X35866Y50039D02*
D03*
X33701Y67756D02*
D03*
X176772Y71024D02*
D03*
X156024Y72008D02*
D03*
X149724Y59606D02*
D03*
X14882Y74961D02*
D03*
X18937Y90472D02*
D03*
X26890Y63661D02*
D03*
X138661Y40354D02*
D03*
X153425Y41299D02*
D03*
X161024Y80158D02*
D03*
X16732Y27126D02*
D03*
X23976Y29685D02*
D03*
X24016Y82598D02*
D03*
D53*
X53858Y75925D02*
D03*
Y65886D02*
D03*
X65315Y65925D02*
D03*
Y75965D02*
D03*
X159488Y55374D02*
D03*
Y65413D02*
D03*
D54*
X61161Y54252D02*
D03*
X50728D02*
D03*
D55*
X211196Y15866D02*
D03*
X222820D02*
D03*
X20300Y59095D02*
D03*
X8676D02*
D03*
X60881Y43858D02*
D03*
X72505D02*
D03*
D56*
X58681Y85787D02*
D03*
X64784D02*
D03*
X195413Y84803D02*
D03*
X201516D02*
D03*
D57*
X80059Y66870D02*
D03*
Y71870D02*
D03*
Y76870D02*
D03*
Y81870D02*
D03*
X101516D02*
D03*
Y76870D02*
D03*
Y71870D02*
D03*
Y66870D02*
D03*
D58*
X94291Y32500D02*
D03*
Y27500D02*
D03*
Y22500D02*
D03*
Y17500D02*
D03*
X75394Y32500D02*
D03*
Y27500D02*
D03*
Y22500D02*
D03*
Y17500D02*
D03*
D59*
X217717Y80315D02*
D03*
X229528D02*
D03*
D60*
X137126Y47598D02*
D03*
X144606Y45039D02*
D03*
Y50157D02*
D03*
D61*
X112146Y85354D02*
D03*
X122185D02*
D03*
X112146Y70906D02*
D03*
X122185D02*
D03*
X128642Y56575D02*
D03*
X118602D02*
D03*
D62*
X51850Y21220D02*
D03*
Y30669D02*
D03*
D63*
X62402Y29001D02*
D03*
Y17377D02*
D03*
X40472Y75448D02*
D03*
Y87072D02*
D03*
Y29621D02*
D03*
Y41245D02*
D03*
D64*
X11768Y82638D02*
D03*
Y35354D02*
D03*
D65*
X19934Y79094D02*
D03*
Y82638D02*
D03*
Y86181D02*
D03*
X16698Y79094D02*
D03*
Y86181D02*
D03*
X19934Y31811D02*
D03*
Y35354D02*
D03*
Y38898D02*
D03*
X16698Y31811D02*
D03*
Y38898D02*
D03*
D66*
X105157Y50627D02*
D03*
Y57720D02*
D03*
D67*
X30118Y40984D02*
D03*
Y29961D02*
D03*
Y88307D02*
D03*
Y77284D02*
D03*
M02*
