G04*
G04 #@! TF.GenerationSoftware,Altium Limited,Altium Designer,22.3.1 (43)*
G04*
G04 Layer_Color=128*
%FSLAX25Y25*%
%MOIN*%
G70*
G04*
G04 #@! TF.SameCoordinates,CFB6BFBE-1D4E-4C59-BBC9-44663F7F7C7A*
G04*
G04*
G04 #@! TF.FilePolarity,Positive*
G04*
G01*
G75*
%ADD17R,0.04921X0.06102*%
%ADD34R,0.04528X0.04528*%
%ADD53R,0.07087X0.04134*%
%ADD54R,0.03347X0.06299*%
%ADD55R,0.05928X0.07316*%
%ADD56R,0.03740X0.05315*%
%ADD57R,0.06102X0.02756*%
%ADD58O,0.08661X0.02362*%
%ADD59R,0.03937X0.06890*%
%ADD60R,0.03543X0.02756*%
%ADD61R,0.04134X0.07087*%
%ADD62R,0.04449X0.05591*%
%ADD63R,0.07316X0.05928*%
%ADD65R,0.02055X0.02362*%
%ADD66R,0.06127X0.05924*%
%ADD67R,0.06693X0.03740*%
G36*
X13315Y38203D02*
X13737Y37874D01*
X12895Y37028D01*
Y37027D01*
X12636Y37176D01*
X12066Y37349D01*
X11471D01*
X10901Y37176D01*
X10642Y37028D01*
Y37028D01*
X9800Y37874D01*
X9800Y37874D01*
Y37874D01*
X9800Y37874D01*
X10222Y38203D01*
X11233Y38551D01*
X12303Y38551D01*
X13315Y38203D01*
D02*
G37*
G36*
X14288Y37323D02*
Y37323D01*
X14288D01*
X14288Y37323D01*
D02*
G37*
G36*
X10095Y34228D02*
Y34228D01*
D01*
Y34228D01*
D02*
G37*
G36*
X14617Y36901D02*
X14966Y35889D01*
Y34819D01*
X14617Y33808D01*
X14288Y33386D01*
X13442Y34228D01*
X13442Y34228D01*
X13590Y34487D01*
X13764Y35056D01*
Y35652D01*
X13590Y36222D01*
X13442Y36481D01*
X14288Y37323D01*
X14617Y36901D01*
D02*
G37*
G36*
X10095Y36481D02*
X10095Y36481D01*
X9947Y36222D01*
X9773Y35652D01*
Y35056D01*
X9947Y34487D01*
X10095Y34228D01*
X9249Y33386D01*
X8920Y33808D01*
X8571Y34819D01*
X8571Y35889D01*
X8920Y36901D01*
X9249Y37323D01*
X9249Y37323D01*
X10095Y36481D01*
D02*
G37*
G36*
X10901Y33533D02*
X11471Y33359D01*
X12066D01*
X12636Y33533D01*
X12895Y33681D01*
X13737Y32835D01*
X13737D01*
Y32835D01*
X13737Y32835D01*
X13315Y32505D01*
X12303Y32157D01*
X11233D01*
X10222Y32505D01*
X9800Y32835D01*
X10642Y33681D01*
X10901Y33533D01*
D02*
G37*
G36*
X13315Y85487D02*
X13737Y85158D01*
X12895Y84311D01*
Y84311D01*
X12636Y84459D01*
X12066Y84633D01*
X11471D01*
X10901Y84459D01*
X10642Y84311D01*
Y84311D01*
X9800Y85158D01*
X9800Y85157D01*
Y85158D01*
X9800Y85158D01*
X10222Y85487D01*
X11233Y85835D01*
X12303Y85835D01*
X13315Y85487D01*
D02*
G37*
G36*
X14288Y84606D02*
Y84606D01*
X14288D01*
X14288Y84606D01*
D02*
G37*
G36*
X10095Y81511D02*
Y81511D01*
D01*
Y81511D01*
D02*
G37*
G36*
X14617Y84185D02*
X14966Y83173D01*
Y82103D01*
X14617Y81091D01*
X14288Y80669D01*
X13442Y81511D01*
X13442Y81511D01*
X13590Y81770D01*
X13764Y82340D01*
Y82936D01*
X13590Y83505D01*
X13442Y83764D01*
X14288Y84606D01*
X14617Y84185D01*
D02*
G37*
G36*
X10095Y83765D02*
X10095Y83764D01*
X9947Y83505D01*
X9773Y82936D01*
Y82340D01*
X9947Y81770D01*
X10095Y81511D01*
X9249Y80669D01*
X8920Y81091D01*
X8571Y82103D01*
X8571Y83173D01*
X8920Y84185D01*
X9249Y84606D01*
X9249Y84606D01*
X10095Y83765D01*
D02*
G37*
G36*
X10901Y80817D02*
X11471Y80643D01*
X12066D01*
X12636Y80817D01*
X12895Y80965D01*
X13737Y80118D01*
X13737D01*
Y80118D01*
X13737Y80118D01*
X13315Y79789D01*
X12303Y79441D01*
X11233D01*
X10222Y79789D01*
X9800Y80118D01*
X10642Y80965D01*
X10901Y80817D01*
D02*
G37*
D17*
X106358Y31535D02*
D03*
X119941D02*
D03*
D34*
X141279Y23425D02*
D03*
X150531D02*
D03*
X108642Y17874D02*
D03*
X117894D02*
D03*
D53*
X53858Y75925D02*
D03*
Y65886D02*
D03*
X65315Y65925D02*
D03*
Y75965D02*
D03*
X159488Y55374D02*
D03*
Y65413D02*
D03*
D54*
X61161Y54252D02*
D03*
X50728D02*
D03*
D55*
X211196Y15866D02*
D03*
X222820D02*
D03*
X20300Y59095D02*
D03*
X8676D02*
D03*
X60881Y43858D02*
D03*
X72505D02*
D03*
D56*
X58681Y85787D02*
D03*
X64784D02*
D03*
X195413Y84803D02*
D03*
X201516D02*
D03*
D57*
X80059Y66870D02*
D03*
Y71870D02*
D03*
Y76870D02*
D03*
Y81870D02*
D03*
X101516D02*
D03*
Y76870D02*
D03*
Y71870D02*
D03*
Y66870D02*
D03*
D58*
X94291Y32500D02*
D03*
Y27500D02*
D03*
Y22500D02*
D03*
Y17500D02*
D03*
X75394Y32500D02*
D03*
Y27500D02*
D03*
Y22500D02*
D03*
Y17500D02*
D03*
D59*
X217717Y80315D02*
D03*
X229528D02*
D03*
D60*
X137126Y47598D02*
D03*
X144606Y45039D02*
D03*
Y50157D02*
D03*
D61*
X112146Y85354D02*
D03*
X122185D02*
D03*
X112146Y70906D02*
D03*
X122185D02*
D03*
X128642Y56575D02*
D03*
X118602D02*
D03*
D62*
X51850Y21220D02*
D03*
Y30669D02*
D03*
D63*
X62402Y29001D02*
D03*
Y17377D02*
D03*
X40472Y75448D02*
D03*
Y87072D02*
D03*
Y29621D02*
D03*
Y41245D02*
D03*
D65*
X19934Y79094D02*
D03*
Y82638D02*
D03*
Y86181D02*
D03*
X16698Y79094D02*
D03*
Y86181D02*
D03*
X19934Y31811D02*
D03*
Y35354D02*
D03*
Y38898D02*
D03*
X16698Y31811D02*
D03*
Y38898D02*
D03*
D66*
X105157Y50627D02*
D03*
Y57720D02*
D03*
D67*
X30118Y40984D02*
D03*
Y29961D02*
D03*
Y88307D02*
D03*
Y77284D02*
D03*
M02*
