G04*
G04 #@! TF.GenerationSoftware,Altium Limited,Altium Designer,22.3.1 (43)*
G04*
G04 Layer_Physical_Order=3*
G04 Layer_Color=16440176*
%FSLAX25Y25*%
%MOIN*%
G70*
G04*
G04 #@! TF.SameCoordinates,CFB6BFBE-1D4E-4C59-BBC9-44663F7F7C7A*
G04*
G04*
G04 #@! TF.FilePolarity,Positive*
G04*
G01*
G75*
%ADD35C,0.04528*%
%ADD43C,0.05906*%
%ADD44R,0.05906X0.05906*%
%ADD46R,0.04331X0.04331*%
%ADD47R,0.04724X0.04724*%
%ADD49R,0.07087X0.07087*%
%ADD50C,0.07087*%
%ADD52C,0.02362*%
G36*
X229921Y46457D02*
X240551Y35827D01*
X249213D01*
X250787Y34252D01*
Y28346D01*
X248031Y25591D01*
X234646D01*
X211024Y1969D01*
X46835D01*
X24409Y24394D01*
X15853D01*
X14173Y25905D01*
Y27953D01*
X15748Y29528D01*
X18110D01*
X20079Y31496D01*
Y50394D01*
X22441Y52756D01*
Y65354D01*
X26378Y69291D01*
Y101181D01*
X28725Y103528D01*
X35494D01*
X37386Y101636D01*
Y68913D01*
X57087Y49213D01*
X63386D01*
X67716Y53543D01*
Y63386D01*
X70472Y66142D01*
X75197Y66142D01*
X78347Y62992D01*
Y55118D01*
X84252Y49213D01*
X88583D01*
X90945Y46850D01*
Y40945D01*
X87811Y37811D01*
X57087D01*
X57087Y37811D01*
X57009Y37795D01*
X56739D01*
X50772Y31829D01*
Y26132D01*
X50881Y26023D01*
X50907Y25960D01*
X50963Y25876D01*
X51019Y25820D01*
X51063Y25754D01*
X52132Y24685D01*
X52198Y24641D01*
X52254Y24585D01*
X52338Y24529D01*
X52400Y24503D01*
X52510Y24394D01*
X62144D01*
X68049Y30299D01*
X115022D01*
X120534Y24788D01*
X209695D01*
X209804Y24897D01*
X209867Y24923D01*
X209951Y24979D01*
X210007Y25035D01*
X210072Y25079D01*
X217047Y32054D01*
X217091Y32119D01*
X217147Y32175D01*
X217189Y32237D01*
X217219Y32310D01*
X217221Y32314D01*
X217277Y32370D01*
Y32449D01*
X217278Y32454D01*
X217308Y32526D01*
X217323Y32600D01*
Y32679D01*
X217338Y32756D01*
Y41653D01*
X217323Y41731D01*
X217323Y41810D01*
X217308Y41883D01*
X217278Y41956D01*
X217277Y41960D01*
Y42039D01*
X217221Y42095D01*
X217219Y42099D01*
X217189Y42172D01*
X217147Y42234D01*
X217091Y42290D01*
X217047Y42356D01*
X213969Y45434D01*
X213969Y45434D01*
X212828Y46575D01*
X212762Y46619D01*
X212707Y46675D01*
X212623Y46731D01*
X212560Y46757D01*
X212451Y46866D01*
X151514D01*
X120702Y77677D01*
X120637Y77721D01*
X120581Y77777D01*
X120497Y77833D01*
X120434Y77859D01*
X107480Y90813D01*
Y112598D01*
X111024Y116142D01*
X229921D01*
Y46457D01*
D02*
G37*
G36*
X68898Y111811D02*
Y95276D01*
X87008Y77165D01*
X120051D01*
X120135Y77109D01*
X151181Y46063D01*
X212177D01*
X212261Y46007D01*
X213401Y44866D01*
X216480Y41788D01*
X216521Y41726D01*
X216535Y41653D01*
Y32756D01*
X216521Y32683D01*
X216480Y32621D01*
X209505Y25646D01*
X209421Y25591D01*
X120866D01*
X115354Y31102D01*
Y31102D01*
X67716D01*
X61811Y25197D01*
X52784D01*
X52700Y25253D01*
X51631Y26322D01*
X51575Y26406D01*
Y31496D01*
X57087Y37008D01*
X94488D01*
X98032Y40551D01*
Y51968D01*
X87795Y62205D01*
X80709D01*
X55512Y87402D01*
X45669D01*
Y87402D01*
X38189Y94882D01*
Y101969D01*
X35827Y104331D01*
X28725D01*
X28725Y104331D01*
X28725Y104331D01*
X26378D01*
X24016Y106693D01*
Y116142D01*
X64567D01*
X68898Y111811D01*
D02*
G37*
%LPC*%
G36*
X223445Y113071D02*
X222460D01*
X221509Y112816D01*
X220656Y112324D01*
X219960Y111627D01*
X219467Y110774D01*
X219213Y109823D01*
Y108838D01*
X219467Y107887D01*
X219960Y107034D01*
X220656Y106338D01*
X221509Y105845D01*
X222460Y105591D01*
X223445D01*
X224396Y105845D01*
X225249Y106338D01*
X225946Y107034D01*
X226438Y107887D01*
X226693Y108838D01*
Y109823D01*
X226438Y110774D01*
X225946Y111627D01*
X225249Y112324D01*
X224396Y112816D01*
X223445Y113071D01*
D02*
G37*
G36*
X213445D02*
X212460D01*
X211509Y112816D01*
X210656Y112324D01*
X209960Y111627D01*
X209468Y110774D01*
X209213Y109823D01*
Y108838D01*
X209468Y107887D01*
X209960Y107034D01*
X210656Y106338D01*
X211509Y105845D01*
X212460Y105591D01*
X213445D01*
X214396Y105845D01*
X215249Y106338D01*
X215946Y107034D01*
X216438Y107887D01*
X216693Y108838D01*
Y109823D01*
X216438Y110774D01*
X215946Y111627D01*
X215249Y112324D01*
X214396Y112816D01*
X213445Y113071D01*
D02*
G37*
G36*
X203445D02*
X202460D01*
X201509Y112816D01*
X200656Y112324D01*
X199960Y111627D01*
X199468Y110774D01*
X199213Y109823D01*
Y108838D01*
X199468Y107887D01*
X199960Y107034D01*
X200656Y106338D01*
X201509Y105845D01*
X202460Y105591D01*
X203445D01*
X204396Y105845D01*
X205249Y106338D01*
X205946Y107034D01*
X206438Y107887D01*
X206693Y108838D01*
Y109823D01*
X206438Y110774D01*
X205946Y111627D01*
X205249Y112324D01*
X204396Y112816D01*
X203445Y113071D01*
D02*
G37*
G36*
X193445D02*
X192460D01*
X191509Y112816D01*
X190656Y112324D01*
X189960Y111627D01*
X189468Y110774D01*
X189213Y109823D01*
Y108838D01*
X189468Y107887D01*
X189960Y107034D01*
X190656Y106338D01*
X191509Y105845D01*
X192460Y105591D01*
X193445D01*
X194396Y105845D01*
X195249Y106338D01*
X195946Y107034D01*
X196438Y107887D01*
X196693Y108838D01*
Y109823D01*
X196438Y110774D01*
X195946Y111627D01*
X195249Y112324D01*
X194396Y112816D01*
X193445Y113071D01*
D02*
G37*
G36*
X183445D02*
X182460D01*
X181509Y112816D01*
X180656Y112324D01*
X179960Y111627D01*
X179467Y110774D01*
X179213Y109823D01*
Y108838D01*
X179467Y107887D01*
X179960Y107034D01*
X180656Y106338D01*
X181509Y105845D01*
X182460Y105591D01*
X183445D01*
X184396Y105845D01*
X185249Y106338D01*
X185946Y107034D01*
X186438Y107887D01*
X186693Y108838D01*
Y109823D01*
X186438Y110774D01*
X185946Y111627D01*
X185249Y112324D01*
X184396Y112816D01*
X183445Y113071D01*
D02*
G37*
G36*
X173445D02*
X172460D01*
X171509Y112816D01*
X170656Y112324D01*
X169960Y111627D01*
X169467Y110774D01*
X169213Y109823D01*
Y108838D01*
X169467Y107887D01*
X169960Y107034D01*
X170656Y106338D01*
X171509Y105845D01*
X172460Y105591D01*
X173445D01*
X174396Y105845D01*
X175249Y106338D01*
X175946Y107034D01*
X176438Y107887D01*
X176693Y108838D01*
Y109823D01*
X176438Y110774D01*
X175946Y111627D01*
X175249Y112324D01*
X174396Y112816D01*
X173445Y113071D01*
D02*
G37*
G36*
X163445D02*
X162460D01*
X161509Y112816D01*
X160656Y112324D01*
X159960Y111627D01*
X159467Y110774D01*
X159213Y109823D01*
Y108838D01*
X159467Y107887D01*
X159960Y107034D01*
X160656Y106338D01*
X161509Y105845D01*
X162460Y105591D01*
X163445D01*
X164396Y105845D01*
X165249Y106338D01*
X165946Y107034D01*
X166438Y107887D01*
X166693Y108838D01*
Y109823D01*
X166438Y110774D01*
X165946Y111627D01*
X165249Y112324D01*
X164396Y112816D01*
X163445Y113071D01*
D02*
G37*
G36*
X153445D02*
X152460D01*
X151509Y112816D01*
X150656Y112324D01*
X149960Y111627D01*
X149468Y110774D01*
X149213Y109823D01*
Y108838D01*
X149468Y107887D01*
X149960Y107034D01*
X150656Y106338D01*
X151509Y105845D01*
X152460Y105591D01*
X153445D01*
X154396Y105845D01*
X155249Y106338D01*
X155946Y107034D01*
X156438Y107887D01*
X156693Y108838D01*
Y109823D01*
X156438Y110774D01*
X155946Y111627D01*
X155249Y112324D01*
X154396Y112816D01*
X153445Y113071D01*
D02*
G37*
G36*
X143445D02*
X142460D01*
X141509Y112816D01*
X140656Y112324D01*
X139960Y111627D01*
X139468Y110774D01*
X139213Y109823D01*
Y108838D01*
X139468Y107887D01*
X139960Y107034D01*
X140656Y106338D01*
X141509Y105845D01*
X142460Y105591D01*
X143445D01*
X144396Y105845D01*
X145249Y106338D01*
X145946Y107034D01*
X146438Y107887D01*
X146693Y108838D01*
Y109823D01*
X146438Y110774D01*
X145946Y111627D01*
X145249Y112324D01*
X144396Y112816D01*
X143445Y113071D01*
D02*
G37*
G36*
X133445D02*
X132460D01*
X131509Y112816D01*
X130656Y112324D01*
X129960Y111627D01*
X129467Y110774D01*
X129213Y109823D01*
Y108838D01*
X129467Y107887D01*
X129960Y107034D01*
X130656Y106338D01*
X131509Y105845D01*
X132460Y105591D01*
X133445D01*
X134396Y105845D01*
X135249Y106338D01*
X135946Y107034D01*
X136438Y107887D01*
X136693Y108838D01*
Y109823D01*
X136438Y110774D01*
X135946Y111627D01*
X135249Y112324D01*
X134396Y112816D01*
X133445Y113071D01*
D02*
G37*
G36*
X123445D02*
X122460D01*
X121509Y112816D01*
X120656Y112324D01*
X119960Y111627D01*
X119467Y110774D01*
X119213Y109823D01*
Y108838D01*
X119467Y107887D01*
X119960Y107034D01*
X120656Y106338D01*
X121509Y105845D01*
X122460Y105591D01*
X123445D01*
X124396Y105845D01*
X125249Y106338D01*
X125946Y107034D01*
X126438Y107887D01*
X126693Y108838D01*
Y109823D01*
X126438Y110774D01*
X125946Y111627D01*
X125249Y112324D01*
X124396Y112816D01*
X123445Y113071D01*
D02*
G37*
G36*
X113445D02*
X112460D01*
X111509Y112816D01*
X110656Y112324D01*
X109960Y111627D01*
X109467Y110774D01*
X109213Y109823D01*
Y108838D01*
X109467Y107887D01*
X109960Y107034D01*
X110656Y106338D01*
X111509Y105845D01*
X112460Y105591D01*
X113445D01*
X114396Y105845D01*
X115249Y106338D01*
X115946Y107034D01*
X116438Y107887D01*
X116693Y108838D01*
Y109823D01*
X116438Y110774D01*
X115946Y111627D01*
X115249Y112324D01*
X114396Y112816D01*
X113445Y113071D01*
D02*
G37*
G36*
X223445Y103071D02*
X222460D01*
X221509Y102816D01*
X220656Y102324D01*
X219960Y101627D01*
X219467Y100774D01*
X219213Y99823D01*
Y98838D01*
X219467Y97887D01*
X219960Y97034D01*
X220656Y96338D01*
X221509Y95846D01*
X222460Y95591D01*
X223445D01*
X224396Y95846D01*
X225249Y96338D01*
X225946Y97034D01*
X226438Y97887D01*
X226693Y98838D01*
Y99823D01*
X226438Y100774D01*
X225946Y101627D01*
X225249Y102324D01*
X224396Y102816D01*
X223445Y103071D01*
D02*
G37*
G36*
X213445D02*
X212460D01*
X211509Y102816D01*
X210656Y102324D01*
X209960Y101627D01*
X209468Y100774D01*
X209213Y99823D01*
Y98838D01*
X209468Y97887D01*
X209960Y97034D01*
X210656Y96338D01*
X211509Y95846D01*
X212460Y95591D01*
X213445D01*
X214396Y95846D01*
X215249Y96338D01*
X215946Y97034D01*
X216438Y97887D01*
X216693Y98838D01*
Y99823D01*
X216438Y100774D01*
X215946Y101627D01*
X215249Y102324D01*
X214396Y102816D01*
X213445Y103071D01*
D02*
G37*
G36*
X203445D02*
X202460D01*
X201509Y102816D01*
X200656Y102324D01*
X199960Y101627D01*
X199468Y100774D01*
X199213Y99823D01*
Y98838D01*
X199468Y97887D01*
X199960Y97034D01*
X200656Y96338D01*
X201509Y95846D01*
X202460Y95591D01*
X203445D01*
X204396Y95846D01*
X205249Y96338D01*
X205946Y97034D01*
X206438Y97887D01*
X206693Y98838D01*
Y99823D01*
X206438Y100774D01*
X205946Y101627D01*
X205249Y102324D01*
X204396Y102816D01*
X203445Y103071D01*
D02*
G37*
G36*
X193445D02*
X192460D01*
X191509Y102816D01*
X190656Y102324D01*
X189960Y101627D01*
X189468Y100774D01*
X189213Y99823D01*
Y98838D01*
X189468Y97887D01*
X189960Y97034D01*
X190656Y96338D01*
X191509Y95846D01*
X192460Y95591D01*
X193445D01*
X194396Y95846D01*
X195249Y96338D01*
X195946Y97034D01*
X196438Y97887D01*
X196693Y98838D01*
Y99823D01*
X196438Y100774D01*
X195946Y101627D01*
X195249Y102324D01*
X194396Y102816D01*
X193445Y103071D01*
D02*
G37*
G36*
X183445D02*
X182460D01*
X181509Y102816D01*
X180656Y102324D01*
X179960Y101627D01*
X179467Y100774D01*
X179213Y99823D01*
Y98838D01*
X179467Y97887D01*
X179960Y97034D01*
X180656Y96338D01*
X181509Y95846D01*
X182460Y95591D01*
X183445D01*
X184396Y95846D01*
X185249Y96338D01*
X185946Y97034D01*
X186438Y97887D01*
X186693Y98838D01*
Y99823D01*
X186438Y100774D01*
X185946Y101627D01*
X185249Y102324D01*
X184396Y102816D01*
X183445Y103071D01*
D02*
G37*
G36*
X173445D02*
X172460D01*
X171509Y102816D01*
X170656Y102324D01*
X169960Y101627D01*
X169467Y100774D01*
X169213Y99823D01*
Y98838D01*
X169467Y97887D01*
X169960Y97034D01*
X170656Y96338D01*
X171509Y95846D01*
X172460Y95591D01*
X173445D01*
X174396Y95846D01*
X175249Y96338D01*
X175946Y97034D01*
X176438Y97887D01*
X176693Y98838D01*
Y99823D01*
X176438Y100774D01*
X175946Y101627D01*
X175249Y102324D01*
X174396Y102816D01*
X173445Y103071D01*
D02*
G37*
G36*
X163445D02*
X162460D01*
X161509Y102816D01*
X160656Y102324D01*
X159960Y101627D01*
X159467Y100774D01*
X159213Y99823D01*
Y98838D01*
X159467Y97887D01*
X159960Y97034D01*
X160656Y96338D01*
X161509Y95846D01*
X162460Y95591D01*
X163445D01*
X164396Y95846D01*
X165249Y96338D01*
X165946Y97034D01*
X166438Y97887D01*
X166693Y98838D01*
Y99823D01*
X166438Y100774D01*
X165946Y101627D01*
X165249Y102324D01*
X164396Y102816D01*
X163445Y103071D01*
D02*
G37*
G36*
X153445D02*
X152460D01*
X151509Y102816D01*
X150656Y102324D01*
X149960Y101627D01*
X149468Y100774D01*
X149213Y99823D01*
Y98838D01*
X149468Y97887D01*
X149960Y97034D01*
X150656Y96338D01*
X151509Y95846D01*
X152460Y95591D01*
X153445D01*
X154396Y95846D01*
X155249Y96338D01*
X155946Y97034D01*
X156438Y97887D01*
X156693Y98838D01*
Y99823D01*
X156438Y100774D01*
X155946Y101627D01*
X155249Y102324D01*
X154396Y102816D01*
X153445Y103071D01*
D02*
G37*
G36*
X143445D02*
X142460D01*
X141509Y102816D01*
X140656Y102324D01*
X139960Y101627D01*
X139468Y100774D01*
X139213Y99823D01*
Y98838D01*
X139468Y97887D01*
X139960Y97034D01*
X140656Y96338D01*
X141509Y95846D01*
X142460Y95591D01*
X143445D01*
X144396Y95846D01*
X145249Y96338D01*
X145946Y97034D01*
X146438Y97887D01*
X146693Y98838D01*
Y99823D01*
X146438Y100774D01*
X145946Y101627D01*
X145249Y102324D01*
X144396Y102816D01*
X143445Y103071D01*
D02*
G37*
G36*
X133445D02*
X132460D01*
X131509Y102816D01*
X130656Y102324D01*
X129960Y101627D01*
X129467Y100774D01*
X129213Y99823D01*
Y98838D01*
X129467Y97887D01*
X129960Y97034D01*
X130656Y96338D01*
X131509Y95846D01*
X132460Y95591D01*
X133445D01*
X134396Y95846D01*
X135249Y96338D01*
X135946Y97034D01*
X136438Y97887D01*
X136693Y98838D01*
Y99823D01*
X136438Y100774D01*
X135946Y101627D01*
X135249Y102324D01*
X134396Y102816D01*
X133445Y103071D01*
D02*
G37*
G36*
X123445D02*
X122460D01*
X121509Y102816D01*
X120656Y102324D01*
X119960Y101627D01*
X119467Y100774D01*
X119213Y99823D01*
Y98838D01*
X119467Y97887D01*
X119960Y97034D01*
X120656Y96338D01*
X121509Y95846D01*
X122460Y95591D01*
X123445D01*
X124396Y95846D01*
X125249Y96338D01*
X125946Y97034D01*
X126438Y97887D01*
X126693Y98838D01*
Y99823D01*
X126438Y100774D01*
X125946Y101627D01*
X125249Y102324D01*
X124396Y102816D01*
X123445Y103071D01*
D02*
G37*
G36*
X161415Y82126D02*
X160632D01*
X159908Y81826D01*
X159355Y81273D01*
X159055Y80549D01*
Y79766D01*
X159355Y79042D01*
X159908Y78489D01*
X160632Y78189D01*
X161415D01*
X162139Y78489D01*
X162692Y79042D01*
X162992Y79766D01*
Y80549D01*
X162692Y81273D01*
X162139Y81826D01*
X161415Y82126D01*
D02*
G37*
G36*
X143499Y80158D02*
X142721D01*
X141971Y79956D01*
X141297Y79567D01*
X140747Y79018D01*
X140359Y78344D01*
X140157Y77593D01*
Y76816D01*
X140359Y76065D01*
X140747Y75392D01*
X141297Y74842D01*
X141971Y74453D01*
X142721Y74252D01*
X143499D01*
X144250Y74453D01*
X144923Y74842D01*
X145473Y75392D01*
X145862Y76065D01*
X146063Y76816D01*
Y77593D01*
X145862Y78344D01*
X145473Y79018D01*
X144923Y79567D01*
X144250Y79956D01*
X143499Y80158D01*
D02*
G37*
G36*
X156415Y73976D02*
X155632D01*
X154909Y73677D01*
X154355Y73123D01*
X154055Y72399D01*
Y71616D01*
X154355Y70893D01*
X154909Y70339D01*
X155632Y70039D01*
X156415D01*
X157139Y70339D01*
X157692Y70893D01*
X157992Y71616D01*
Y72399D01*
X157692Y73123D01*
X157139Y73677D01*
X156415Y73976D01*
D02*
G37*
G36*
X177163Y72992D02*
X176380D01*
X175657Y72692D01*
X175103Y72139D01*
X174803Y71415D01*
Y70632D01*
X175103Y69909D01*
X175657Y69355D01*
X176380Y69055D01*
X177163D01*
X177887Y69355D01*
X178440Y69909D01*
X178740Y70632D01*
Y71415D01*
X178440Y72139D01*
X177887Y72692D01*
X177163Y72992D01*
D02*
G37*
G36*
X35037Y73228D02*
X34254D01*
X33531Y72929D01*
X32977Y72375D01*
X32677Y71651D01*
Y70868D01*
X32977Y70145D01*
X32989Y70133D01*
X32871Y69543D01*
X32586Y69425D01*
X32032Y68871D01*
X31732Y68147D01*
Y67364D01*
X32032Y66641D01*
X32586Y66087D01*
X33309Y65787D01*
X34092D01*
X34816Y66087D01*
X35370Y66641D01*
X35669Y67364D01*
Y68147D01*
X35370Y68871D01*
X35358Y68883D01*
X35475Y69473D01*
X35761Y69591D01*
X36314Y70145D01*
X36614Y70868D01*
Y71651D01*
X36314Y72375D01*
X35761Y72929D01*
X35037Y73228D01*
D02*
G37*
G36*
X197460Y72969D02*
X196320D01*
X195218Y72673D01*
X194231Y72103D01*
X193424Y71297D01*
X192854Y70309D01*
X192559Y69208D01*
Y68068D01*
X192854Y66966D01*
X193424Y65979D01*
X194231Y65172D01*
X195218Y64602D01*
X196320Y64307D01*
X197460D01*
X198561Y64602D01*
X199549Y65172D01*
X200355Y65979D01*
X200925Y66966D01*
X201220Y68068D01*
Y69208D01*
X200925Y70309D01*
X200355Y71297D01*
X199549Y72103D01*
X198561Y72673D01*
X197460Y72969D01*
D02*
G37*
G36*
X168108Y67323D02*
X167325D01*
X166602Y67023D01*
X166048Y66469D01*
X165748Y65746D01*
Y64963D01*
X166048Y64239D01*
X166602Y63686D01*
X167325Y63386D01*
X168108D01*
X168832Y63686D01*
X169385Y64239D01*
X169685Y64963D01*
Y65746D01*
X169385Y66469D01*
X168832Y67023D01*
X168108Y67323D01*
D02*
G37*
G36*
X210684Y67492D02*
X209544D01*
X208443Y67197D01*
X207455Y66627D01*
X206649Y65820D01*
X206079Y64833D01*
X205784Y63732D01*
Y62591D01*
X206079Y61490D01*
X206649Y60502D01*
X207455Y59696D01*
X208443Y59126D01*
X209544Y58831D01*
X210684D01*
X211786Y59126D01*
X212773Y59696D01*
X213580Y60502D01*
X214150Y61490D01*
X214445Y62591D01*
Y63732D01*
X214150Y64833D01*
X213580Y65820D01*
X212773Y66627D01*
X211786Y67197D01*
X210684Y67492D01*
D02*
G37*
G36*
X184236D02*
X183095D01*
X181994Y67197D01*
X181006Y66627D01*
X180200Y65820D01*
X179630Y64833D01*
X179335Y63732D01*
Y62591D01*
X179630Y61490D01*
X180200Y60502D01*
X181006Y59696D01*
X181994Y59126D01*
X183095Y58831D01*
X184236D01*
X185337Y59126D01*
X186325Y59696D01*
X187131Y60502D01*
X187701Y61490D01*
X187996Y62591D01*
Y63732D01*
X187701Y64833D01*
X187131Y65820D01*
X186325Y66627D01*
X185337Y67197D01*
X184236Y67492D01*
D02*
G37*
G36*
X27281Y65630D02*
X26498D01*
X25775Y65330D01*
X25221Y64776D01*
X24921Y64053D01*
Y63270D01*
X25221Y62546D01*
X25775Y61993D01*
X25971Y61911D01*
X25980Y61617D01*
X25922Y61391D01*
X25263Y61118D01*
X24709Y60564D01*
X24409Y59840D01*
Y59057D01*
X24709Y58334D01*
X25263Y57780D01*
X25986Y57480D01*
X26770D01*
X27493Y57780D01*
X28047Y58334D01*
X28346Y59057D01*
Y59840D01*
X28047Y60564D01*
X27493Y61118D01*
X27296Y61199D01*
X27287Y61493D01*
X27346Y61720D01*
X28005Y61993D01*
X28559Y62546D01*
X28858Y63270D01*
Y64053D01*
X28559Y64776D01*
X28005Y65330D01*
X27281Y65630D01*
D02*
G37*
G36*
X75162Y60059D02*
X69060D01*
Y53957D01*
X75162D01*
Y60059D01*
D02*
G37*
G36*
X30707Y55512D02*
X29923D01*
X29200Y55212D01*
X28646Y54658D01*
X28346Y53935D01*
Y53152D01*
X28646Y52428D01*
X29200Y51875D01*
X29923Y51575D01*
X30707D01*
X31430Y51875D01*
X31984Y52428D01*
X32283Y53152D01*
Y53935D01*
X31984Y54658D01*
X31430Y55212D01*
X30707Y55512D01*
D02*
G37*
G36*
X36258Y52008D02*
X35475D01*
X34751Y51708D01*
X34197Y51154D01*
X33898Y50431D01*
Y49648D01*
X34197Y48924D01*
X34751Y48371D01*
X35475Y48071D01*
X36258D01*
X36981Y48371D01*
X37535Y48924D01*
X37835Y49648D01*
Y50431D01*
X37535Y51154D01*
X36981Y51708D01*
X36258Y52008D01*
D02*
G37*
G36*
X24486Y49685D02*
X23703D01*
X22979Y49385D01*
X22426Y48832D01*
X22126Y48108D01*
Y47325D01*
X22426Y46602D01*
X22979Y46048D01*
X23703Y45748D01*
X24486D01*
X25210Y46048D01*
X25763Y46602D01*
X26063Y47325D01*
Y48108D01*
X25763Y48832D01*
X25210Y49385D01*
X24486Y49685D01*
D02*
G37*
G36*
X48029Y45669D02*
X47246D01*
X46523Y45370D01*
X45969Y44816D01*
X45669Y44092D01*
Y43309D01*
X45969Y42586D01*
X46523Y42032D01*
X47246Y41732D01*
X48029D01*
X48753Y42032D01*
X49307Y42586D01*
X49606Y43309D01*
Y44092D01*
X49307Y44816D01*
X48753Y45370D01*
X48029Y45669D01*
D02*
G37*
G36*
X24014Y36614D02*
X23231D01*
X22507Y36314D01*
X21953Y35761D01*
X21654Y35037D01*
Y34254D01*
X21953Y33531D01*
X22507Y32977D01*
X23231Y32677D01*
X24014D01*
X24737Y32977D01*
X25291Y33531D01*
X25591Y34254D01*
Y35037D01*
X25291Y35761D01*
X24737Y36314D01*
X24014Y36614D01*
D02*
G37*
G36*
X24368Y31653D02*
X23585D01*
X22861Y31354D01*
X22308Y30800D01*
X22008Y30077D01*
Y29294D01*
X22308Y28570D01*
X22861Y28016D01*
X23585Y27716D01*
X24368D01*
X25091Y28016D01*
X25645Y28570D01*
X25945Y29294D01*
Y30077D01*
X25645Y30800D01*
X25091Y31354D01*
X24368Y31653D01*
D02*
G37*
G36*
X104053Y25512D02*
X103270D01*
X102546Y25212D01*
X101993Y24658D01*
X101693Y23935D01*
Y23152D01*
X101993Y22428D01*
X102546Y21874D01*
X103270Y21575D01*
X104053D01*
X104777Y21874D01*
X105330Y22428D01*
X105630Y23152D01*
Y23935D01*
X105330Y24658D01*
X104777Y25212D01*
X104053Y25512D01*
D02*
G37*
G36*
X40155Y25197D02*
X39372D01*
X38649Y24897D01*
X38095Y24343D01*
X37795Y23620D01*
Y22837D01*
X38095Y22113D01*
X38649Y21560D01*
X39372Y21260D01*
X40155D01*
X40879Y21560D01*
X41433Y22113D01*
X41732Y22837D01*
Y23620D01*
X41433Y24343D01*
X40879Y24897D01*
X40155Y25197D01*
D02*
G37*
G36*
X86533Y24468D02*
X85750D01*
X85027Y24169D01*
X84473Y23615D01*
X84173Y22892D01*
Y22108D01*
X84473Y21385D01*
X85027Y20831D01*
X85750Y20531D01*
X86533D01*
X87257Y20831D01*
X87811Y21385D01*
X88110Y22108D01*
Y22892D01*
X87811Y23615D01*
X87257Y24169D01*
X86533Y24468D01*
D02*
G37*
G36*
X123659Y19842D02*
X122876D01*
X122153Y19543D01*
X121599Y18989D01*
X121299Y18266D01*
Y17482D01*
X121599Y16759D01*
X122153Y16205D01*
X122876Y15905D01*
X123659D01*
X124383Y16205D01*
X124936Y16759D01*
X125236Y17482D01*
Y18266D01*
X124936Y18989D01*
X124383Y19543D01*
X123659Y19842D01*
D02*
G37*
G36*
X138029Y19685D02*
X137246D01*
X136523Y19385D01*
X135969Y18832D01*
X135669Y18108D01*
Y17325D01*
X135969Y16601D01*
X136523Y16048D01*
X137246Y15748D01*
X138029D01*
X138753Y16048D01*
X139307Y16601D01*
X139606Y17325D01*
Y18108D01*
X139307Y18832D01*
X138753Y19385D01*
X138029Y19685D01*
D02*
G37*
G36*
X56691Y14173D02*
X55908D01*
X55184Y13873D01*
X54630Y13320D01*
X54331Y12596D01*
Y11813D01*
X54630Y11090D01*
X55184Y10536D01*
X55908Y10236D01*
X56691D01*
X57414Y10536D01*
X57968Y11090D01*
X58268Y11813D01*
Y12596D01*
X57968Y13320D01*
X57414Y13873D01*
X56691Y14173D01*
D02*
G37*
G36*
X164744Y12854D02*
X157146D01*
Y5256D01*
X164744D01*
Y12854D01*
D02*
G37*
G36*
X151445D02*
X150445D01*
X149478Y12595D01*
X148612Y12095D01*
X147905Y11388D01*
X147405Y10522D01*
X147146Y9555D01*
Y8555D01*
X147405Y7589D01*
X147905Y6722D01*
X148612Y6015D01*
X149478Y5515D01*
X150445Y5256D01*
X151445D01*
X152411Y5515D01*
X153278Y6015D01*
X153985Y6722D01*
X154485Y7589D01*
X154744Y8555D01*
Y9555D01*
X154485Y10522D01*
X153985Y11388D01*
X153278Y12095D01*
X152411Y12595D01*
X151445Y12854D01*
D02*
G37*
G36*
X141445D02*
X140445D01*
X139478Y12595D01*
X138612Y12095D01*
X137905Y11388D01*
X137405Y10522D01*
X137146Y9555D01*
Y8555D01*
X137405Y7589D01*
X137905Y6722D01*
X138612Y6015D01*
X139478Y5515D01*
X140445Y5256D01*
X141445D01*
X142411Y5515D01*
X143278Y6015D01*
X143985Y6722D01*
X144485Y7589D01*
X144744Y8555D01*
Y9555D01*
X144485Y10522D01*
X143985Y11388D01*
X143278Y12095D01*
X142411Y12595D01*
X141445Y12854D01*
D02*
G37*
G36*
X131445D02*
X130445D01*
X129478Y12595D01*
X128612Y12095D01*
X127905Y11388D01*
X127405Y10522D01*
X127146Y9555D01*
Y8555D01*
X127405Y7589D01*
X127905Y6722D01*
X128612Y6015D01*
X129478Y5515D01*
X130445Y5256D01*
X131445D01*
X132411Y5515D01*
X133278Y6015D01*
X133985Y6722D01*
X134485Y7589D01*
X134744Y8555D01*
Y9555D01*
X134485Y10522D01*
X133985Y11388D01*
X133278Y12095D01*
X132411Y12595D01*
X131445Y12854D01*
D02*
G37*
G36*
X63445Y113071D02*
X62460D01*
X61509Y112816D01*
X60656Y112324D01*
X59960Y111627D01*
X59468Y110774D01*
X59213Y109823D01*
Y108838D01*
X59468Y107887D01*
X59960Y107034D01*
X60656Y106338D01*
X61509Y105845D01*
X62460Y105591D01*
X63445D01*
X64396Y105845D01*
X65249Y106338D01*
X65946Y107034D01*
X66438Y107887D01*
X66693Y108838D01*
Y109823D01*
X66438Y110774D01*
X65946Y111627D01*
X65249Y112324D01*
X64396Y112816D01*
X63445Y113071D01*
D02*
G37*
G36*
X53445D02*
X52460D01*
X51509Y112816D01*
X50656Y112324D01*
X49960Y111627D01*
X49468Y110774D01*
X49213Y109823D01*
Y108838D01*
X49468Y107887D01*
X49960Y107034D01*
X50656Y106338D01*
X51509Y105845D01*
X52460Y105591D01*
X53445D01*
X54396Y105845D01*
X55249Y106338D01*
X55946Y107034D01*
X56438Y107887D01*
X56693Y108838D01*
Y109823D01*
X56438Y110774D01*
X55946Y111627D01*
X55249Y112324D01*
X54396Y112816D01*
X53445Y113071D01*
D02*
G37*
G36*
X63445Y103071D02*
X62460D01*
X61509Y102816D01*
X60656Y102324D01*
X59960Y101627D01*
X59468Y100774D01*
X59213Y99823D01*
Y98838D01*
X59468Y97887D01*
X59960Y97034D01*
X60656Y96338D01*
X61509Y95846D01*
X62460Y95591D01*
X63445D01*
X64396Y95846D01*
X65249Y96338D01*
X65946Y97034D01*
X66438Y97887D01*
X66693Y98838D01*
Y99823D01*
X66438Y100774D01*
X65946Y101627D01*
X65249Y102324D01*
X64396Y102816D01*
X63445Y103071D01*
D02*
G37*
G36*
X53445D02*
X52460D01*
X51509Y102816D01*
X50656Y102324D01*
X49960Y101627D01*
X49468Y100774D01*
X49213Y99823D01*
Y98838D01*
X49468Y97887D01*
X49960Y97034D01*
X50656Y96338D01*
X51509Y95846D01*
X52460Y95591D01*
X53445D01*
X54396Y95846D01*
X55249Y96338D01*
X55946Y97034D01*
X56438Y97887D01*
X56693Y98838D01*
Y99823D01*
X56438Y100774D01*
X55946Y101627D01*
X55249Y102324D01*
X54396Y102816D01*
X53445Y103071D01*
D02*
G37*
G36*
X43445D02*
X42460D01*
X41509Y102816D01*
X40656Y102324D01*
X39960Y101627D01*
X39467Y100774D01*
X39213Y99823D01*
Y98838D01*
X39467Y97887D01*
X39960Y97034D01*
X40656Y96338D01*
X41509Y95846D01*
X42460Y95591D01*
X43445D01*
X44396Y95846D01*
X45249Y96338D01*
X45946Y97034D01*
X46438Y97887D01*
X46693Y98838D01*
Y99823D01*
X46438Y100774D01*
X45946Y101627D01*
X45249Y102324D01*
X44396Y102816D01*
X43445Y103071D01*
D02*
G37*
G36*
X59053Y92913D02*
X58270D01*
X57546Y92614D01*
X56993Y92060D01*
X56693Y91336D01*
Y90553D01*
X56993Y89830D01*
X57546Y89276D01*
X58270Y88976D01*
X59053D01*
X59777Y89276D01*
X60330Y89830D01*
X60630Y90553D01*
Y91336D01*
X60330Y92060D01*
X59777Y92614D01*
X59053Y92913D01*
D02*
G37*
G36*
X111809Y49173D02*
X111026D01*
X110302Y48873D01*
X109748Y48320D01*
X109449Y47596D01*
Y46813D01*
X109748Y46090D01*
X110302Y45536D01*
X111026Y45236D01*
X111809D01*
X112532Y45536D01*
X113086Y46090D01*
X113386Y46813D01*
Y47596D01*
X113086Y48320D01*
X112532Y48873D01*
X111809Y49173D01*
D02*
G37*
G36*
X153817Y43268D02*
X153034D01*
X152310Y42968D01*
X151756Y42414D01*
X151457Y41691D01*
Y40908D01*
X151756Y40184D01*
X152310Y39630D01*
X153034Y39331D01*
X153817D01*
X154540Y39630D01*
X155094Y40184D01*
X155394Y40908D01*
Y41691D01*
X155094Y42414D01*
X154540Y42968D01*
X153817Y43268D01*
D02*
G37*
G36*
X139053Y42323D02*
X138270D01*
X137546Y42023D01*
X136993Y41469D01*
X136693Y40746D01*
Y39963D01*
X136993Y39239D01*
X137546Y38686D01*
X138270Y38386D01*
X139053D01*
X139777Y38686D01*
X140330Y39239D01*
X140630Y39963D01*
Y40746D01*
X140330Y41469D01*
X139777Y42023D01*
X139053Y42323D01*
D02*
G37*
G36*
X163777Y34252D02*
X162994D01*
X162271Y33952D01*
X161717Y33399D01*
X161417Y32675D01*
Y31892D01*
X161717Y31168D01*
X162271Y30615D01*
X162994Y30315D01*
X163777D01*
X164501Y30615D01*
X165055Y31168D01*
X165354Y31892D01*
Y32675D01*
X165055Y33399D01*
X164501Y33952D01*
X163777Y34252D01*
D02*
G37*
%LPD*%
D35*
X86253Y42866D02*
D03*
D43*
X32953Y99331D02*
D03*
X42953Y109331D02*
D03*
X112953Y99331D02*
D03*
D44*
X32953Y109331D02*
D03*
D46*
X133268Y77205D02*
D03*
D47*
X245394Y31496D02*
D03*
D49*
X183665Y36713D02*
D03*
D50*
X196890Y31236D02*
D03*
X210114Y36713D02*
D03*
D52*
X128622Y49095D02*
D03*
X26378Y55512D02*
D03*
X42165Y47756D02*
D03*
X73779Y63110D02*
D03*
X125945Y63504D02*
D03*
X133031Y30906D02*
D03*
X56457Y29016D02*
D03*
X149724Y59606D02*
D03*
X16732Y27126D02*
D03*
M02*
